if (_typeface_js && _typeface_js.loadFace) _typeface_js.loadFace({"glyphs":{"ǻ":{"x_min":92,"x_max":696,"ha":834,"o":"m 606 0 l 580 99 l 575 99 q 468 10 523 35 q 327 -14 413 -14 q 154 44 217 -14 q 92 207 92 102 q 436 442 92 431 l 573 447 l 573 494 q 409 655 573 655 q 187 599 309 655 l 144 692 q 404 758 277 758 q 627 699 558 758 q 696 509 696 640 l 696 0 l 606 0 m 572 362 l 462 357 q 274 315 330 352 q 219 204 219 279 q 354 82 219 82 q 513 138 454 82 q 572 294 572 194 l 572 362 m 414 842 q 304 881 345 842 q 263 988 263 920 q 304 1094 263 1055 q 414 1134 345 1134 q 526 1093 482 1134 q 570 989 570 1053 q 526 882 570 922 q 414 842 483 842 m 416 1064 q 359 1044 381 1064 q 337 988 337 1024 q 416 911 337 911 q 473 931 451 911 q 495 988 495 951 q 473 1044 495 1024 q 416 1064 451 1064 m 347 1185 q 465 1389 411 1275 l 614 1389 l 614 1374 q 429 1167 537 1257 l 347 1167 l 347 1185 "},"Á":{"x_min":22,"x_max":812,"ha":834,"o":"m 681 0 l 583 307 l 250 307 l 150 0 l 22 0 l 350 996 l 482 996 l 812 0 l 681 0 m 547 419 l 457 706 q 415 860 431 791 q 384 736 401 793 l 286 419 l 547 419 m 353 1089 q 471 1293 417 1179 l 620 1293 l 620 1278 q 435 1071 543 1161 l 353 1071 l 353 1089 "},"ĥ":{"x_min":109,"x_max":725,"ha":834,"o":"m 601 0 l 601 479 q 440 655 601 655 q 232 385 232 655 l 232 0 l 109 0 l 109 1055 l 232 1055 l 232 741 l 227 644 l 233 644 q 461 758 303 758 q 725 486 725 758 l 725 0 l 601 0 m 652 1109 l 569 1109 q 426 1234 512 1146 q 283 1109 336 1142 l 202 1109 l 202 1127 q 242 1172 218 1146 q 361 1331 336 1277 l 492 1331 q 611 1172 517 1277 l 652 1127 l 652 1109 "},"Κ":{"x_min":143,"x_max":813.25,"ha":834,"o":"m 813 0 l 669 0 l 364 473 l 269 396 l 269 0 l 143 0 l 143 992 l 269 992 l 269 496 l 351 609 l 659 992 l 801 992 l 447 559 l 813 0 "},"»":{"x_min":134,"x_max":699,"ha":834,"o":"m 699 356 l 489 78 l 410 130 l 571 366 l 410 602 l 489 655 l 699 374 l 699 356 m 423 356 l 212 78 l 134 130 l 295 366 l 134 602 l 212 655 l 423 374 l 423 356 "},"∆":{"x_min":50,"x_max":784,"ha":834,"o":"m 50 76 l 353 992 l 479 992 l 784 75 l 784 0 l 50 0 l 50 76 m 478 625 q 415 856 438 749 q 355 629 384 720 l 185 111 l 646 111 l 478 625 "},"ў":{"x_min":56,"x_max":777,"ha":834,"o":"m 56 745 l 183 745 l 361 301 q 421 104 416 162 l 425 104 q 486 302 441 180 l 648 745 l 777 745 l 454 -97 q 348 -274 409 -215 q 181 -334 288 -334 q 68 -322 123 -334 l 68 -224 q 160 -231 110 -231 q 261 -203 225 -231 q 326 -108 298 -176 l 365 -7 l 56 745 m 684 1058 q 419 842 670 842 q 229 892 287 842 q 164 1058 170 942 l 280 1058 q 314 959 286 988 q 424 930 343 930 q 567 1058 555 930 l 684 1058 "},"ţ":{"x_min":95,"x_max":696,"ha":834,"o":"m 692 101 l 692 7 q 521 -14 603 -14 q 276 218 276 -14 l 276 648 l 95 648 l 95 715 l 276 749 l 328 943 l 399 943 l 399 745 l 696 745 l 696 648 l 399 648 l 399 219 q 529 88 399 88 q 692 101 592 88 m 332 -288 q 389 -85 374 -193 l 510 -85 l 510 -98 q 477 -182 510 -113 q 399 -307 444 -251 l 332 -307 l 332 -288 "},"«":{"x_min":134,"x_max":699,"ha":834,"o":"m 134 374 l 343 655 l 423 602 l 261 366 l 423 130 l 343 78 l 134 356 l 134 374 m 410 374 l 619 655 l 699 602 l 537 366 l 699 130 l 619 78 l 410 356 l 410 374 "},"í":{"x_min":133.6875,"x_max":729.171875,"ha":834,"o":"m 367 648 l 184 662 l 184 745 l 490 745 l 490 96 l 729 83 l 729 0 l 133 0 l 133 83 l 367 96 l 367 648 m 360 860 q 478 1064 424 950 l 627 1064 l 627 1049 q 442 842 550 932 l 360 842 l 360 860 "},"ņ":{"x_min":109,"x_max":725,"ha":834,"o":"m 601 0 l 601 479 q 440 655 601 655 q 232 385 232 655 l 232 0 l 109 0 l 109 745 l 208 745 l 227 644 l 233 644 q 461 758 303 758 q 725 486 725 758 l 725 0 l 601 0 m 309 -288 q 366 -85 351 -193 l 487 -85 l 487 -98 q 454 -182 487 -113 q 376 -307 421 -251 l 309 -307 l 309 -288 "},"µ":{"x_min":122,"x_max":712,"ha":834,"o":"m 245 264 q 393 88 245 88 q 541 150 494 88 q 588 357 588 211 l 588 745 l 712 745 l 712 0 l 612 0 l 593 99 l 587 99 q 386 -14 521 -14 q 241 45 291 -14 q 245 -117 245 -58 l 245 -334 l 122 -334 l 122 745 l 245 745 l 245 264 "},"ỳ":{"x_min":56,"x_max":777,"ha":834,"o":"m 56 745 l 183 745 l 361 301 q 421 104 416 162 l 425 104 q 486 302 441 180 l 648 745 l 777 745 l 454 -97 q 348 -274 409 -215 q 181 -334 288 -334 q 68 -322 123 -334 l 68 -224 q 160 -231 110 -231 q 261 -203 225 -231 q 326 -108 298 -176 l 365 -7 l 56 745 m 480 842 l 397 842 q 213 1049 285 938 l 213 1064 l 361 1064 q 480 860 420 943 l 480 842 "},"Ι":{"x_min":152.921875,"x_max":678.5625,"ha":834,"o":"m 678 0 l 152 0 l 152 83 l 353 96 l 353 895 l 152 908 l 152 992 l 678 992 l 678 908 l 479 895 l 479 96 l 678 83 l 678 0 "},"Ύ":{"x_min":-160,"x_max":809,"ha":834,"o":"m 415 490 l 672 992 l 809 992 l 479 386 l 479 0 l 353 0 l 353 379 l 23 992 l 160 992 l 415 490 m -160 789 l -137 861 q -108 993 -115 938 l 22 993 l 22 978 q -11 897 22 967 q -86 771 -44 827 l -160 771 l -160 789 "},"ѕ":{"x_min":138,"x_max":696,"ha":834,"o":"m 138 32 l 138 145 q 388 88 268 88 q 575 196 575 88 q 542 264 575 235 q 388 336 508 292 q 190 444 231 395 q 149 560 149 493 q 224 705 149 652 q 433 758 300 758 q 684 707 568 758 l 643 606 q 428 655 520 655 q 269 565 269 655 q 303 499 269 523 q 460 430 337 474 q 649 327 602 378 q 696 203 696 277 q 616 44 696 102 q 392 -14 537 -14 q 138 32 224 -14 "},"Ш":{"x_min":82,"x_max":753,"ha":834,"o":"m 753 0 l 82 0 l 82 992 l 208 992 l 208 111 l 354 111 l 354 992 l 480 992 l 480 111 l 626 111 l 626 992 l 753 992 l 753 0 "},"M":{"x_min":77,"x_max":757,"ha":834,"o":"m 361 0 l 173 868 l 167 868 q 180 592 180 687 l 180 0 l 77 0 l 77 992 l 244 992 l 412 183 l 416 183 l 586 992 l 757 992 l 757 0 l 653 0 l 653 601 q 663 866 653 670 l 657 866 l 466 0 l 361 0 "},"Ψ":{"x_min":39,"x_max":797,"ha":834,"o":"m 797 667 q 720 387 797 472 q 494 303 644 303 l 483 303 l 483 0 l 357 0 l 357 303 l 346 303 q 115 388 192 303 q 39 664 39 473 l 39 992 l 165 992 l 165 667 q 208 460 165 511 q 346 410 252 410 l 357 410 l 357 992 l 483 992 l 483 410 l 493 410 q 628 459 585 410 q 670 664 670 508 l 670 992 l 797 992 l 797 667 "},"ũ":{"x_min":109,"x_max":725,"ha":834,"o":"m 625 0 l 607 99 l 600 99 q 373 -14 529 -14 q 109 258 109 -14 l 109 745 l 232 745 l 232 264 q 392 88 232 88 q 551 151 501 88 q 601 357 601 214 l 601 745 l 725 745 l 725 0 l 625 0 m 245 841 l 174 841 q 317 1021 190 1021 q 426 982 356 1021 q 518 944 495 944 q 590 1022 573 944 l 662 1022 q 519 843 643 843 q 412 881 480 843 q 317 919 344 919 q 245 841 262 919 "},"ŭ":{"x_min":109,"x_max":725,"ha":834,"o":"m 625 0 l 607 99 l 600 99 q 373 -14 529 -14 q 109 258 109 -14 l 109 745 l 232 745 l 232 264 q 392 88 232 88 q 551 151 501 88 q 601 357 601 214 l 601 745 l 725 745 l 725 0 l 625 0 m 621 1030 q 560 892 614 943 q 414 842 506 842 q 213 1030 224 842 l 287 1030 q 319 960 292 977 q 416 943 346 943 q 546 1030 539 943 l 621 1030 "},"―":{"x_min":-4,"x_max":838,"ha":834,"o":"m -4 315 l -4 429 l 838 429 l 838 315 l -4 315 "},"{":{"x_min":153,"x_max":679,"ha":834,"o":"m 505 -10 q 543 -91 505 -65 q 679 -118 581 -116 l 679 -220 q 382 -19 382 -215 l 382 208 q 153 337 382 337 l 153 439 q 382 567 382 439 l 382 793 q 679 992 382 987 l 679 890 q 543 863 581 888 q 505 783 505 838 l 505 559 q 347 391 505 419 l 347 383 q 505 214 505 355 l 505 -10 "},"¼":{"x_min":15,"x_max":823.71875,"ha":834,"o":"m 163 990 l 257 990 l 257 456 l 156 456 l 156 771 q 162 906 156 817 q 111 862 134 876 l 64 828 l 15 887 l 163 990 m 717 992 l 222 0 l 115 0 l 609 992 l 717 992 m 823 117 l 766 117 l 766 0 l 665 0 l 665 117 l 411 117 l 411 184 l 666 539 l 766 539 l 766 195 l 823 195 l 823 117 m 665 195 l 665 314 q 669 430 665 369 q 614 341 641 381 l 509 195 l 665 195 "},"Ḿ":{"x_min":77,"x_max":757,"ha":834,"o":"m 361 0 l 173 868 l 167 868 q 180 592 180 687 l 180 0 l 77 0 l 77 992 l 244 992 l 412 183 l 416 183 l 586 992 l 757 992 l 757 0 l 653 0 l 653 601 q 663 866 653 670 l 657 866 l 466 0 l 361 0 m 352 1091 q 470 1295 416 1181 l 619 1295 l 619 1280 q 434 1073 542 1163 l 352 1073 l 352 1091 "},"ι":{"x_min":290,"x_max":690,"ha":834,"o":"m 413 745 l 413 220 q 544 88 413 88 q 690 101 621 88 l 690 7 q 536 -14 626 -14 q 290 219 290 -14 l 290 745 l 413 745 "},"Ĳ":{"x_min":106,"x_max":719,"ha":834,"o":"m 106 0 l 106 992 l 232 992 l 232 0 l 106 0 m 334 15 l 334 125 q 460 93 397 93 q 592 286 592 93 l 592 992 l 719 992 l 719 295 q 471 -14 719 -14 q 334 15 380 -14 "},"Ê":{"x_min":147,"x_max":719,"ha":834,"o":"m 719 0 l 147 0 l 147 992 l 719 992 l 719 880 l 273 880 l 273 574 l 693 574 l 693 462 l 273 462 l 273 111 l 719 111 l 719 0 m 666 1071 l 583 1071 q 440 1196 526 1108 q 297 1071 350 1104 l 216 1071 l 216 1089 q 256 1134 232 1108 q 375 1293 350 1239 l 506 1293 q 625 1134 531 1239 l 666 1089 l 666 1071 "},"Ά":{"x_min":22,"x_max":812,"ha":834,"o":"m 681 0 l 583 307 l 250 307 l 150 0 l 22 0 l 350 996 l 482 996 l 812 0 l 681 0 m 547 419 l 457 706 q 415 860 431 791 q 384 736 401 793 l 286 419 l 547 419 m 25 789 l 47 861 q 76 993 69 938 l 207 993 l 207 978 q 173 897 207 967 q 98 771 140 827 l 25 771 l 25 789 "},")":{"x_min":201,"x_max":634,"ha":834,"o":"m 331 -220 l 202 -220 q 506 386 506 31 q 201 992 506 737 l 331 992 q 634 384 634 747 q 331 -220 634 18 "},"ε":{"x_min":136,"x_max":700.703125,"ha":834,"o":"m 570 439 l 570 336 l 462 336 q 259 210 259 336 q 450 88 259 88 q 698 145 583 88 l 698 36 q 441 -14 606 -14 q 217 43 298 -14 q 136 203 136 100 q 297 385 136 334 l 297 392 q 160 561 160 437 q 236 705 160 652 q 440 758 312 758 q 700 706 587 758 l 658 606 q 446 655 550 655 q 283 551 283 655 q 467 439 283 439 l 570 439 "},"э":{"x_min":124.9375,"x_max":720,"ha":834,"o":"m 129 27 l 129 135 q 343 93 239 93 q 592 326 580 93 l 228 326 l 228 434 l 591 434 q 344 650 572 650 q 166 610 271 650 l 124 717 q 350 758 228 758 q 625 658 531 758 q 720 367 720 559 q 622 85 720 184 q 346 -14 525 -14 q 129 27 219 -14 "},"ш":{"x_min":85,"x_max":751,"ha":834,"o":"m 470 102 l 645 102 l 645 745 l 751 745 l 751 0 l 85 0 l 85 745 l 190 745 l 190 102 l 365 102 l 365 745 l 470 745 l 470 102 "},"Я":{"x_min":38.75,"x_max":707,"ha":834,"o":"m 414 409 l 187 0 l 38 0 l 297 443 q 113 720 113 510 q 454 992 113 992 l 707 992 l 707 0 l 580 0 l 580 409 l 414 409 m 580 884 l 454 884 q 246 710 246 884 q 301 567 246 617 q 460 517 356 517 l 580 517 l 580 884 "},"a":{"x_min":92,"x_max":696,"ha":834,"o":"m 606 0 l 580 99 l 575 99 q 468 10 523 35 q 327 -14 413 -14 q 154 44 217 -14 q 92 207 92 102 q 436 442 92 431 l 573 447 l 573 494 q 409 655 573 655 q 187 599 309 655 l 144 692 q 404 758 277 758 q 627 699 558 758 q 696 509 696 640 l 696 0 l 606 0 m 572 362 l 462 357 q 274 315 330 352 q 219 204 219 279 q 354 82 219 82 q 513 138 454 82 q 572 294 572 194 l 572 362 "},"Ę":{"x_min":147,"x_max":719,"ha":834,"o":"m 719 0 l 147 0 l 147 992 l 719 992 l 719 880 l 273 880 l 273 574 l 693 574 l 693 462 l 273 462 l 273 111 l 719 111 l 719 0 m 692 -217 l 692 -293 q 586 -309 642 -309 q 462 -271 505 -309 q 420 -171 420 -234 q 544 0 420 -73 l 636 0 q 517 -162 517 -85 q 606 -227 517 -227 q 692 -217 652 -227 "},"Z":{"x_min":69,"x_max":763,"ha":834,"o":"m 763 0 l 69 0 l 69 97 l 607 880 l 83 880 l 83 992 l 749 992 l 749 895 l 210 111 l 763 111 l 763 0 "}," ":{"x_min":0,"x_max":0,"ha":834},"k":{"x_min":146,"x_max":789,"ha":834,"o":"m 261 375 l 352 478 l 619 745 l 770 745 l 435 422 l 789 0 l 644 0 l 356 341 l 269 286 l 269 0 l 146 0 l 146 1055 l 269 1055 l 269 571 l 258 375 l 261 375 "},"Ù":{"x_min":85,"x_max":749,"ha":834,"o":"m 749 993 l 749 349 q 663 79 749 173 q 412 -14 578 -14 q 85 352 85 -14 l 85 991 l 211 991 l 211 359 q 419 97 211 97 q 622 361 619 97 l 622 993 l 749 993 m 504 1071 l 421 1071 q 237 1278 309 1167 l 237 1293 l 385 1293 q 504 1089 444 1172 l 504 1071 "},"Ů":{"x_min":85,"x_max":749,"ha":834,"o":"m 749 993 l 749 349 q 663 79 749 173 q 412 -14 578 -14 q 85 352 85 -14 l 85 991 l 211 991 l 211 359 q 419 97 211 97 q 622 361 619 97 l 622 993 l 749 993 m 415 1071 q 305 1110 346 1071 q 264 1217 264 1149 q 305 1323 264 1284 q 415 1363 346 1363 q 527 1322 483 1363 q 571 1218 571 1282 q 527 1111 571 1151 q 415 1071 484 1071 m 417 1293 q 360 1273 382 1293 q 338 1217 338 1253 q 417 1140 338 1140 q 474 1160 452 1140 q 496 1217 496 1180 q 474 1273 496 1253 q 417 1293 452 1293 "},"¢":{"x_min":117,"x_max":719.890625,"ha":834,"o":"m 531 894 q 719 854 627 892 l 677 747 q 496 786 576 786 q 244 505 244 786 q 489 229 244 229 q 707 271 593 229 l 707 163 q 531 122 635 124 l 531 -14 l 411 -14 l 411 126 q 117 503 117 172 q 411 889 117 838 l 411 1006 l 531 1006 l 531 894 "},"В":{"x_min":92,"x_max":772,"ha":834,"o":"m 92 992 l 390 992 q 660 932 576 992 q 744 740 744 873 q 690 596 744 653 q 546 526 637 538 l 546 519 q 772 287 772 482 q 685 76 772 153 q 449 0 598 0 l 92 0 l 92 992 m 218 572 l 409 572 q 562 609 514 572 q 610 732 610 646 q 558 848 610 813 q 395 884 507 884 l 218 884 l 218 572 m 218 464 l 218 107 l 426 107 q 638 292 638 107 q 418 464 638 464 l 218 464 "},"І":{"x_min":152.921875,"x_max":678.5625,"ha":834,"o":"m 678 0 l 152 0 l 152 83 l 353 96 l 353 895 l 152 908 l 152 992 l 678 992 l 678 908 l 479 895 l 479 96 l 678 83 l 678 0 "},"ē":{"x_min":90,"x_max":744,"ha":834,"o":"m 744 346 l 217 346 q 451 93 222 93 q 703 145 584 93 l 703 36 q 456 -14 590 -14 q 189 87 289 -14 q 90 366 90 188 q 182 652 90 547 q 428 758 274 758 q 658 666 572 758 q 744 423 744 575 l 744 346 m 220 449 l 616 449 q 428 655 616 655 q 220 449 238 655 m 235 943 l 626 943 l 626 842 l 235 842 l 235 943 "},"β":{"x_min":107,"x_max":749,"ha":834,"o":"m 490 562 l 490 558 q 749 280 749 525 q 665 63 749 141 q 436 -14 582 -14 q 230 28 309 -14 l 230 -334 l 107 -334 l 107 743 q 187 979 107 896 q 409 1063 268 1063 q 623 991 543 1063 q 704 796 704 920 q 649 642 704 704 q 490 562 594 580 m 230 141 q 426 88 322 88 q 625 290 625 88 q 561 445 625 389 q 388 501 496 501 l 325 501 l 325 604 l 372 604 q 522 654 467 604 q 576 791 576 705 q 531 915 576 871 q 408 960 485 960 q 230 736 230 960 l 230 141 "},"≠":{"x_min":103,"x_max":730,"ha":834,"o":"m 271 300 l 103 300 l 103 401 l 318 401 l 401 577 l 103 577 l 103 679 l 448 679 l 539 870 l 632 830 l 560 679 l 730 679 l 730 577 l 513 577 l 430 401 l 730 401 l 730 300 l 382 300 l 294 111 l 202 150 l 271 300 "},"‼":{"x_min":173,"x_max":659.265625,"ha":834,"o":"m 615 280 l 533 280 l 498 992 l 649 992 l 615 280 m 573 168 q 659 74 659 168 q 573 -20 659 -20 q 487 74 487 -20 q 573 168 487 168 m 301 280 l 219 280 l 184 992 l 335 992 l 301 280 m 259 168 q 345 74 345 168 q 259 -20 345 -20 q 173 74 173 -20 q 259 168 173 168 "},"¥":{"x_min":54,"x_max":779,"ha":834,"o":"m 415 490 l 649 992 l 779 992 l 517 471 l 681 471 l 681 378 l 475 378 l 475 270 l 681 270 l 681 178 l 475 178 l 475 0 l 356 0 l 356 178 l 152 178 l 152 270 l 356 270 l 356 378 l 152 378 l 152 471 l 310 471 l 54 992 l 184 992 l 415 490 "},"Ĥ":{"x_min":92,"x_max":742,"ha":834,"o":"m 742 0 l 615 0 l 615 462 l 218 462 l 218 0 l 92 0 l 92 992 l 218 992 l 218 574 l 615 574 l 615 992 l 742 992 l 742 0 m 642 1071 l 559 1071 q 416 1196 502 1108 q 273 1071 326 1104 l 192 1071 l 192 1089 q 232 1134 208 1108 q 351 1293 326 1239 l 482 1293 q 601 1134 507 1239 l 642 1089 l 642 1071 "},"U":{"x_min":85,"x_max":749,"ha":834,"o":"m 749 993 l 749 349 q 663 79 749 173 q 412 -14 578 -14 q 85 352 85 -14 l 85 991 l 211 991 l 211 359 q 419 97 211 97 q 622 361 619 97 l 622 993 l 749 993 "},"Ñ":{"x_min":92,"x_max":741,"ha":834,"o":"m 741 0 l 596 0 l 201 821 l 196 821 q 208 538 208 633 l 208 0 l 92 0 l 92 992 l 236 992 l 629 174 l 633 174 q 624 449 624 380 l 624 992 l 741 992 l 741 0 m 246 1070 l 175 1070 q 318 1250 191 1250 q 427 1211 357 1250 q 519 1173 496 1173 q 591 1251 574 1173 l 663 1251 q 520 1072 644 1072 q 413 1110 481 1072 q 318 1148 345 1148 q 246 1070 263 1148 "},"F":{"x_min":165,"x_max":736,"ha":834,"o":"m 291 0 l 165 0 l 165 992 l 736 992 l 736 880 l 291 880 l 291 531 l 710 531 l 710 419 l 291 419 l 291 0 "},"ϑ":{"x_min":7.125,"x_max":815.203125,"ha":834,"o":"m 594 662 q 565 794 585 736 q 520 892 546 852 q 463 953 494 932 q 399 974 432 974 q 318 943 348 974 q 289 864 289 913 q 305 789 289 825 q 356 725 320 753 q 451 680 392 697 q 594 662 509 662 m 722 573 q 724 538 723 558 q 725 497 725 518 q 703 295 725 388 q 637 133 681 201 q 527 25 594 64 q 372 -14 461 -14 q 247 4 297 -14 q 169 55 198 23 q 128 130 140 87 q 117 219 117 172 q 120 278 117 247 q 127 340 123 310 q 134 396 131 370 q 137 438 137 421 q 127 479 137 468 q 95 491 117 491 q 61 485 79 491 q 32 474 43 480 l 7 559 q 66 579 32 570 q 136 588 100 588 q 193 578 169 588 q 231 551 216 568 q 252 511 245 534 q 258 461 258 488 q 255 408 258 437 q 248 347 251 379 q 241 283 244 316 q 237 219 237 250 q 244 165 237 191 q 268 122 252 140 q 311 93 284 104 q 377 82 338 82 q 545 187 489 82 q 601 501 601 292 q 600 538 601 516 q 598 573 600 559 q 398 599 480 574 q 265 665 316 625 q 191 757 214 705 q 169 864 169 809 q 182 947 169 909 q 222 1012 195 984 q 293 1055 250 1040 q 396 1071 336 1071 q 521 1042 466 1071 q 615 960 576 1013 q 680 832 655 907 q 718 662 706 756 l 815 662 l 815 573 l 722 573 "},"Ќ":{"x_min":143,"x_max":813.25,"ha":834,"o":"m 813 0 l 664 0 l 269 502 l 269 0 l 143 0 l 143 992 l 269 992 l 269 511 l 654 992 l 794 992 l 409 515 l 813 0 m 390 1089 q 508 1293 454 1179 l 657 1293 l 657 1278 q 472 1071 580 1161 l 390 1071 l 390 1089 "},"å":{"x_min":92,"x_max":696,"ha":834,"o":"m 606 0 l 580 99 l 575 99 q 468 10 523 35 q 327 -14 413 -14 q 154 44 217 -14 q 92 207 92 102 q 436 442 92 431 l 573 447 l 573 494 q 409 655 573 655 q 187 599 309 655 l 144 692 q 404 758 277 758 q 627 699 558 758 q 696 509 696 640 l 696 0 l 606 0 m 572 362 l 462 357 q 274 315 330 352 q 219 204 219 279 q 354 82 219 82 q 513 138 454 82 q 572 294 572 194 l 572 362 m 413 842 q 303 881 344 842 q 262 988 262 920 q 303 1094 262 1055 q 413 1134 344 1134 q 525 1093 481 1134 q 569 989 569 1053 q 525 882 569 922 q 413 842 482 842 m 415 1064 q 358 1044 380 1064 q 336 988 336 1024 q 415 911 336 911 q 472 931 450 911 q 494 988 494 951 q 472 1044 494 1024 q 415 1064 450 1064 "},"Ϋ":{"x_min":23,"x_max":809,"ha":834,"o":"m 415 490 l 672 992 l 809 992 l 479 386 l 479 0 l 353 0 l 353 379 l 23 992 l 160 992 l 415 490 m 290 1244 q 355 1174 355 1244 q 290 1105 355 1105 q 225 1174 225 1105 q 290 1244 225 1244 m 544 1244 q 610 1174 610 1244 q 544 1105 610 1105 q 479 1174 479 1105 q 544 1244 479 1244 "},"0":{"x_min":100,"x_max":734,"ha":834,"o":"m 415 -14 q 180 117 260 -14 q 100 496 100 248 q 415 1007 100 1007 q 653 875 573 1007 q 734 496 734 744 q 415 -14 734 -14 m 415 91 q 561 186 514 91 q 608 497 608 281 q 561 806 608 711 q 415 901 514 901 q 271 807 317 901 q 225 497 225 712 q 271 186 225 281 q 415 91 317 91 "},"ō":{"x_min":78,"x_max":755,"ha":834,"o":"m 414 -14 q 172 91 267 -14 q 78 373 78 196 q 170 654 78 551 q 418 758 262 758 q 660 652 566 758 q 755 373 755 547 q 661 89 755 193 q 414 -14 568 -14 m 416 88 q 627 373 627 88 q 415 655 627 655 q 205 373 205 655 q 416 88 205 88 m 221 943 l 612 943 l 612 842 l 221 842 l 221 943 "},"”":{"x_min":158,"x_max":674,"ha":834,"o":"m 375 992 l 385 977 q 265 652 347 832 l 158 652 q 224 992 200 832 l 375 992 m 664 992 l 674 977 q 554 652 636 832 l 447 652 q 513 992 489 832 l 664 992 "},"ö":{"x_min":78,"x_max":755,"ha":834,"o":"m 414 -14 q 172 91 267 -14 q 78 373 78 196 q 170 654 78 551 q 418 758 262 758 q 660 652 566 758 q 755 373 755 547 q 661 89 755 193 q 414 -14 568 -14 m 416 88 q 627 373 627 88 q 415 655 627 655 q 205 373 205 655 q 416 88 205 88 m 285 1015 q 350 945 350 1015 q 285 876 350 876 q 220 945 220 876 q 285 1015 220 1015 m 539 1015 q 605 945 605 1015 q 539 876 605 876 q 474 945 474 876 q 539 1015 474 1015 "},"ć":{"x_min":117,"x_max":720,"ha":834,"o":"m 720 717 l 677 610 q 496 650 576 650 q 244 369 244 650 q 489 93 244 93 q 707 135 595 93 l 707 27 q 483 -14 616 -14 q 213 84 309 -14 q 117 367 117 183 q 215 658 117 558 q 492 758 313 758 q 720 717 612 758 m 392 860 q 510 1064 456 950 l 659 1064 l 659 1049 q 474 842 582 932 l 392 842 l 392 860 "},"þ":{"x_min":107,"x_max":741,"ha":834,"o":"m 230 644 q 449 758 305 758 q 663 656 585 758 q 741 373 741 555 q 662 88 741 190 q 449 -14 584 -14 q 230 93 308 -14 l 222 93 q 230 -16 230 6 l 230 -334 l 107 -334 l 107 1055 l 230 1055 l 230 744 l 225 644 l 230 644 m 230 401 l 230 373 q 277 153 230 219 q 428 88 325 88 q 613 374 613 88 q 427 655 613 655 q 278 595 323 655 q 230 401 233 536 "},"]":{"x_min":196,"x_max":555,"ha":834,"o":"m 196 -118 l 431 -118 l 431 890 l 196 890 l 196 992 l 555 992 l 555 -220 l 196 -220 l 196 -118 "},"А":{"x_min":22,"x_max":812,"ha":834,"o":"m 681 0 l 583 307 l 250 307 l 150 0 l 22 0 l 350 996 l 482 996 l 812 0 l 681 0 m 547 419 l 457 706 q 415 860 431 791 q 384 736 401 793 l 286 419 l 547 419 "},"′":{"x_min":336,"x_max":496.734375,"ha":834,"o":"m 496 992 l 468 634 l 363 634 l 336 992 l 496 992 "},"Ы":{"x_min":65,"x_max":769,"ha":834,"o":"m 65 0 l 65 992 l 191 992 l 191 574 l 221 574 q 573 290 573 574 q 484 74 573 149 q 226 0 395 0 l 65 0 m 191 107 l 240 107 q 456 290 456 107 q 401 421 456 380 q 221 462 347 462 l 191 462 l 191 107 m 652 0 l 652 992 l 769 992 l 769 0 l 652 0 "},"ẁ":{"x_min":-3,"x_max":836,"ha":834,"o":"m 551 0 l 462 404 l 416 628 l 411 628 l 367 401 l 276 0 l 148 0 l -3 745 l 106 745 l 173 376 q 212 109 196 250 l 216 109 q 262 352 237 235 l 352 745 l 483 745 l 569 352 q 614 109 598 220 l 619 109 q 659 376 640 274 l 728 745 l 836 745 l 683 0 l 551 0 m 473 842 l 390 842 q 206 1049 278 938 l 206 1064 l 354 1064 q 473 860 413 943 l 473 842 "},"ĭ":{"x_min":133.6875,"x_max":729.171875,"ha":834,"o":"m 367 648 l 184 662 l 184 745 l 490 745 l 490 96 l 729 83 l 729 0 l 133 0 l 133 83 l 367 96 l 367 648 m 639 1030 q 578 892 632 943 q 432 842 524 842 q 231 1030 242 842 l 305 1030 q 337 960 310 977 q 434 943 364 943 q 564 1030 557 943 l 639 1030 "},"8":{"x_min":106,"x_max":728,"ha":834,"o":"m 517 526 q 728 258 728 417 q 642 60 728 135 q 416 -14 557 -14 q 188 56 270 -14 q 106 253 106 126 q 297 520 106 428 q 138 770 138 619 q 216 943 138 879 q 416 1007 295 1007 q 618 942 541 1007 q 696 768 696 878 q 517 526 696 613 m 417 576 q 576 762 576 645 q 533 866 576 830 q 415 901 490 901 q 300 866 342 901 q 257 762 257 830 q 291 660 257 702 q 417 576 324 618 m 399 473 q 225 253 225 391 q 413 91 225 91 q 557 135 506 91 q 608 258 608 179 q 565 366 608 319 q 420 463 522 413 l 399 473 "},"R":{"x_min":126,"x_max":794.25,"ha":834,"o":"m 252 409 l 252 0 l 126 0 l 126 992 l 368 992 q 721 710 721 992 q 524 443 721 515 l 794 0 l 645 0 l 407 409 l 252 409 m 252 517 l 362 517 q 532 561 478 517 q 587 704 587 606 q 533 842 587 800 q 359 884 479 884 l 252 884 l 252 517 "},"Ż":{"x_min":69,"x_max":763,"ha":834,"o":"m 763 0 l 69 0 l 69 97 l 607 880 l 83 880 l 83 992 l 749 992 l 749 895 l 210 111 l 763 111 l 763 0 m 434 1252 q 499 1174 499 1252 q 434 1097 499 1097 q 369 1174 369 1097 q 434 1252 369 1252 "},"ħ":{"x_min":3.203125,"x_max":725,"ha":834,"o":"m 601 0 l 601 451 q 441 627 601 627 q 282 564 332 627 q 232 357 232 500 l 232 0 l 109 0 l 109 843 l 3 843 l 3 932 l 109 932 l 109 1055 l 233 1055 l 233 932 l 516 932 l 516 843 l 232 843 l 232 715 l 225 616 l 232 616 q 466 730 305 730 q 660 665 596 730 q 725 458 725 600 l 725 0 l 601 0 "},"õ":{"x_min":78,"x_max":755,"ha":834,"o":"m 414 -14 q 172 91 267 -14 q 78 373 78 196 q 170 654 78 551 q 418 758 262 758 q 660 652 566 758 q 755 373 755 547 q 661 89 755 193 q 414 -14 568 -14 m 416 88 q 627 373 627 88 q 415 655 627 655 q 205 373 205 655 q 416 88 205 88 m 244 841 l 173 841 q 316 1021 189 1021 q 425 982 355 1021 q 517 944 494 944 q 589 1022 572 944 l 661 1022 q 518 843 642 843 q 411 881 479 843 q 316 919 343 919 q 244 841 261 919 "},"˙":{"x_min":359.25,"x_max":489.46875,"ha":834,"o":"m 424 1023 q 489 945 489 1023 q 424 868 489 868 q 359 945 359 868 q 424 1023 359 1023 "},"ê":{"x_min":90,"x_max":744,"ha":834,"o":"m 744 346 l 217 346 q 451 93 222 93 q 703 145 584 93 l 703 36 q 456 -14 590 -14 q 189 87 289 -14 q 90 366 90 188 q 182 652 90 547 q 428 758 274 758 q 658 666 572 758 q 744 423 744 575 l 744 346 m 220 449 l 616 449 q 428 655 616 655 q 220 449 238 655 m 653 842 l 570 842 q 427 967 513 879 q 284 842 337 875 l 203 842 l 203 860 q 243 905 219 879 q 362 1064 337 1010 l 493 1064 q 612 905 518 1010 l 653 860 l 653 842 "},"″":{"x_min":193,"x_max":640.734375,"ha":834,"o":"m 353 992 l 325 634 l 220 634 l 193 992 l 353 992 m 640 992 l 612 634 l 507 634 l 480 992 l 640 992 "},"„":{"x_min":166,"x_max":667,"ha":834,"o":"m 367 161 l 378 145 q 258 -179 340 1 l 166 -179 q 217 161 202 18 l 367 161 m 656 161 l 667 145 q 547 -179 632 12 l 455 -179 q 506 161 491 18 l 656 161 "},"ч":{"x_min":103,"x_max":720,"ha":834,"o":"m 226 745 l 226 466 q 365 348 226 348 q 596 426 481 348 l 596 745 l 720 745 l 720 0 l 596 0 l 596 331 q 337 246 473 246 q 166 305 229 246 q 103 458 103 364 l 103 745 l 226 745 "},"δ":{"x_min":92,"x_max":742,"ha":834,"o":"m 378 636 q 206 872 206 734 q 267 1012 206 962 q 437 1063 329 1063 q 704 989 572 1063 l 654 890 q 434 960 541 960 q 355 936 384 960 q 326 868 326 911 q 354 791 326 825 q 499 689 383 756 q 742 337 742 549 q 654 78 742 170 q 413 -14 566 -14 q 180 69 269 -14 q 92 296 92 153 q 378 636 92 549 m 464 579 q 219 294 219 511 q 271 145 219 202 q 412 88 323 88 q 614 325 614 88 q 464 579 614 491 "},"Â":{"x_min":22,"x_max":812,"ha":834,"o":"m 681 0 l 583 307 l 250 307 l 150 0 l 22 0 l 350 996 l 482 996 l 812 0 l 681 0 m 547 419 l 457 706 q 415 860 431 791 q 384 736 401 793 l 286 419 l 547 419 m 642 1071 l 559 1071 q 416 1196 502 1108 q 273 1071 326 1104 l 192 1071 l 192 1089 q 232 1134 208 1108 q 351 1293 326 1239 l 482 1293 q 601 1134 507 1239 l 642 1089 l 642 1071 "},"Į":{"x_min":152.921875,"x_max":678.5625,"ha":834,"o":"m 678 0 l 152 0 l 152 83 l 353 96 l 353 895 l 152 908 l 152 992 l 678 992 l 678 908 l 479 895 l 479 96 l 678 83 l 678 0 m 558 -217 l 558 -293 q 452 -309 508 -309 q 328 -271 371 -309 q 286 -171 286 -234 q 410 0 286 -73 l 502 0 q 383 -162 383 -85 q 472 -227 383 -227 q 558 -217 518 -227 "},"ω":{"x_min":61,"x_max":774,"ha":834,"o":"m 132 745 l 244 745 q 166 360 166 567 q 266 88 166 88 q 341 136 314 88 q 368 270 368 184 l 368 478 l 473 478 l 473 270 q 501 135 473 182 q 572 88 528 88 q 668 360 668 88 q 590 745 668 568 l 702 745 q 774 360 774 569 q 579 -14 774 -14 q 424 106 458 -14 l 417 106 q 258 -14 382 -14 q 61 360 61 -14 q 132 745 61 565 "},"Ţ":{"x_min":69,"x_max":762,"ha":834,"o":"m 479 0 l 353 0 l 353 880 l 69 880 l 69 992 l 762 992 l 762 880 l 479 880 l 479 0 m 304 -288 q 361 -85 346 -193 l 482 -85 l 482 -98 q 449 -182 482 -113 q 371 -307 416 -251 l 304 -307 l 304 -288 "},"´":{"x_min":284,"x_max":551,"ha":834,"o":"m 284 860 q 402 1064 348 950 l 551 1064 l 551 1049 q 366 842 474 932 l 284 842 l 284 860 "},"Ĉ":{"x_min":87,"x_max":801,"ha":834,"o":"m 763 136 l 763 26 q 519 -14 663 -14 q 198 119 309 -14 q 87 497 87 252 q 208 868 87 731 q 540 1006 330 1006 q 801 947 690 1006 l 747 841 q 540 894 643 894 q 307 787 394 894 q 220 496 220 679 q 302 199 220 301 q 540 97 383 97 q 763 136 629 97 m 751 1071 l 668 1071 q 525 1196 611 1108 q 382 1071 435 1104 l 301 1071 l 301 1089 q 341 1134 317 1108 q 460 1293 435 1239 l 591 1293 q 710 1134 616 1239 l 751 1089 l 751 1071 "},"И":{"x_min":93,"x_max":742,"ha":834,"o":"m 93 992 l 209 992 l 209 449 q 204 276 209 352 l 200 174 l 204 174 l 597 992 l 742 992 l 742 0 l 625 0 l 625 538 q 637 821 625 633 l 632 821 l 237 0 l 93 0 l 93 992 "},"Љ":{"x_min":0,"x_max":820,"ha":834,"o":"m 256 880 l 242 508 q 185 52 228 119 q 65 -14 142 -14 q 0 -1 27 -14 l 0 96 q 46 82 21 82 q 88 106 70 82 q 114 193 106 130 q 137 551 123 256 q 153 992 150 846 l 504 992 l 504 574 l 529 574 q 820 290 820 574 q 742 74 820 149 q 518 0 665 0 l 378 0 l 378 880 l 256 880 m 504 107 l 532 107 q 703 290 703 107 q 659 421 703 381 q 516 462 615 462 l 504 462 l 504 107 "},"р":{"x_min":107,"x_max":741,"ha":834,"o":"m 230 93 l 222 93 q 230 -16 230 6 l 230 -334 l 107 -334 l 107 745 l 206 745 l 225 644 l 230 644 q 449 758 305 758 q 663 656 585 758 q 741 373 741 555 q 662 88 741 190 q 449 -14 584 -14 q 230 93 308 -14 m 230 401 l 230 373 q 277 153 230 219 q 428 88 325 88 q 613 374 613 88 q 427 655 613 655 q 278 595 323 655 q 230 401 233 536 "},"Ω":{"x_min":49.859375,"x_max":786.140625,"ha":834,"o":"m 367 99 l 367 0 l 49 0 l 49 111 l 230 111 q 58 559 58 270 q 153 889 58 771 q 417 1007 248 1007 q 682 889 587 1007 q 778 559 778 771 q 604 111 778 268 l 786 111 l 786 0 l 468 0 l 468 99 q 644 556 644 256 q 417 895 644 895 q 191 556 191 895 q 367 99 191 256 "},"т":{"x_min":82,"x_max":749,"ha":834,"o":"m 749 642 l 477 642 l 477 0 l 354 0 l 354 642 l 82 642 l 82 745 l 749 745 l 749 642 "},"П":{"x_min":92,"x_max":742,"ha":834,"o":"m 742 0 l 615 0 l 615 880 l 218 880 l 218 0 l 92 0 l 92 992 l 742 992 l 742 0 "},"Ö":{"x_min":57,"x_max":778,"ha":834,"o":"m 417 -14 q 57 498 57 -14 q 419 1007 57 1007 q 685 874 592 1007 q 778 496 778 741 q 684 118 778 251 q 417 -14 590 -14 m 417 97 q 589 195 535 97 q 644 497 644 293 q 589 799 644 702 q 419 895 533 895 q 190 497 190 895 q 417 97 190 97 m 290 1244 q 355 1174 355 1244 q 290 1105 355 1105 q 225 1174 225 1105 q 290 1244 225 1244 m 544 1244 q 610 1174 610 1244 q 544 1105 610 1105 q 479 1174 479 1105 q 544 1244 479 1244 "},"z":{"x_min":123,"x_max":709,"ha":834,"o":"m 709 0 l 123 0 l 123 88 l 572 648 l 145 648 l 145 745 l 697 745 l 697 641 l 256 96 l 709 96 l 709 0 "},"™":{"x_min":-0.375,"x_max":801,"ha":834,"o":"m 205 503 l 119 503 l 119 918 l 0 918 l 0 992 l 326 992 l 326 918 l 205 918 l 205 503 m 542 503 l 444 875 l 436 875 l 443 753 l 443 503 l 357 503 l 357 992 l 486 992 l 579 629 l 679 992 l 801 992 l 801 503 l 714 503 l 714 734 q 721 875 714 793 l 713 875 l 609 503 l 542 503 "},"Θ":{"x_min":57,"x_max":778,"ha":834,"o":"m 417 -14 q 57 498 57 -14 q 419 1007 57 1007 q 685 874 592 1007 q 778 496 778 741 q 684 118 778 251 q 417 -14 590 -14 m 417 97 q 589 195 535 97 q 644 497 644 293 q 589 799 644 702 q 419 895 533 895 q 190 497 190 895 q 417 97 190 97 m 278 560 l 557 560 l 557 452 l 278 452 l 278 560 "},"Ř":{"x_min":126,"x_max":794.25,"ha":834,"o":"m 252 409 l 252 0 l 126 0 l 126 992 l 368 992 q 721 710 721 992 q 524 443 721 515 l 794 0 l 645 0 l 407 409 l 252 409 m 252 517 l 362 517 q 532 561 478 517 q 587 704 587 606 q 533 842 587 800 q 359 884 479 884 l 252 884 l 252 517 m 622 1274 q 581 1229 605 1255 q 462 1071 486 1122 l 331 1071 q 212 1229 307 1122 l 172 1274 l 172 1293 l 253 1293 q 396 1166 309 1256 q 539 1293 479 1253 l 622 1293 l 622 1274 "},"Ň":{"x_min":92,"x_max":741,"ha":834,"o":"m 741 0 l 596 0 l 201 821 l 196 821 q 208 538 208 633 l 208 0 l 92 0 l 92 992 l 236 992 l 629 174 l 633 174 q 624 449 624 380 l 624 992 l 741 992 l 741 0 m 640 1274 q 599 1229 623 1255 q 480 1071 504 1122 l 349 1071 q 230 1229 325 1122 l 190 1274 l 190 1293 l 271 1293 q 414 1166 327 1256 q 557 1293 497 1253 l 640 1293 l 640 1274 "},"É":{"x_min":147,"x_max":719,"ha":834,"o":"m 719 0 l 147 0 l 147 992 l 719 992 l 719 880 l 273 880 l 273 574 l 693 574 l 693 462 l 273 462 l 273 111 l 719 111 l 719 0 m 326 1089 q 444 1293 390 1179 l 593 1293 l 593 1278 q 408 1071 516 1161 l 326 1071 l 326 1089 "},"и":{"x_min":109,"x_max":725,"ha":834,"o":"m 229 745 l 229 291 l 220 120 l 562 745 l 725 745 l 725 0 l 604 0 l 604 439 l 611 622 l 271 0 l 109 0 l 109 745 l 229 745 "},"³":{"x_min":232,"x_max":574,"ha":834,"o":"m 454 738 q 574 611 574 711 q 523 487 574 531 q 377 444 472 444 q 232 477 289 444 l 232 562 q 370 522 307 522 q 472 614 472 522 q 371 699 472 699 l 322 699 l 322 768 l 369 768 q 454 851 454 768 q 388 924 454 924 q 278 880 339 924 l 233 938 q 394 1002 308 1002 q 512 965 468 1002 q 556 865 556 928 q 454 738 556 771 "},"[":{"x_min":279,"x_max":638,"ha":834,"o":"m 638 -220 l 279 -220 l 279 992 l 638 992 l 638 890 l 402 890 l 402 -118 l 638 -118 l 638 -220 "},"ζ":{"x_min":110,"x_max":724,"ha":834,"o":"m 151 1055 l 720 1055 l 720 960 q 344 631 451 765 q 237 323 237 497 q 293 175 237 219 q 505 105 350 132 q 672 51 621 85 q 724 -58 724 16 q 641 -272 724 -159 l 526 -272 q 603 -95 603 -162 q 568 -35 603 -57 q 403 6 534 -12 q 180 106 250 30 q 110 318 110 181 q 219 642 110 492 q 583 960 328 793 q 344 952 437 952 l 151 952 l 151 1055 "},"∏":{"x_min":106,"x_max":755,"ha":834,"o":"m 628 -334 l 628 880 l 232 880 l 232 -334 l 106 -334 l 106 992 l 755 992 l 755 -334 l 628 -334 "},"Έ":{"x_min":-76,"x_max":719,"ha":834,"o":"m 719 0 l 147 0 l 147 992 l 719 992 l 719 880 l 273 880 l 273 574 l 693 574 l 693 462 l 273 462 l 273 111 l 719 111 l 719 0 m -76 789 l -53 861 q -24 993 -31 938 l 106 993 l 106 978 q 72 897 106 967 q -2 771 39 827 l -76 771 l -76 789 "},"Ρ":{"x_min":119,"x_max":742,"ha":834,"o":"m 245 385 l 245 0 l 119 0 l 119 992 l 393 992 q 742 701 742 992 q 647 468 742 552 q 374 385 553 385 l 245 385 m 245 493 l 359 493 q 550 541 493 493 q 608 694 608 590 q 380 884 608 884 l 245 884 l 245 493 "},"ğ":{"x_min":70,"x_max":763.84375,"ha":834,"o":"m 763 745 l 763 668 l 630 650 q 675 506 675 592 q 602 333 675 397 q 401 269 530 269 q 343 273 364 269 q 275 182 275 234 q 384 125 275 125 l 511 125 q 691 72 629 125 q 754 -77 754 20 q 371 -334 754 -334 q 146 -278 223 -334 q 70 -123 70 -223 q 232 61 70 22 q 167 165 167 93 q 257 293 167 240 q 162 376 197 318 q 128 502 128 434 q 200 691 128 625 q 405 758 272 758 q 507 745 464 758 l 763 745 m 402 353 q 554 508 554 353 q 401 669 554 669 q 248 506 248 669 q 402 353 248 353 m 469 17 l 342 17 q 186 -118 186 17 q 370 -237 186 -237 q 637 -84 637 -237 q 603 -3 637 -24 q 469 17 569 17 m 612 1030 q 551 892 605 943 q 405 842 497 842 q 204 1030 215 842 l 278 1030 q 310 960 283 977 q 407 943 337 943 q 537 1030 530 943 l 612 1030 "},"ª":{"x_min":187,"x_max":616,"ha":834,"o":"m 539 541 l 516 622 q 336 532 446 532 q 187 671 187 532 q 244 784 187 749 q 430 823 301 819 l 514 827 l 514 833 q 412 925 514 925 q 247 889 336 925 l 219 963 q 418 1003 313 1003 q 616 841 616 1003 l 616 541 l 539 541 m 446 757 q 329 738 369 755 q 288 670 288 720 q 358 610 288 610 q 472 646 429 610 q 514 745 514 683 l 514 758 l 446 757 "},"ї":{"x_min":133.6875,"x_max":729.171875,"ha":834,"o":"m 367 648 l 184 662 l 184 745 l 490 745 l 490 96 l 729 83 l 729 0 l 133 0 l 133 83 l 367 96 l 367 648 m 289 1015 q 354 945 354 1015 q 289 876 354 876 q 224 945 224 876 q 289 1015 224 1015 m 543 1015 q 609 945 609 1015 q 543 876 609 876 q 478 945 478 876 q 543 1015 478 1015 "},"T":{"x_min":69,"x_max":762,"ha":834,"o":"m 479 0 l 353 0 l 353 880 l 69 880 l 69 992 l 762 992 l 762 880 l 479 880 l 479 0 "},"š":{"x_min":138,"x_max":696,"ha":834,"o":"m 138 32 l 138 145 q 388 88 268 88 q 575 196 575 88 q 542 264 575 235 q 388 336 508 292 q 190 444 231 395 q 149 560 149 493 q 224 705 149 652 q 433 758 300 758 q 684 707 568 758 l 643 606 q 428 655 520 655 q 269 565 269 655 q 303 499 269 523 q 460 430 337 474 q 649 327 602 378 q 696 203 696 277 q 616 44 696 102 q 392 -14 537 -14 q 138 32 224 -14 m 649 1045 q 608 1000 632 1026 q 489 842 513 893 l 358 842 q 239 1000 334 893 l 199 1045 l 199 1064 l 280 1064 q 423 937 336 1027 q 566 1064 506 1024 l 649 1064 l 649 1045 "},"є":{"x_min":117,"x_max":719.890625,"ha":834,"o":"m 719 717 l 677 610 q 500 650 576 650 q 245 434 266 650 l 609 434 l 609 326 l 244 326 q 494 93 258 93 q 707 135 597 93 l 707 27 q 490 -14 616 -14 q 213 85 310 -14 q 117 367 117 184 q 215 658 117 559 q 496 758 314 758 q 719 717 616 758 "},"Þ":{"x_min":119,"x_max":742,"ha":834,"o":"m 245 215 l 245 0 l 119 0 l 119 992 l 245 992 l 245 821 l 393 821 q 742 530 742 821 q 647 298 742 381 q 374 215 553 215 l 245 215 m 245 322 l 359 322 q 550 371 493 322 q 608 524 608 420 q 380 713 608 713 l 245 713 l 245 322 "},"j":{"x_min":92,"x_max":580,"ha":834,"o":"m 504 1051 q 577 973 577 1051 q 504 896 577 896 q 432 973 432 896 q 504 1051 432 1051 m 92 -310 l 92 -205 q 288 -231 182 -231 q 412 -192 367 -231 q 456 -85 456 -154 l 456 648 l 171 662 l 171 745 l 580 745 l 580 -79 q 503 -267 580 -201 q 286 -334 426 -334 q 92 -310 175 -334 "},"Σ":{"x_min":89,"x_max":744,"ha":834,"o":"m 89 0 l 89 103 l 370 519 l 97 892 l 97 992 l 703 992 l 703 880 l 241 880 l 505 520 l 228 111 l 744 111 l 744 0 l 89 0 "},"1":{"x_min":153,"x_max":514.375,"ha":834,"o":"m 514 0 l 395 0 l 395 619 q 400 864 395 702 q 318 788 373 835 l 218 706 l 153 789 l 412 992 l 514 992 l 514 0 "},"ϒ":{"x_min":21,"x_max":818.3125,"ha":834,"o":"m 414 496 q 456 603 431 546 q 508 715 482 660 q 559 815 535 769 q 600 892 584 862 q 631 940 615 919 q 665 974 646 960 q 705 994 683 987 q 754 1000 726 1000 q 792 997 777 1000 q 818 989 806 994 l 818 890 q 798 894 810 892 q 779 896 787 896 q 739 880 760 896 q 694 823 718 864 q 670 781 686 809 q 635 715 654 753 q 593 634 615 678 q 549 544 570 591 q 509 453 528 498 q 477 367 490 407 l 477 0 l 351 0 l 351 379 l 21 992 l 158 992 l 414 496 "},"ℓ":{"x_min":154,"x_max":678,"ha":834,"o":"m 584 225 l 678 225 q 483 -14 665 -14 q 337 49 389 -14 q 285 232 285 112 l 285 393 q 154 354 226 372 l 154 429 q 285 469 202 442 l 285 803 q 331 952 285 898 q 468 1006 377 1006 q 585 950 542 1006 q 628 804 628 895 q 404 443 628 567 l 404 235 q 491 82 404 82 q 584 225 578 82 m 404 524 q 534 798 534 605 q 469 925 534 925 q 420 897 436 925 q 404 798 404 870 l 404 524 "},"ĉ":{"x_min":117,"x_max":720,"ha":834,"o":"m 720 717 l 677 610 q 496 650 576 650 q 244 369 244 650 q 489 93 244 93 q 707 135 595 93 l 707 27 q 483 -14 616 -14 q 213 84 309 -14 q 117 367 117 183 q 215 658 117 558 q 492 758 313 758 q 720 717 612 758 m 699 842 l 616 842 q 473 967 559 879 q 330 842 383 875 l 249 842 l 249 860 q 289 905 265 879 q 408 1064 383 1010 l 539 1064 q 658 905 564 1010 l 699 860 l 699 842 "},"ī":{"x_min":133.6875,"x_max":729.171875,"ha":834,"o":"m 367 648 l 184 662 l 184 745 l 490 745 l 490 96 l 729 83 l 729 0 l 133 0 l 133 83 l 367 96 l 367 648 m 221 943 l 612 943 l 612 842 l 221 842 l 221 943 "},"О":{"x_min":57,"x_max":778,"ha":834,"o":"m 417 -14 q 57 498 57 -14 q 419 1007 57 1007 q 685 874 592 1007 q 778 496 778 741 q 684 118 778 251 q 417 -14 590 -14 m 417 97 q 589 195 535 97 q 644 497 644 293 q 589 799 644 702 q 419 895 533 895 q 190 497 190 895 q 417 97 190 97 "},"ξ":{"x_min":117,"x_max":724,"ha":834,"o":"m 668 601 l 668 512 l 531 512 q 318 456 391 512 q 244 298 244 400 q 270 200 244 236 q 343 145 296 164 q 511 104 390 126 q 672 50 621 84 q 724 -58 724 16 q 638 -272 724 -159 l 521 -272 q 603 -94 603 -162 q 570 -36 603 -58 q 410 5 536 -14 q 117 286 117 51 q 168 449 117 377 q 308 550 219 521 l 308 558 q 163 747 163 598 q 213 875 163 824 q 390 960 264 926 q 200 952 270 952 l 158 952 l 158 1055 l 677 1055 l 677 952 l 630 952 q 383 898 483 952 q 283 748 283 843 q 345 636 283 671 q 539 601 407 601 l 668 601 "},"Ď":{"x_min":92,"x_max":778,"ha":834,"o":"m 92 0 l 92 992 l 323 992 q 658 863 538 992 q 778 505 778 735 q 653 130 778 260 q 296 0 529 0 l 92 0 m 218 884 l 218 107 l 283 107 q 644 501 644 107 q 309 884 644 884 l 218 884 m 637 1274 q 596 1229 620 1255 q 477 1071 501 1122 l 346 1071 q 227 1229 322 1122 l 187 1274 l 187 1293 l 268 1293 q 411 1166 324 1256 q 554 1293 494 1253 l 637 1293 l 637 1274 "},"&":{"x_min":41,"x_max":833,"ha":834,"o":"m 410 525 l 600 290 q 671 470 648 371 l 795 470 q 674 197 759 311 l 833 0 l 685 0 l 596 112 q 316 -14 478 -14 q 114 58 188 -14 q 41 258 41 131 q 84 413 41 347 q 243 548 127 479 q 133 790 133 678 q 197 948 133 890 q 384 1007 262 1007 q 562 948 499 1007 q 625 789 625 890 q 410 525 625 652 m 346 607 q 468 701 435 661 q 501 792 501 741 q 468 873 501 842 q 381 904 435 904 q 289 874 322 904 q 256 789 256 844 q 346 607 256 709 m 528 194 l 308 466 q 168 261 168 382 q 214 141 168 189 q 323 93 260 93 q 528 194 433 93 "},"G":{"x_min":79,"x_max":742,"ha":834,"o":"m 455 524 l 742 524 l 742 36 q 456 -14 609 -14 q 179 121 279 -14 q 79 497 79 256 q 188 870 79 735 q 491 1006 298 1006 q 726 947 621 1006 l 677 837 q 487 894 578 894 q 285 789 357 894 q 212 496 212 683 q 479 97 212 97 q 615 116 544 97 l 615 412 l 455 412 l 455 524 "},"ΰ":{"x_min":109,"x_max":735,"ha":834,"o":"m 109 745 l 232 745 l 232 345 q 418 88 232 88 q 565 167 520 88 q 611 412 611 245 q 568 745 611 573 l 691 745 q 735 406 735 578 q 657 88 735 191 q 414 -14 579 -14 q 109 337 109 -14 l 109 745 m 359 959 q 412 1164 388 1054 l 561 1164 l 561 1150 q 414 942 497 1039 l 359 942 l 359 959 m 265 1015 q 331 945 331 1015 q 312 894 331 912 q 265 876 293 876 q 201 945 201 876 q 265 1015 201 1015 m 562 1015 q 628 945 628 1015 q 562 876 628 876 q 497 945 497 876 q 562 1015 497 1015 "},"`":{"x_min":284,"x_max":551,"ha":834,"o":"m 551 842 l 468 842 q 284 1049 356 938 l 284 1064 l 432 1064 q 551 860 491 943 l 551 842 "},"ŏ":{"x_min":78,"x_max":755,"ha":834,"o":"m 414 -14 q 172 91 267 -14 q 78 373 78 196 q 170 654 78 551 q 418 758 262 758 q 660 652 566 758 q 755 373 755 547 q 661 89 755 193 q 414 -14 568 -14 m 416 88 q 627 373 627 88 q 415 655 627 655 q 205 373 205 655 q 416 88 205 88 m 621 1030 q 560 892 614 943 q 414 842 506 842 q 213 1030 224 842 l 287 1030 q 319 960 292 977 q 416 943 346 943 q 546 1030 539 943 l 621 1030 "},"ý":{"x_min":56,"x_max":777,"ha":834,"o":"m 56 745 l 183 745 l 361 301 q 421 104 416 162 l 425 104 q 486 302 441 180 l 648 745 l 777 745 l 454 -97 q 348 -274 409 -215 q 181 -334 288 -334 q 68 -322 123 -334 l 68 -224 q 160 -231 110 -231 q 261 -203 225 -231 q 326 -108 298 -176 l 365 -7 l 56 745 m 335 860 q 453 1064 399 950 l 602 1064 l 602 1049 q 417 842 525 932 l 335 842 l 335 860 "},"º":{"x_min":191,"x_max":643,"ha":834,"o":"m 415 532 q 254 595 317 532 q 191 768 191 658 q 251 940 191 878 q 418 1003 312 1003 q 579 940 516 1003 q 643 768 643 877 q 580 594 643 656 q 415 532 518 532 m 417 613 q 541 769 541 613 q 417 921 541 921 q 292 769 292 921 q 417 613 292 613 "},"∞":{"x_min":47,"x_max":785,"ha":834,"o":"m 411 421 q 228 277 332 277 q 97 335 147 277 q 47 490 47 394 q 97 642 47 581 q 228 704 147 704 q 413 555 340 704 q 604 699 492 699 q 735 641 685 699 q 785 486 785 583 q 733 334 785 397 q 604 272 681 272 q 411 421 488 272 m 365 490 q 238 611 310 611 q 168 576 195 611 q 141 489 141 540 q 168 403 141 436 q 239 369 195 369 q 365 490 308 369 m 461 486 q 592 365 519 365 q 663 400 636 365 q 690 487 690 436 q 661 573 690 539 q 590 607 633 607 q 461 486 520 607 "},"ź":{"x_min":123,"x_max":709,"ha":834,"o":"m 709 0 l 123 0 l 123 88 l 572 648 l 145 648 l 145 745 l 697 745 l 697 641 l 256 96 l 709 96 l 709 0 m 336 860 q 454 1064 400 950 l 603 1064 l 603 1049 q 418 842 526 932 l 336 842 l 336 860 "},"я":{"x_min":77.75,"x_max":702,"ha":834,"o":"m 212 0 l 77 0 l 275 315 q 117 527 117 360 q 186 686 117 628 q 372 745 255 745 l 702 745 l 702 0 l 578 0 l 578 295 l 385 295 l 212 0 m 578 398 l 578 642 l 381 642 q 240 525 240 642 q 399 398 240 398 l 578 398 "},"Ё":{"x_min":147,"x_max":719,"ha":834,"o":"m 719 0 l 147 0 l 147 992 l 719 992 l 719 880 l 273 880 l 273 574 l 693 574 l 693 462 l 273 462 l 273 111 l 719 111 l 719 0 m 306 1244 q 371 1174 371 1244 q 306 1105 371 1105 q 241 1174 241 1105 q 306 1244 241 1244 m 560 1244 q 626 1174 626 1244 q 560 1105 626 1105 q 495 1174 495 1105 q 560 1244 495 1244 "},"ń":{"x_min":109,"x_max":725,"ha":834,"o":"m 601 0 l 601 479 q 440 655 601 655 q 232 385 232 655 l 232 0 l 109 0 l 109 745 l 208 745 l 227 644 l 233 644 q 461 758 303 758 q 725 486 725 758 l 725 0 l 601 0 m 359 860 q 477 1064 423 950 l 626 1064 l 626 1049 q 441 842 549 932 l 359 842 l 359 860 "}," ":{"x_min":0,"x_max":0,"ha":834},"Г":{"x_min":158,"x_max":719,"ha":834,"o":"m 719 992 l 719 880 l 284 880 l 284 0 l 158 0 l 158 992 l 719 992 "},"Ь":{"x_min":119,"x_max":742,"ha":834,"o":"m 119 0 l 119 992 l 245 992 l 245 574 l 374 574 q 742 290 742 574 q 652 74 742 149 q 393 0 563 0 l 119 0 m 245 107 l 380 107 q 608 290 608 107 q 550 421 608 380 q 359 462 493 462 l 245 462 l 245 107 "},"¤":{"x_min":118.59375,"x_max":716.0625,"ha":834,"o":"m 206 634 l 118 721 l 185 788 l 271 700 q 416 747 339 747 q 561 700 494 747 l 648 788 l 716 723 l 628 635 q 674 489 674 567 q 628 343 674 408 l 714 257 l 648 192 l 561 278 q 416 234 494 234 q 271 280 336 234 l 185 193 l 119 259 l 206 345 q 162 489 162 409 q 206 634 162 567 m 416 326 q 531 374 483 326 q 579 489 579 421 q 531 605 579 557 q 416 654 483 654 q 303 606 350 654 q 256 489 256 558 q 303 374 256 421 q 416 326 350 326 "},"Ĝ":{"x_min":79,"x_max":742,"ha":834,"o":"m 455 524 l 742 524 l 742 36 q 456 -14 609 -14 q 179 121 279 -14 q 79 497 79 256 q 188 870 79 735 q 491 1006 298 1006 q 726 947 621 1006 l 677 837 q 487 894 578 894 q 285 789 357 894 q 212 496 212 683 q 479 97 212 97 q 615 116 544 97 l 615 412 l 455 412 l 455 524 m 696 1071 l 613 1071 q 470 1196 556 1108 q 327 1071 380 1104 l 246 1071 l 246 1089 q 286 1134 262 1108 q 405 1293 380 1239 l 536 1293 q 655 1134 561 1239 l 696 1089 l 696 1071 "},"p":{"x_min":107,"x_max":741,"ha":834,"o":"m 230 93 l 222 93 q 230 -16 230 6 l 230 -334 l 107 -334 l 107 745 l 206 745 l 225 644 l 230 644 q 449 758 305 758 q 663 656 585 758 q 741 373 741 555 q 662 88 741 190 q 449 -14 584 -14 q 230 93 308 -14 m 230 401 l 230 373 q 277 153 230 219 q 428 88 325 88 q 613 374 613 88 q 427 655 613 655 q 278 595 323 655 q 230 401 233 536 "},"Ю":{"x_min":66,"x_max":787,"ha":834,"o":"m 273 462 l 192 462 l 192 0 l 66 0 l 66 992 l 192 992 l 192 574 l 276 574 q 348 908 288 810 q 532 1007 407 1007 q 724 887 662 1007 q 787 496 787 767 q 724 106 787 227 q 530 -14 661 -14 q 340 92 401 -14 q 273 462 279 199 m 530 97 q 637 176 604 97 q 670 497 670 255 q 636 818 670 741 q 530 895 603 895 q 422 815 455 895 q 389 497 389 735 q 422 179 389 261 q 530 97 454 97 "},"ο":{"x_min":78,"x_max":755,"ha":834,"o":"m 414 -14 q 172 91 267 -14 q 78 373 78 196 q 170 654 78 551 q 418 758 262 758 q 660 652 566 758 q 755 373 755 547 q 661 89 755 193 q 414 -14 568 -14 m 416 88 q 627 373 627 88 q 415 655 627 655 q 205 373 205 655 q 416 88 205 88 "},"S":{"x_min":96,"x_max":738,"ha":834,"o":"m 96 32 l 96 152 q 375 93 238 93 q 611 258 611 93 q 564 366 611 328 q 371 456 516 404 q 170 575 231 506 q 109 754 109 644 q 196 939 109 872 q 435 1006 283 1006 q 718 953 591 1006 l 674 841 q 432 894 544 894 q 235 752 235 894 q 279 641 235 683 q 461 551 323 599 q 682 428 626 491 q 738 264 738 364 q 644 60 738 134 q 376 -14 550 -14 q 96 32 197 -14 "},"/":{"x_min":143,"x_max":690,"ha":834,"o":"m 690 992 l 263 0 l 143 0 l 569 992 l 690 992 "},"Ŧ":{"x_min":69,"x_max":762,"ha":834,"o":"m 353 556 l 353 880 l 69 880 l 69 992 l 762 992 l 762 880 l 479 880 l 479 556 l 679 556 l 679 448 l 479 448 l 479 0 l 353 0 l 353 448 l 151 448 l 151 556 l 353 556 "},"ђ":{"x_min":3.203125,"x_max":725,"ha":834,"o":"m 438 -317 l 438 -216 q 515 -231 474 -231 q 601 -115 601 -231 l 601 451 q 441 627 601 627 q 282 564 332 627 q 232 357 232 500 l 232 0 l 109 0 l 109 843 l 3 843 l 3 932 l 109 932 l 109 1055 l 232 1055 l 232 932 l 489 932 l 489 843 l 232 843 l 232 715 l 227 616 l 233 616 q 460 730 305 730 q 725 458 725 730 l 725 -107 q 528 -334 725 -334 q 438 -317 473 -334 "},"y":{"x_min":56,"x_max":777,"ha":834,"o":"m 56 745 l 183 745 l 361 301 q 421 104 416 162 l 425 104 q 486 302 441 180 l 648 745 l 777 745 l 454 -97 q 348 -274 409 -215 q 181 -334 288 -334 q 68 -322 123 -334 l 68 -224 q 160 -231 110 -231 q 261 -203 225 -231 q 326 -108 298 -176 l 365 -7 l 56 745 "},"Π":{"x_min":92,"x_max":742,"ha":834,"o":"m 742 0 l 615 0 l 615 880 l 218 880 l 218 0 l 92 0 l 92 992 l 742 992 l 742 0 "},"‗":{"x_min":-14,"x_max":848,"ha":834,"o":"m 848 -125 l -14 -125 l -14 -31 l 848 -31 l 848 -125 m 848 -314 l -14 -314 l -14 -219 l 848 -219 l 848 -314 "},"–":{"x_min":125,"x_max":709,"ha":834,"o":"m 125 315 l 125 429 l 709 429 l 709 315 l 125 315 "},"ë":{"x_min":90,"x_max":744,"ha":834,"o":"m 744 346 l 217 346 q 451 93 222 93 q 703 145 584 93 l 703 36 q 456 -14 590 -14 q 189 87 289 -14 q 90 366 90 188 q 182 652 90 547 q 428 758 274 758 q 658 666 572 758 q 744 423 744 575 l 744 346 m 220 449 l 616 449 q 428 655 616 655 q 220 449 238 655 m 301 1015 q 366 945 366 1015 q 301 876 366 876 q 236 945 236 876 q 301 1015 236 1015 m 555 1015 q 621 945 621 1015 q 555 876 621 876 q 490 945 490 876 q 555 1015 490 1015 "},"б":{"x_min":97,"x_max":735,"ha":834,"o":"m 705 1065 l 728 956 q 388 889 458 911 q 275 793 318 867 q 227 578 232 720 l 235 578 q 463 693 314 693 q 662 603 590 693 q 735 359 735 514 q 650 84 735 182 q 415 -14 565 -14 q 181 108 266 -14 q 97 446 97 230 q 118 687 97 590 q 174 845 139 785 q 256 940 209 904 q 371 996 303 976 q 705 1065 440 1015 m 224 444 q 425 88 224 88 q 607 343 607 88 q 443 590 607 590 q 317 547 377 590 q 224 444 256 504 "},"ƒ":{"x_min":146,"x_max":689,"ha":834,"o":"m 454 564 l 454 -85 q 402 -274 454 -214 q 228 -334 350 -334 q 146 -323 193 -334 l 146 -220 q 223 -228 185 -228 q 307 -194 286 -228 q 329 -84 329 -160 l 329 564 l 197 564 l 197 617 l 329 665 l 329 757 q 381 946 329 886 q 554 1006 433 1006 q 689 980 620 1006 l 657 885 q 559 900 603 900 q 475 866 497 900 q 454 757 454 832 l 454 661 l 620 661 l 620 564 l 454 564 "},"у":{"x_min":56,"x_max":777,"ha":834,"o":"m 56 745 l 183 745 l 361 301 q 421 104 416 162 l 425 104 q 486 302 441 180 l 648 745 l 777 745 l 454 -97 q 348 -274 409 -215 q 181 -334 288 -334 q 68 -322 123 -334 l 68 -224 q 160 -231 110 -231 q 261 -203 225 -231 q 326 -108 298 -176 l 365 -7 l 56 745 "},"J":{"x_min":93,"x_max":664,"ha":834,"o":"m 93 26 l 93 138 q 302 97 202 97 q 474 151 411 97 q 537 304 537 205 l 537 992 l 664 992 l 664 305 q 568 72 664 159 q 312 -14 473 -14 q 93 26 165 -14 "},"ŷ":{"x_min":56,"x_max":777,"ha":834,"o":"m 56 745 l 183 745 l 361 301 q 421 104 416 162 l 425 104 q 486 302 441 180 l 648 745 l 777 745 l 454 -97 q 348 -274 409 -215 q 181 -334 288 -334 q 68 -322 123 -334 l 68 -224 q 160 -231 110 -231 q 261 -203 225 -231 q 326 -108 298 -176 l 365 -7 l 56 745 m 644 842 l 561 842 q 418 967 504 879 q 275 842 328 875 l 194 842 l 194 860 q 234 905 210 879 q 353 1064 328 1010 l 484 1064 q 603 905 509 1010 l 644 860 l 644 842 "},"ŕ":{"x_min":179,"x_max":719,"ha":834,"o":"m 719 727 l 685 614 q 533 650 602 650 q 362 586 422 650 q 302 404 302 523 l 302 0 l 179 0 l 179 745 l 279 745 l 294 608 l 299 608 q 410 723 351 688 q 555 758 469 758 q 719 727 636 758 m 346 860 q 464 1064 410 950 l 613 1064 l 613 1049 q 428 842 536 932 l 346 842 l 346 860 "},"ώ":{"x_min":61,"x_max":774,"ha":834,"o":"m 132 745 l 244 745 q 166 360 166 567 q 266 88 166 88 q 341 136 314 88 q 368 270 368 184 l 368 478 l 473 478 l 473 270 q 501 135 473 182 q 572 88 528 88 q 668 360 668 88 q 590 745 668 568 l 702 745 q 774 360 774 569 q 579 -14 774 -14 q 424 106 458 -14 l 417 106 q 258 -14 382 -14 q 61 360 61 -14 q 132 745 61 565 m 360 860 l 382 932 q 411 1064 404 1009 l 542 1064 l 542 1049 q 508 968 542 1038 q 433 842 475 898 l 360 842 l 360 860 "},"˘":{"x_min":213,"x_max":621,"ha":834,"o":"m 621 1030 q 560 892 614 943 q 414 842 506 842 q 213 1030 224 842 l 287 1030 q 319 960 292 977 q 416 943 346 943 q 546 1030 539 943 l 621 1030 "},"D":{"x_min":92,"x_max":778,"ha":834,"o":"m 92 0 l 92 992 l 323 992 q 658 863 538 992 q 778 505 778 735 q 653 130 778 260 q 296 0 529 0 l 92 0 m 218 884 l 218 107 l 283 107 q 644 501 644 107 q 309 884 644 884 l 218 884 "},"ł":{"x_min":127.6875,"x_max":723.171875,"ha":834,"o":"m 361 401 l 265 339 l 212 421 l 361 518 l 361 958 l 179 972 l 179 1055 l 484 1055 l 484 599 l 595 672 l 648 589 l 484 482 l 484 96 l 723 83 l 723 0 l 127 0 l 127 83 l 361 96 l 361 401 "},"ĺ":{"x_min":127.6875,"x_max":723.171875,"ha":834,"o":"m 361 958 l 179 972 l 179 1055 l 484 1055 l 484 96 l 723 83 l 723 0 l 127 0 l 127 83 l 361 96 l 361 958 m 336 1128 q 454 1332 400 1218 l 603 1332 l 603 1317 q 418 1110 526 1200 l 336 1110 l 336 1128 "},"ц":{"x_min":103,"x_max":801,"ha":834,"o":"m 801 -258 l 677 -258 l 677 0 l 103 0 l 103 745 l 226 745 l 226 102 l 568 102 l 568 745 l 692 745 l 692 102 l 801 102 l 801 -258 "},"Л":{"x_min":3,"x_max":742,"ha":834,"o":"m 742 0 l 615 0 l 615 880 l 435 880 q 288 100 351 217 q 100 -16 225 -16 q 3 0 50 -16 l 3 102 q 79 91 41 91 q 186 213 148 91 q 309 992 223 335 l 742 992 l 742 0 "},"$":{"x_min":123,"x_max":709,"ha":834,"o":"m 464 75 l 464 -81 l 371 -81 l 371 69 q 123 116 216 69 l 123 233 q 371 174 256 174 l 371 465 q 187 563 240 508 q 135 712 135 619 q 197 860 135 801 q 371 932 259 918 l 371 1054 l 464 1054 l 464 934 q 692 881 591 928 l 647 783 q 464 829 552 823 l 464 545 q 654 445 599 499 q 709 302 709 390 q 464 75 709 112 m 371 579 l 371 826 q 254 711 254 807 q 281 629 254 658 q 371 579 309 600 m 464 430 l 464 180 q 589 302 589 199 q 464 430 589 388 "},"w":{"x_min":-3,"x_max":836,"ha":834,"o":"m 551 0 l 462 404 l 416 628 l 411 628 l 367 401 l 276 0 l 148 0 l -3 745 l 106 745 l 173 376 q 212 109 196 250 l 216 109 q 262 352 237 235 l 352 745 l 483 745 l 569 352 q 614 109 598 220 l 619 109 q 659 376 640 274 l 728 745 l 836 745 l 683 0 l 551 0 "},"о":{"x_min":78,"x_max":755,"ha":834,"o":"m 414 -14 q 172 91 267 -14 q 78 373 78 196 q 170 654 78 551 q 418 758 262 758 q 660 652 566 758 q 755 373 755 547 q 661 89 755 193 q 414 -14 568 -14 m 416 88 q 627 373 627 88 q 415 655 627 655 q 205 373 205 655 q 416 88 205 88 "},"Д":{"x_min":4,"x_max":828,"ha":834,"o":"m 828 -261 l 711 -261 l 711 0 l 120 0 l 120 -261 l 4 -261 l 4 111 l 81 111 q 227 514 168 271 q 294 992 285 758 l 696 992 l 696 111 l 828 111 l 828 -261 m 569 111 l 569 880 l 420 880 q 349 474 407 699 q 214 111 291 249 l 569 111 "},"Ç":{"x_min":87,"x_max":801,"ha":834,"o":"m 763 136 l 763 26 q 519 -14 663 -14 q 198 119 309 -14 q 87 497 87 252 q 208 868 87 731 q 540 1006 330 1006 q 801 947 690 1006 l 747 841 q 540 894 643 894 q 307 787 394 894 q 220 496 220 679 q 302 199 220 301 q 540 97 383 97 q 763 136 629 97 m 345 -327 l 345 -254 q 398 -258 367 -258 q 500 -196 500 -258 q 384 -119 500 -146 l 446 0 l 526 0 l 488 -78 q 598 -194 598 -103 q 400 -334 598 -334 q 345 -327 377 -334 "},"Ŝ":{"x_min":96,"x_max":738,"ha":834,"o":"m 96 32 l 96 152 q 375 93 238 93 q 611 258 611 93 q 564 366 611 328 q 371 456 516 404 q 170 575 231 506 q 109 754 109 644 q 196 939 109 872 q 435 1006 283 1006 q 718 953 591 1006 l 674 841 q 432 894 544 894 q 235 752 235 894 q 279 641 235 683 q 461 551 323 599 q 682 428 626 491 q 738 264 738 364 q 644 60 738 134 q 376 -14 550 -14 q 96 32 197 -14 m 656 1071 l 573 1071 q 430 1196 516 1108 q 287 1071 340 1104 l 206 1071 l 206 1089 q 246 1134 222 1108 q 365 1293 340 1239 l 496 1293 q 615 1134 521 1239 l 656 1089 l 656 1071 "},"C":{"x_min":87,"x_max":801,"ha":834,"o":"m 763 136 l 763 26 q 519 -14 663 -14 q 198 119 309 -14 q 87 497 87 252 q 208 868 87 731 q 540 1006 330 1006 q 801 947 690 1006 l 747 841 q 540 894 643 894 q 307 787 394 894 q 220 496 220 679 q 302 199 220 301 q 540 97 383 97 q 763 136 629 97 "},"Ḁ":{"x_min":22,"x_max":812,"ha":834,"o":"m 681 0 l 583 307 l 250 307 l 150 0 l 22 0 l 350 996 l 482 996 l 812 0 l 681 0 m 547 419 l 457 706 q 415 860 431 791 q 384 736 401 793 l 286 419 l 547 419 m 571 -229 q 559 -291 571 -264 q 526 -338 547 -319 q 476 -367 505 -357 q 415 -377 448 -377 q 353 -367 381 -377 q 305 -338 325 -357 q 274 -292 285 -319 q 264 -231 264 -265 q 274 -169 264 -196 q 305 -123 285 -142 q 353 -94 325 -104 q 415 -85 381 -85 q 476 -94 447 -85 q 525 -123 504 -104 q 558 -168 546 -142 q 571 -229 571 -195 m 496 -231 q 474 -174 496 -194 q 417 -154 452 -154 q 360 -174 382 -154 q 338 -231 338 -194 q 358 -287 338 -267 q 417 -307 378 -307 q 474 -287 452 -307 q 496 -231 496 -267 "},"Ĵ":{"x_min":93,"x_max":825,"ha":834,"o":"m 93 26 l 93 138 q 302 97 202 97 q 474 151 411 97 q 537 304 537 205 l 537 992 l 664 992 l 664 305 q 568 72 664 159 q 312 -14 473 -14 q 93 26 165 -14 m 825 1071 l 742 1071 q 599 1196 685 1108 q 456 1071 509 1104 l 375 1071 l 375 1089 q 415 1134 391 1108 q 534 1293 509 1239 l 665 1293 q 784 1134 690 1239 l 825 1089 l 825 1071 "},"È":{"x_min":147,"x_max":719,"ha":834,"o":"m 719 0 l 147 0 l 147 992 l 719 992 l 719 880 l 273 880 l 273 574 l 693 574 l 693 462 l 273 462 l 273 111 l 719 111 l 719 0 m 502 1071 l 419 1071 q 235 1278 307 1167 l 235 1293 l 383 1293 q 502 1089 442 1172 l 502 1071 "},"ﬁ":{"x_min":33,"x_max":723.84375,"ha":834,"o":"m 456 656 l 288 656 l 288 0 l 165 0 l 165 656 l 33 656 l 33 704 l 165 749 l 165 814 q 216 1002 165 942 q 389 1063 268 1063 q 523 1037 455 1063 l 491 942 q 394 960 438 960 q 310 926 331 960 q 288 815 288 892 l 288 745 l 456 745 l 456 656 m 652 1024 q 723 946 723 1024 q 702 888 723 907 q 652 869 681 869 q 580 946 580 869 q 652 1024 580 1024 m 713 0 l 589 0 l 589 745 l 713 745 l 713 0 "},"X":{"x_min":36,"x_max":797,"ha":834,"o":"m 797 0 l 653 0 l 412 430 l 164 0 l 36 0 l 343 518 l 57 992 l 191 992 l 416 612 l 643 992 l 773 992 l 486 522 l 797 0 "},"ô":{"x_min":78,"x_max":755,"ha":834,"o":"m 414 -14 q 172 91 267 -14 q 78 373 78 196 q 170 654 78 551 q 418 758 262 758 q 660 652 566 758 q 755 373 755 547 q 661 89 755 193 q 414 -14 568 -14 m 416 88 q 627 373 627 88 q 415 655 627 655 q 205 373 205 655 q 416 88 205 88 m 639 842 l 556 842 q 413 967 499 879 q 270 842 323 875 l 189 842 l 189 860 q 229 905 205 879 q 348 1064 323 1010 l 479 1064 q 598 905 504 1010 l 639 860 l 639 842 "},"Ė":{"x_min":147,"x_max":719,"ha":834,"o":"m 719 0 l 147 0 l 147 992 l 719 992 l 719 880 l 273 880 l 273 574 l 693 574 l 693 462 l 273 462 l 273 111 l 719 111 l 719 0 m 447 1233 q 512 1155 512 1233 q 447 1078 512 1078 q 382 1155 382 1078 q 447 1233 382 1233 "},"г":{"x_min":197,"x_max":704,"ha":834,"o":"m 704 642 l 320 642 l 320 0 l 197 0 l 197 745 l 704 745 l 704 642 "},"Ŀ":{"x_min":158,"x_max":716,"ha":834,"o":"m 158 0 l 158 992 l 284 992 l 284 111 l 716 111 l 716 0 l 158 0 m 587 603 q 652 525 652 603 q 587 448 652 448 q 522 525 522 448 q 587 603 522 603 "},"х":{"x_min":65,"x_max":767,"ha":834,"o":"m 346 382 l 79 745 l 219 745 l 416 466 l 614 745 l 754 745 l 486 382 l 767 0 l 627 0 l 416 295 l 205 0 l 65 0 l 346 382 "},"ŋ":{"x_min":109,"x_max":725,"ha":834,"o":"m 232 0 l 109 0 l 109 745 l 208 745 l 227 644 l 233 644 q 461 758 303 758 q 725 486 725 758 l 725 -107 q 528 -334 725 -334 q 438 -317 473 -334 l 438 -216 q 515 -231 474 -231 q 601 -116 601 -231 l 601 479 q 440 655 601 655 q 232 385 232 655 l 232 0 "},"Ч":{"x_min":92,"x_max":742,"ha":834,"o":"m 742 0 l 615 0 l 615 406 q 349 345 461 345 q 92 596 92 345 l 92 992 l 218 992 l 218 612 q 253 490 218 524 q 362 456 288 456 q 615 510 466 456 l 615 992 l 742 992 l 742 0 "},"ü":{"x_min":109,"x_max":725,"ha":834,"o":"m 625 0 l 607 99 l 600 99 q 373 -14 529 -14 q 109 258 109 -14 l 109 745 l 232 745 l 232 264 q 392 88 232 88 q 551 151 501 88 q 601 357 601 214 l 601 745 l 725 745 l 725 0 l 625 0 m 290 1015 q 355 945 355 1015 q 290 876 355 876 q 225 945 225 876 q 290 1015 225 1015 m 544 1015 q 610 945 610 1015 q 544 876 610 876 q 479 945 479 876 q 544 1015 479 1015 "},"ь":{"x_min":147,"x_max":741,"ha":834,"o":"m 270 439 l 458 439 q 741 227 741 439 q 455 0 741 0 l 147 0 l 147 745 l 270 745 l 270 439 m 270 336 l 270 102 l 447 102 q 620 219 620 102 q 580 308 620 280 q 444 336 539 336 l 270 336 "},"Ÿ":{"x_min":23,"x_max":809,"ha":834,"o":"m 415 490 l 672 992 l 809 992 l 479 386 l 479 0 l 353 0 l 353 379 l 23 992 l 160 992 l 415 490 m 290 1244 q 355 1174 355 1244 q 290 1105 355 1105 q 225 1174 225 1105 q 290 1244 225 1244 m 544 1244 q 610 1174 610 1244 q 544 1105 610 1105 q 479 1174 479 1105 q 544 1244 479 1244 "},"€":{"x_min":65,"x_max":766.875,"ha":834,"o":"m 302 634 l 593 634 l 593 541 l 292 541 q 291 521 292 530 l 291 504 l 291 462 q 292 433 291 448 l 552 433 l 552 341 l 304 341 q 553 97 354 97 q 735 136 645 97 l 735 26 q 543 -14 652 -14 q 175 341 239 -14 l 65 341 l 65 433 l 165 433 l 163 459 l 165 541 l 65 541 l 65 634 l 173 634 q 295 908 199 811 q 539 1006 390 1006 q 766 943 669 1006 l 713 844 q 549 894 631 894 q 392 827 458 894 q 302 634 327 759 "},"в":{"x_min":119,"x_max":752,"ha":834,"o":"m 572 395 l 572 390 q 752 215 752 366 q 680 57 752 114 q 466 0 608 0 l 119 0 l 119 745 l 465 745 q 728 557 728 745 q 572 395 728 423 m 242 642 l 242 439 l 440 439 q 568 463 530 439 q 607 545 607 488 q 460 642 607 642 l 242 642 m 242 336 l 242 102 l 458 102 q 631 224 631 102 q 587 312 631 287 q 455 336 542 336 l 242 336 "},"Η":{"x_min":92,"x_max":742,"ha":834,"o":"m 742 0 l 615 0 l 615 462 l 218 462 l 218 0 l 92 0 l 92 992 l 218 992 l 218 574 l 615 574 l 615 992 l 742 992 l 742 0 "},"С":{"x_min":87,"x_max":801,"ha":834,"o":"m 763 136 l 763 26 q 519 -14 663 -14 q 198 119 309 -14 q 87 497 87 252 q 208 868 87 731 q 540 1006 330 1006 q 801 947 690 1006 l 747 841 q 540 894 643 894 q 307 787 394 894 q 220 496 220 679 q 302 199 220 301 q 540 97 383 97 q 763 136 629 97 "},"ß":{"x_min":111,"x_max":781,"ha":834,"o":"m 325 32 l 325 145 q 513 88 422 88 q 657 205 657 88 q 626 294 657 260 q 528 370 595 329 q 410 465 444 423 q 376 565 376 506 q 465 716 376 644 q 554 849 554 788 q 399 960 554 960 q 234 814 234 960 l 234 0 l 111 0 l 111 814 q 398 1063 111 1063 q 604 1009 530 1063 q 678 854 678 955 q 587 685 678 765 q 513 614 530 635 q 497 570 497 593 q 516 524 497 544 q 619 448 536 503 q 749 331 717 384 q 781 211 781 278 q 713 44 781 102 q 521 -14 645 -14 q 325 32 397 -14 "},"њ":{"x_min":72,"x_max":812,"ha":834,"o":"m 177 745 l 177 437 l 386 437 l 386 745 l 491 745 l 491 439 l 526 439 q 812 228 812 439 q 527 0 812 0 l 386 0 l 386 334 l 177 334 l 177 0 l 72 0 l 72 745 l 177 745 m 491 337 l 491 102 l 529 102 q 706 220 706 102 q 665 309 706 281 q 527 337 624 337 l 491 337 "},"Ű":{"x_min":85,"x_max":749,"ha":834,"o":"m 749 993 l 749 349 q 663 79 749 173 q 412 -14 578 -14 q 85 352 85 -14 l 85 991 l 211 991 l 211 359 q 419 97 211 97 q 622 361 619 97 l 622 993 l 749 993 m 219 1089 q 322 1293 274 1179 l 471 1293 l 471 1278 q 286 1071 395 1161 l 219 1071 l 219 1089 m 464 1089 q 568 1293 516 1169 l 717 1293 l 717 1278 q 532 1071 641 1161 l 464 1071 l 464 1089 "},"c":{"x_min":117,"x_max":720,"ha":834,"o":"m 720 717 l 677 610 q 496 650 576 650 q 244 369 244 650 q 489 93 244 93 q 707 135 595 93 l 707 27 q 483 -14 616 -14 q 213 84 309 -14 q 117 367 117 183 q 215 658 117 558 q 492 758 313 758 q 720 717 612 758 "},"¶":{"x_min":45,"x_max":732,"ha":834,"o":"m 732 -176 l 649 -176 l 649 947 l 510 947 l 510 -176 l 428 -176 l 428 379 q 329 367 386 367 q 45 706 45 367 q 118 968 45 882 q 350 1055 192 1055 l 732 1055 l 732 -176 "},"Ή":{"x_min":-104,"x_max":742,"ha":834,"o":"m 742 0 l 615 0 l 615 462 l 218 462 l 218 0 l 92 0 l 92 992 l 218 992 l 218 574 l 615 574 l 615 992 l 742 992 l 742 0 m -104 789 l -81 861 q -52 993 -59 938 l 78 993 l 78 978 q 44 897 78 967 q -30 771 11 827 l -104 771 l -104 789 "},"Ὅ":{"x_min":-211,"x_max":876,"ha":834,"o":"m 515 -14 q 155 498 155 -14 q 517 1007 155 1007 q 783 874 690 1007 q 876 496 876 741 q 782 118 876 251 q 515 -14 688 -14 m 515 97 q 687 195 633 97 q 742 497 742 293 q 687 799 742 702 q 517 895 631 895 q 288 497 288 895 q 515 97 288 97 m -211 851 q -170 942 -211 904 q -47 1003 -129 981 l -47 951 q -107 920 -87 936 q -126 889 -126 905 q -115 870 -126 876 q -93 858 -105 864 q -70 844 -80 853 q -60 816 -60 835 q -76 778 -60 791 q -125 765 -93 765 q -187 788 -164 765 q -211 851 -211 812 m -2 787 q 13 833 5 807 q 30 885 22 858 q 46 939 38 911 q 58 991 53 966 l 199 991 l 199 977 q 170 929 186 955 q 135 876 154 903 q 95 822 116 849 q 53 770 74 795 l -2 770 l -2 787 "},"γ":{"x_min":56,"x_max":777,"ha":834,"o":"m 501 42 q 424 -334 424 -147 l 297 -334 q 365 8 297 -193 l 56 745 l 186 745 l 350 343 q 422 126 398 225 l 426 126 q 493 326 444 196 l 648 745 l 777 745 l 501 42 "},"­":{"x_min":193,"x_max":641,"ha":834,"o":"m 193 315 l 193 429 l 641 429 l 641 315 l 193 315 "},":":{"x_min":330,"x_max":502,"ha":834,"o":"m 416 764 q 502 669 502 764 q 416 575 502 575 q 330 669 330 575 q 416 764 330 764 m 416 169 q 502 74 502 169 q 416 -20 502 -20 q 330 74 330 -20 q 416 169 330 169 "},"ś":{"x_min":138,"x_max":696,"ha":834,"o":"m 138 32 l 138 145 q 388 88 268 88 q 575 196 575 88 q 542 264 575 235 q 388 336 508 292 q 190 444 231 395 q 149 560 149 493 q 224 705 149 652 q 433 758 300 758 q 684 707 568 758 l 643 606 q 428 655 520 655 q 269 565 269 655 q 303 499 269 523 q 460 430 337 474 q 649 327 602 378 q 696 203 696 277 q 616 44 696 102 q 392 -14 537 -14 q 138 32 224 -14 m 347 860 q 465 1064 411 950 l 614 1064 l 614 1049 q 429 842 537 932 l 347 842 l 347 860 "}," ":{"x_min":0,"x_max":0,"ha":834},"У":{"x_min":18,"x_max":814,"ha":834,"o":"m 814 992 l 523 289 q 431 109 471 166 q 329 18 390 51 q 183 -14 269 -14 q 63 6 113 -14 l 63 131 q 184 97 120 97 q 299 132 258 97 q 377 250 341 167 l 18 992 l 156 992 l 416 440 q 429 408 424 423 q 441 377 435 391 l 442 377 l 469 451 l 681 992 l 814 992 "},"¾":{"x_min":14,"x_max":838.71875,"ha":834,"o":"m 236 738 q 356 611 356 711 q 305 487 356 531 q 159 444 254 444 q 14 477 71 444 l 14 562 q 152 522 89 522 q 254 614 254 522 q 153 699 254 699 l 104 699 l 104 768 l 151 768 q 236 851 236 768 q 170 924 236 924 q 60 880 121 924 l 15 938 q 176 1002 90 1002 q 294 965 250 1002 q 338 865 338 928 q 236 738 338 771 m 753 992 l 258 0 l 151 0 l 645 992 l 753 992 m 838 117 l 781 117 l 781 0 l 680 0 l 680 117 l 426 117 l 426 184 l 681 539 l 781 539 l 781 195 l 838 195 l 838 117 m 680 195 l 680 314 q 684 430 680 369 q 629 341 656 381 l 524 195 l 680 195 "},"Ί":{"x_min":-62,"x_max":678.5625,"ha":834,"o":"m 678 0 l 152 0 l 152 83 l 353 96 l 353 895 l 152 908 l 152 992 l 678 992 l 678 908 l 479 895 l 479 96 l 678 83 l 678 0 m -62 789 l -39 861 q -10 993 -17 938 l 120 993 l 120 978 q 86 897 120 967 q 11 771 53 827 l -62 771 l -62 789 "},"ŉ":{"x_min":-11,"x_max":767,"ha":834,"o":"m 191 992 l 201 977 q 81 652 167 843 l -11 652 q 56 992 29 816 l 191 992 m 643 0 l 643 479 q 494 655 643 655 q 301 385 301 655 l 301 0 l 178 0 l 178 745 l 278 745 l 296 644 l 302 644 q 390 727 331 696 q 518 758 448 758 q 767 486 767 758 l 767 0 l 643 0 "},"Ģ":{"x_min":79,"x_max":742,"ha":834,"o":"m 455 524 l 742 524 l 742 36 q 456 -14 609 -14 q 179 121 279 -14 q 79 497 79 256 q 188 870 79 735 q 491 1006 298 1006 q 726 947 621 1006 l 677 837 q 487 894 578 894 q 285 789 357 894 q 212 496 212 683 q 479 97 212 97 q 615 116 544 97 l 615 412 l 455 412 l 455 524 m 366 -288 q 423 -85 408 -193 l 544 -85 l 544 -98 q 511 -182 544 -113 q 433 -307 478 -251 l 366 -307 l 366 -288 "},"m":{"x_min":62,"x_max":773,"ha":834,"o":"m 649 0 l 649 479 q 633 616 649 578 q 579 655 617 655 q 503 599 527 655 q 479 410 479 543 l 479 0 l 356 0 l 356 479 q 280 655 356 655 q 207 601 229 655 q 185 385 185 547 l 185 0 l 62 0 l 62 745 l 159 745 l 180 644 l 186 644 q 320 758 231 758 q 461 634 428 758 l 465 634 q 611 758 516 758 q 734 695 696 758 q 773 486 773 632 l 773 0 l 649 0 "},"Е":{"x_min":147,"x_max":719,"ha":834,"o":"m 719 0 l 147 0 l 147 992 l 719 992 l 719 880 l 273 880 l 273 574 l 693 574 l 693 462 l 273 462 l 273 111 l 719 111 l 719 0 "},"ž":{"x_min":123,"x_max":709,"ha":834,"o":"m 709 0 l 123 0 l 123 88 l 572 648 l 145 648 l 145 745 l 697 745 l 697 641 l 256 96 l 709 96 l 709 0 m 650 1045 q 609 1000 633 1026 q 490 842 514 893 l 359 842 q 240 1000 335 893 l 200 1045 l 200 1064 l 281 1064 q 424 937 337 1027 q 567 1064 507 1024 l 650 1064 l 650 1045 "},"á":{"x_min":92,"x_max":696,"ha":834,"o":"m 606 0 l 580 99 l 575 99 q 468 10 523 35 q 327 -14 413 -14 q 154 44 217 -14 q 92 207 92 102 q 436 442 92 431 l 573 447 l 573 494 q 409 655 573 655 q 187 599 309 655 l 144 692 q 404 758 277 758 q 627 699 558 758 q 696 509 696 640 l 696 0 l 606 0 m 572 362 l 462 357 q 274 315 330 352 q 219 204 219 279 q 354 82 219 82 q 513 138 454 82 q 572 294 572 194 l 572 362 m 341 860 q 459 1064 405 950 l 608 1064 l 608 1049 q 423 842 531 932 l 341 842 l 341 860 "},"×":{"x_min":129.28125,"x_max":704.421875,"ha":834,"o":"m 344 490 l 129 706 l 200 778 l 415 562 l 633 778 l 704 708 l 486 490 l 703 273 l 633 204 l 415 419 l 200 205 l 131 275 l 344 490 "},"п":{"x_min":109,"x_max":725,"ha":834,"o":"m 232 0 l 109 0 l 109 745 l 725 745 l 725 0 l 601 0 l 601 642 l 232 642 l 232 0 "},"Ǻ":{"x_min":22,"x_max":812,"ha":834,"o":"m 681 0 l 583 307 l 250 307 l 150 0 l 22 0 l 350 996 l 482 996 l 812 0 l 681 0 m 547 419 l 457 706 q 415 860 431 791 q 384 736 401 793 l 286 419 l 547 419 m 414 927 q 304 966 345 927 q 263 1073 263 1005 q 304 1179 263 1140 q 414 1219 345 1219 q 526 1178 482 1219 q 570 1074 570 1138 q 526 967 570 1007 q 414 927 483 927 m 416 1149 q 359 1129 381 1149 q 337 1073 337 1109 q 416 996 337 996 q 473 1016 451 996 q 495 1073 495 1036 q 473 1129 495 1109 q 416 1149 451 1149 m 332 1263 q 450 1467 396 1353 l 599 1467 l 599 1452 q 414 1245 522 1335 l 332 1245 l 332 1263 "},"K":{"x_min":143,"x_max":813.25,"ha":834,"o":"m 813 0 l 669 0 l 364 473 l 269 396 l 269 0 l 143 0 l 143 992 l 269 992 l 269 496 l 351 609 l 659 992 l 801 992 l 447 559 l 813 0 "},"7":{"x_min":97,"x_max":735,"ha":834,"o":"m 227 0 l 608 879 l 97 879 l 97 992 l 735 992 l 735 893 l 358 0 l 227 0 "},"¨":{"x_min":224,"x_max":609,"ha":834,"o":"m 289 1015 q 354 945 354 1015 q 289 876 354 876 q 224 945 224 876 q 289 1015 224 1015 m 543 1015 q 609 945 609 1015 q 543 876 609 876 q 478 945 478 876 q 543 1015 478 1015 "},"Y":{"x_min":23,"x_max":809,"ha":834,"o":"m 415 490 l 672 992 l 809 992 l 479 386 l 479 0 l 353 0 l 353 379 l 23 992 l 160 992 l 415 490 "},"E":{"x_min":147,"x_max":719,"ha":834,"o":"m 719 0 l 147 0 l 147 992 l 719 992 l 719 880 l 273 880 l 273 574 l 693 574 l 693 462 l 273 462 l 273 111 l 719 111 l 719 0 "},"Ô":{"x_min":57,"x_max":778,"ha":834,"o":"m 417 -14 q 57 498 57 -14 q 419 1007 57 1007 q 685 874 592 1007 q 778 496 778 741 q 684 118 778 251 q 417 -14 590 -14 m 417 97 q 589 195 535 97 q 644 497 644 293 q 589 799 644 702 q 419 895 533 895 q 190 497 190 895 q 417 97 190 97 m 642 1071 l 559 1071 q 416 1196 502 1108 q 273 1071 326 1104 l 192 1071 l 192 1089 q 232 1134 208 1108 q 351 1293 326 1239 l 482 1293 q 601 1134 507 1239 l 642 1089 l 642 1071 "},"Є":{"x_min":87,"x_max":801,"ha":834,"o":"m 224 574 l 652 574 l 652 462 l 220 462 q 540 97 236 97 q 763 135 629 97 l 763 26 q 519 -14 663 -14 q 198 119 309 -14 q 87 497 87 252 q 208 868 87 731 q 540 1006 330 1006 q 801 947 690 1006 l 747 841 q 540 894 643 894 q 327 810 412 894 q 224 574 243 725 "},"Ï":{"x_min":152.921875,"x_max":678.5625,"ha":834,"o":"m 678 0 l 152 0 l 152 83 l 353 96 l 353 895 l 152 908 l 152 992 l 678 992 l 678 908 l 479 895 l 479 96 l 678 83 l 678 0 m 290 1244 q 355 1174 355 1244 q 290 1105 355 1105 q 225 1174 225 1105 q 290 1244 225 1244 m 544 1244 q 610 1174 610 1244 q 544 1105 610 1105 q 479 1174 479 1105 q 544 1244 479 1244 "},"ġ":{"x_min":70,"x_max":763.84375,"ha":834,"o":"m 763 745 l 763 668 l 630 650 q 675 506 675 592 q 602 333 675 397 q 401 269 530 269 q 343 273 364 269 q 275 182 275 234 q 384 125 275 125 l 511 125 q 691 72 629 125 q 754 -77 754 20 q 371 -334 754 -334 q 146 -278 223 -334 q 70 -123 70 -223 q 232 61 70 22 q 167 165 167 93 q 257 293 167 240 q 162 376 197 318 q 128 502 128 434 q 200 691 128 625 q 405 758 272 758 q 507 745 464 758 l 763 745 m 402 353 q 554 508 554 353 q 401 669 554 669 q 248 506 248 669 q 402 353 248 353 m 469 17 l 342 17 q 186 -118 186 17 q 370 -237 186 -237 q 637 -84 637 -237 q 603 -3 637 -24 q 469 17 569 17 m 422 1023 q 487 945 487 1023 q 422 868 487 868 q 357 945 357 868 q 422 1023 357 1023 "},"έ":{"x_min":136,"x_max":700.703125,"ha":834,"o":"m 570 439 l 570 336 l 462 336 q 259 210 259 336 q 450 88 259 88 q 698 145 583 88 l 698 36 q 441 -14 606 -14 q 217 43 298 -14 q 136 203 136 100 q 297 385 136 334 l 297 392 q 160 561 160 437 q 236 705 160 652 q 440 758 312 758 q 700 706 587 758 l 658 606 q 446 655 550 655 q 283 551 283 655 q 467 439 283 439 l 570 439 m 391 860 l 413 932 q 442 1064 435 1009 l 573 1064 l 573 1049 q 539 968 573 1038 q 464 842 506 898 l 391 842 l 391 860 "}," ":{"x_min":0,"x_max":0,"ha":834},"ϋ":{"x_min":109,"x_max":735,"ha":834,"o":"m 109 745 l 232 745 l 232 345 q 418 88 232 88 q 565 167 520 88 q 611 412 611 245 q 568 745 611 573 l 691 745 q 735 406 735 578 q 657 88 735 191 q 414 -14 579 -14 q 109 337 109 -14 l 109 745 m 289 1015 q 354 945 354 1015 q 289 876 354 876 q 224 945 224 876 q 289 1015 224 1015 m 543 1015 q 609 945 609 1015 q 543 876 609 876 q 478 945 478 876 q 543 1015 478 1015 "},"й":{"x_min":109,"x_max":725,"ha":834,"o":"m 229 745 l 229 291 l 220 120 l 562 745 l 725 745 l 725 0 l 604 0 l 604 439 l 611 622 l 271 0 l 109 0 l 109 745 l 229 745 m 702 1058 q 437 842 688 842 q 247 892 305 842 q 182 1058 188 942 l 298 1058 q 332 959 304 988 q 442 930 361 930 q 585 1058 573 930 l 702 1058 "},"b":{"x_min":107,"x_max":741,"ha":834,"o":"m 230 93 l 222 93 l 197 0 l 107 0 l 107 1055 l 230 1055 l 230 800 q 225 646 230 745 l 230 646 q 449 758 303 758 q 663 656 585 758 q 741 373 741 555 q 662 88 741 190 q 449 -14 584 -14 q 230 93 308 -14 m 230 373 q 277 153 230 219 q 428 88 325 88 q 613 374 613 88 q 427 655 613 655 q 276 591 321 655 q 230 373 230 528 "},"ύ":{"x_min":109,"x_max":735,"ha":834,"o":"m 109 745 l 232 745 l 232 345 q 418 88 232 88 q 565 167 520 88 q 611 412 611 245 q 568 745 611 573 l 691 745 q 735 406 735 578 q 657 88 735 191 q 414 -14 579 -14 q 109 337 109 -14 l 109 745 m 352 860 l 374 932 q 403 1064 396 1009 l 534 1064 l 534 1049 q 500 968 534 1038 q 425 842 467 898 l 352 842 l 352 860 "},"ﬂ":{"x_min":33,"x_max":713,"ha":834,"o":"m 456 656 l 288 656 l 288 0 l 165 0 l 165 656 l 33 656 l 33 704 l 165 749 l 165 814 q 216 1002 165 942 q 389 1063 268 1063 q 523 1037 455 1063 l 491 942 q 394 960 438 960 q 310 926 331 960 q 288 815 288 892 l 288 745 l 456 745 l 456 656 m 713 0 l 589 0 l 589 1055 l 713 1055 l 713 0 "},"ф":{"x_min":50,"x_max":782,"ha":834,"o":"m 473 756 q 782 373 782 722 q 473 -11 782 17 l 473 -334 l 368 -334 l 368 -11 q 50 373 50 19 q 368 756 50 728 l 368 1055 l 473 1055 l 473 756 m 368 91 l 368 653 q 155 373 155 633 q 368 91 155 111 m 473 652 l 473 91 q 676 373 676 113 q 473 652 676 629 "},"Ŋ":{"x_min":92,"x_max":741,"ha":834,"o":"m 201 821 l 196 821 q 208 538 208 633 l 208 0 l 92 0 l 92 992 l 236 992 l 629 226 l 636 226 q 624 500 624 412 l 624 992 l 741 992 l 741 13 q 673 -192 741 -120 q 478 -264 605 -264 q 373 -247 415 -264 l 373 -139 q 480 -152 425 -152 q 624 0 624 -152 l 201 821 "},"Ũ":{"x_min":85,"x_max":749,"ha":834,"o":"m 749 993 l 749 349 q 663 79 749 173 q 412 -14 578 -14 q 85 352 85 -14 l 85 991 l 211 991 l 211 359 q 419 97 211 97 q 622 361 619 97 l 622 993 l 749 993 m 248 1070 l 177 1070 q 320 1250 193 1250 q 429 1211 359 1250 q 521 1173 498 1173 q 593 1251 576 1173 l 665 1251 q 522 1072 646 1072 q 415 1110 483 1072 q 320 1148 347 1148 q 248 1070 265 1148 "},"Щ":{"x_min":41,"x_max":834,"ha":834,"o":"m 713 111 l 834 111 l 834 -261 l 717 -261 l 717 0 l 41 0 l 41 992 l 167 992 l 167 111 l 321 111 l 321 992 l 447 992 l 447 111 l 586 111 l 586 992 l 713 992 l 713 111 "},"L":{"x_min":158,"x_max":716,"ha":834,"o":"m 158 0 l 158 992 l 284 992 l 284 111 l 716 111 l 716 0 l 158 0 "},"ď":{"x_min":54,"x_max":892,"ha":834,"o":"m 569 99 l 564 99 q 345 -14 487 -14 q 131 87 209 -14 q 54 370 54 188 q 132 655 54 553 q 345 758 210 758 q 564 649 485 758 l 572 649 q 564 759 564 736 l 564 1055 l 688 1055 l 688 0 l 588 0 l 569 99 m 564 342 l 564 370 q 517 590 564 524 q 366 655 469 655 q 181 369 181 655 q 367 88 181 88 q 516 148 471 88 q 564 342 561 208 m 729 850 l 746 923 q 770 1055 764 1002 l 892 1055 l 892 1041 q 863 964 892 1031 q 793 833 835 897 l 729 833 l 729 850 "},"Ο":{"x_min":57,"x_max":778,"ha":834,"o":"m 417 -14 q 57 498 57 -14 q 419 1007 57 1007 q 685 874 592 1007 q 778 496 778 741 q 684 118 778 251 q 417 -14 590 -14 m 417 97 q 589 195 535 97 q 644 497 644 293 q 589 799 644 702 q 419 895 533 895 q 190 497 190 895 q 417 97 190 97 "},"Ĭ":{"x_min":152.921875,"x_max":678.5625,"ha":834,"o":"m 678 0 l 152 0 l 152 83 l 353 96 l 353 895 l 152 908 l 152 992 l 678 992 l 678 908 l 479 895 l 479 96 l 678 83 l 678 0 m 621 1259 q 560 1121 614 1172 q 414 1071 506 1071 q 213 1259 224 1071 l 287 1259 q 319 1189 292 1206 q 416 1172 346 1172 q 546 1259 539 1172 l 621 1259 "},"ŧ":{"x_min":95,"x_max":696,"ha":834,"o":"m 692 101 l 692 7 q 521 -14 603 -14 q 276 217 276 -14 l 276 387 l 166 387 l 166 484 l 276 484 l 276 648 l 95 648 l 95 715 l 276 749 l 328 943 l 399 943 l 399 745 l 696 745 l 696 648 l 399 648 l 399 484 l 607 484 l 607 387 l 399 387 l 399 218 q 529 88 399 88 q 692 101 592 88 "},"À":{"x_min":22,"x_max":812,"ha":834,"o":"m 681 0 l 583 307 l 250 307 l 150 0 l 22 0 l 350 996 l 482 996 l 812 0 l 681 0 m 547 419 l 457 706 q 415 860 431 791 q 384 736 401 793 l 286 419 l 547 419 m 499 1071 l 416 1071 q 232 1278 304 1167 l 232 1293 l 380 1293 q 499 1089 439 1172 l 499 1071 "},"Ϊ":{"x_min":152.921875,"x_max":678.5625,"ha":834,"o":"m 678 0 l 152 0 l 152 83 l 353 96 l 353 895 l 152 908 l 152 992 l 678 992 l 678 908 l 479 895 l 479 96 l 678 83 l 678 0 m 290 1244 q 355 1174 355 1244 q 290 1105 355 1105 q 225 1174 225 1105 q 290 1244 225 1244 m 544 1244 q 610 1174 610 1244 q 544 1105 610 1105 q 479 1174 479 1105 q 544 1244 479 1244 "},"ḁ":{"x_min":92,"x_max":696,"ha":834,"o":"m 606 0 l 580 99 l 575 99 q 468 10 523 35 q 327 -14 413 -14 q 154 44 217 -14 q 92 207 92 102 q 436 442 92 431 l 573 447 l 573 494 q 409 655 573 655 q 187 599 309 655 l 144 692 q 404 758 277 758 q 627 699 558 758 q 696 509 696 640 l 696 0 l 606 0 m 572 362 l 462 357 q 274 315 330 352 q 219 204 219 279 q 354 82 219 82 q 513 138 454 82 q 572 294 572 194 l 572 362 m 567 -229 q 555 -291 567 -264 q 522 -338 543 -319 q 472 -367 501 -357 q 411 -377 444 -377 q 349 -367 377 -377 q 301 -338 321 -357 q 270 -292 281 -319 q 260 -231 260 -265 q 270 -169 260 -196 q 301 -123 281 -142 q 349 -94 321 -104 q 411 -85 377 -85 q 472 -94 443 -85 q 521 -123 500 -104 q 554 -168 542 -142 q 567 -229 567 -195 m 492 -231 q 470 -174 492 -194 q 413 -154 448 -154 q 356 -174 378 -154 q 334 -231 334 -194 q 354 -287 334 -267 q 413 -307 374 -307 q 470 -287 448 -307 q 492 -231 492 -267 "},"½":{"x_min":2,"x_max":831,"ha":834,"o":"m 150 990 l 244 990 l 244 456 l 143 456 l 143 771 q 149 906 143 817 q 98 862 121 876 l 51 828 l 2 887 l 150 990 m 673 992 l 178 0 l 71 0 l 565 992 l 673 992 m 831 1 l 471 1 l 471 70 l 595 205 q 689 319 668 285 q 709 392 709 353 q 635 469 709 469 q 526 418 581 469 l 475 477 q 643 547 554 547 q 766 506 722 547 q 811 395 811 465 q 787 304 811 350 q 676 171 763 258 l 584 79 l 831 79 l 831 1 "},"'":{"x_min":336,"x_max":496.734375,"ha":834,"o":"m 496 992 l 468 634 l 363 634 l 336 992 l 496 992 "},"ĳ":{"x_min":127.828125,"x_max":704,"ha":834,"o":"m 200 1051 q 272 973 272 1051 q 250 915 272 934 q 200 896 229 896 q 127 973 127 896 q 200 1051 127 1051 m 629 1051 q 701 973 701 1051 q 679 915 701 934 q 629 896 658 896 q 556 973 556 896 q 629 1051 556 1051 m 138 745 l 261 745 l 261 0 l 138 0 l 138 745 m 341 -310 l 341 -205 q 469 -231 400 -231 q 580 -85 580 -231 l 580 648 l 435 662 l 435 745 l 704 745 l 704 -79 q 646 -268 704 -203 q 486 -334 588 -334 q 341 -310 403 -334 "},"Р":{"x_min":119,"x_max":742,"ha":834,"o":"m 245 385 l 245 0 l 119 0 l 119 992 l 393 992 q 742 701 742 992 q 647 468 742 552 q 374 385 553 385 l 245 385 m 245 493 l 359 493 q 550 541 493 493 q 608 694 608 590 q 380 884 608 884 l 245 884 l 245 493 "},"˛":{"x_min":281,"x_max":553,"ha":834,"o":"m 553 -217 l 553 -293 q 447 -309 503 -309 q 323 -271 366 -309 q 281 -171 281 -234 q 405 0 281 -73 l 497 0 q 378 -162 378 -85 q 467 -227 378 -227 q 553 -217 513 -227 "},"Ć":{"x_min":87,"x_max":801,"ha":834,"o":"m 763 136 l 763 26 q 519 -14 663 -14 q 198 119 309 -14 q 87 497 87 252 q 208 868 87 731 q 540 1006 330 1006 q 801 947 690 1006 l 747 841 q 540 894 643 894 q 307 787 394 894 q 220 496 220 679 q 302 199 220 301 q 540 97 383 97 q 763 136 629 97 m 448 1089 q 566 1293 512 1179 l 715 1293 l 715 1278 q 530 1071 638 1161 l 448 1071 l 448 1089 "},"Т":{"x_min":69,"x_max":762,"ha":834,"o":"m 479 0 l 353 0 l 353 880 l 69 880 l 69 992 l 762 992 l 762 880 l 479 880 l 479 0 "},"£":{"x_min":81,"x_max":753,"ha":834,"o":"m 721 949 l 676 852 q 492 898 581 898 q 342 732 342 898 l 342 534 l 596 534 l 596 437 l 342 437 l 342 295 q 247 112 342 164 l 753 112 l 753 0 l 81 0 l 81 104 q 217 294 217 137 l 217 437 l 82 437 l 82 534 l 217 534 l 217 753 q 290 935 217 867 q 486 1004 364 1004 q 721 949 616 1004 "},"ů":{"x_min":109,"x_max":725,"ha":834,"o":"m 625 0 l 607 99 l 600 99 q 373 -14 529 -14 q 109 258 109 -14 l 109 745 l 232 745 l 232 264 q 392 88 232 88 q 551 151 501 88 q 601 357 601 214 l 601 745 l 725 745 l 725 0 l 625 0 m 412 842 q 302 881 343 842 q 261 988 261 920 q 302 1094 261 1055 q 412 1134 343 1134 q 524 1093 480 1134 q 568 989 568 1053 q 524 882 568 922 q 412 842 481 842 m 414 1064 q 357 1044 379 1064 q 335 988 335 1024 q 414 911 335 911 q 471 931 449 911 q 493 988 493 951 q 471 1044 493 1024 q 414 1064 449 1064 "},"Ō":{"x_min":57,"x_max":778,"ha":834,"o":"m 417 -14 q 57 498 57 -14 q 419 1007 57 1007 q 685 874 592 1007 q 778 496 778 741 q 684 118 778 251 q 417 -14 590 -14 m 417 97 q 589 195 535 97 q 644 497 644 293 q 589 799 644 702 q 419 895 533 895 q 190 497 190 895 q 417 97 190 97 m 224 1172 l 615 1172 l 615 1071 l 224 1071 l 224 1172 "},"а":{"x_min":92,"x_max":696,"ha":834,"o":"m 606 0 l 580 99 l 575 99 q 468 10 523 35 q 327 -14 413 -14 q 154 44 217 -14 q 92 207 92 102 q 436 442 92 431 l 573 447 l 573 494 q 409 655 573 655 q 187 599 309 655 l 144 692 q 404 758 277 758 q 627 699 558 758 q 696 509 696 640 l 696 0 l 606 0 m 572 362 l 462 357 q 274 315 330 352 q 219 204 219 279 q 354 82 219 82 q 513 138 454 82 q 572 294 572 194 l 572 362 "},"Ğ":{"x_min":79,"x_max":742,"ha":834,"o":"m 455 524 l 742 524 l 742 36 q 456 -14 609 -14 q 179 121 279 -14 q 79 497 79 256 q 188 870 79 735 q 491 1006 298 1006 q 726 947 621 1006 l 677 837 q 487 894 578 894 q 285 789 357 894 q 212 496 212 683 q 479 97 212 97 q 615 116 544 97 l 615 412 l 455 412 l 455 524 m 687 1259 q 626 1121 680 1172 q 480 1071 572 1071 q 279 1259 290 1071 l 353 1259 q 385 1189 358 1206 q 482 1172 412 1172 q 612 1259 605 1172 l 687 1259 "},"v":{"x_min":56,"x_max":777,"ha":834,"o":"m 338 0 l 56 745 l 183 745 l 346 302 q 414 82 403 145 l 418 82 q 486 302 422 111 l 648 745 l 777 745 l 494 0 l 338 0 "},"Ї":{"x_min":152.921875,"x_max":678.5625,"ha":834,"o":"m 678 0 l 152 0 l 152 83 l 353 96 l 353 895 l 152 908 l 152 992 l 678 992 l 678 908 l 479 895 l 479 96 l 678 83 l 678 0 m 290 1244 q 355 1174 355 1244 q 290 1105 355 1105 q 225 1174 225 1105 q 290 1244 225 1244 m 544 1244 q 610 1174 610 1244 q 544 1105 610 1105 q 479 1174 479 1105 q 544 1244 479 1244 "},"û":{"x_min":109,"x_max":725,"ha":834,"o":"m 625 0 l 607 99 l 600 99 q 373 -14 529 -14 q 109 258 109 -14 l 109 745 l 232 745 l 232 264 q 392 88 232 88 q 551 151 501 88 q 601 357 601 214 l 601 745 l 725 745 l 725 0 l 625 0 m 648 842 l 565 842 q 422 967 508 879 q 279 842 332 875 l 198 842 l 198 860 q 238 905 214 879 q 357 1064 332 1010 l 488 1064 q 607 905 513 1010 l 648 860 l 648 842 "},"Ź":{"x_min":69,"x_max":763,"ha":834,"o":"m 763 0 l 69 0 l 69 97 l 607 880 l 83 880 l 83 992 l 749 992 l 749 895 l 210 111 l 763 111 l 763 0 m 322 1089 q 440 1293 386 1179 l 589 1293 l 589 1278 q 404 1071 512 1161 l 322 1071 l 322 1089 "},"ˉ":{"x_min":221,"x_max":612,"ha":834,"o":"m 221 943 l 612 943 l 612 842 l 221 842 l 221 943 "},"Ĺ":{"x_min":158,"x_max":716,"ha":834,"o":"m 158 0 l 158 992 l 284 992 l 284 111 l 716 111 l 716 0 l 158 0 m 179 1089 q 297 1293 243 1179 l 446 1293 l 446 1278 q 261 1071 369 1161 l 179 1071 l 179 1089 "},"₤":{"x_min":81,"x_max":753,"ha":834,"o":"m 721 949 l 676 852 q 492 898 581 898 q 342 733 342 898 l 342 604 l 596 604 l 596 507 l 342 507 l 342 407 l 596 407 l 596 311 l 342 311 l 342 298 q 245 112 342 165 l 753 112 l 753 0 l 81 0 l 81 104 q 217 296 217 137 l 217 311 l 82 311 l 82 407 l 217 407 l 217 507 l 82 507 l 82 604 l 217 604 l 217 753 q 290 935 217 867 q 486 1004 364 1004 q 721 949 616 1004 "},"Č":{"x_min":87,"x_max":801,"ha":834,"o":"m 763 136 l 763 26 q 519 -14 663 -14 q 198 119 309 -14 q 87 497 87 252 q 208 868 87 731 q 540 1006 330 1006 q 801 947 690 1006 l 747 841 q 540 894 643 894 q 307 787 394 894 q 220 496 220 679 q 302 199 220 301 q 540 97 383 97 q 763 136 629 97 m 747 1274 q 706 1229 730 1255 q 587 1071 611 1122 l 456 1071 q 337 1229 432 1122 l 297 1274 l 297 1293 l 378 1293 q 521 1166 434 1256 q 664 1293 604 1253 l 747 1293 l 747 1274 "},"x":{"x_min":65,"x_max":767,"ha":834,"o":"m 346 382 l 79 745 l 219 745 l 416 466 l 614 745 l 754 745 l 486 382 l 767 0 l 627 0 l 416 295 l 205 0 l 65 0 l 346 382 "},"è":{"x_min":90,"x_max":744,"ha":834,"o":"m 744 346 l 217 346 q 451 93 222 93 q 703 145 584 93 l 703 36 q 456 -14 590 -14 q 189 87 289 -14 q 90 366 90 188 q 182 652 90 547 q 428 758 274 758 q 658 666 572 758 q 744 423 744 575 l 744 346 m 220 449 l 616 449 q 428 655 616 655 q 220 449 238 655 m 521 842 l 438 842 q 254 1049 326 938 l 254 1064 l 402 1064 q 521 860 461 943 l 521 842 "},"Ń":{"x_min":92,"x_max":741,"ha":834,"o":"m 741 0 l 596 0 l 201 821 l 196 821 q 208 538 208 633 l 208 0 l 92 0 l 92 992 l 236 992 l 629 174 l 633 174 q 624 449 624 380 l 624 992 l 741 992 l 741 0 m 350 1089 q 468 1293 414 1179 l 617 1293 l 617 1278 q 432 1071 540 1161 l 350 1071 l 350 1089 "},"ḿ":{"x_min":62,"x_max":773,"ha":834,"o":"m 649 0 l 649 479 q 633 616 649 578 q 579 655 617 655 q 503 599 527 655 q 479 410 479 543 l 479 0 l 356 0 l 356 479 q 280 655 356 655 q 207 601 229 655 q 185 385 185 547 l 185 0 l 62 0 l 62 745 l 159 745 l 180 644 l 186 644 q 320 758 231 758 q 461 634 428 758 l 465 634 q 611 758 516 758 q 734 695 696 758 q 773 486 773 632 l 773 0 l 649 0 m 370 860 q 488 1064 434 950 l 637 1064 l 637 1049 q 452 842 560 932 l 370 842 l 370 860 "},"μ":{"x_min":109,"x_max":725,"ha":834,"o":"m 232 264 q 393 88 232 88 q 551 151 502 88 q 601 357 601 214 l 601 745 l 725 745 l 725 0 l 625 0 l 607 99 l 600 99 q 396 -14 534 -14 q 228 45 279 -14 q 232 -117 232 -58 l 232 -334 l 109 -334 l 109 745 l 232 745 l 232 264 "},".":{"x_min":314,"x_max":520,"ha":834,"o":"m 416 204 q 520 91 520 204 q 416 -21 520 -21 q 314 91 314 -21 q 416 204 314 204 "},"‘":{"x_min":303,"x_max":530,"ha":834,"o":"m 313 652 l 303 666 q 423 992 339 806 l 530 992 q 463 652 488 818 l 313 652 "},"π":{"x_min":9.4375,"x_max":823.421875,"ha":834,"o":"m 803 101 l 803 3 q 710 -14 767 -14 q 557 164 557 -14 l 557 642 l 283 642 l 283 0 l 160 0 l 160 642 l 9 642 l 9 691 l 103 745 l 823 745 l 823 642 l 681 642 l 681 173 q 742 88 681 88 q 803 101 773 88 "},"9":{"x_min":104,"x_max":730,"ha":834,"o":"m 179 -1 l 179 104 q 291 82 224 82 q 518 178 442 82 q 601 483 595 274 l 593 483 q 385 368 528 368 q 178 448 253 368 q 104 670 104 528 q 185 916 104 826 q 405 1006 267 1006 q 642 889 555 1006 q 730 568 730 773 q 295 -14 730 -14 q 179 -1 224 -14 m 223 670 q 269 518 223 571 q 402 464 316 464 q 546 520 488 464 q 604 646 604 576 q 550 825 604 749 q 406 900 496 900 q 271 841 319 900 q 223 670 223 782 "},"l":{"x_min":127.6875,"x_max":723.171875,"ha":834,"o":"m 361 958 l 179 972 l 179 1055 l 484 1055 l 484 96 l 723 83 l 723 0 l 127 0 l 127 83 l 361 96 l 361 958 "},"Ъ":{"x_min":18,"x_max":774,"ha":834,"o":"m 220 0 l 220 880 l 18 880 l 18 992 l 346 992 l 346 574 l 392 574 q 675 500 576 574 q 774 290 774 426 q 679 76 774 153 q 410 0 585 0 l 220 0 m 346 107 l 412 107 q 640 290 640 107 q 582 421 640 379 q 392 462 524 462 l 346 462 l 346 107 "}," ":{"x_min":0,"x_max":0,"ha":834},"Ś":{"x_min":96,"x_max":738,"ha":834,"o":"m 96 32 l 96 152 q 375 93 238 93 q 611 258 611 93 q 564 366 611 328 q 371 456 516 404 q 170 575 231 506 q 109 754 109 644 q 196 939 109 872 q 435 1006 283 1006 q 718 953 591 1006 l 674 841 q 432 894 544 894 q 235 752 235 894 q 279 641 235 683 q 461 551 323 599 q 682 428 626 491 q 738 264 738 364 q 644 60 738 134 q 376 -14 550 -14 q 96 32 197 -14 m 349 1089 q 467 1293 413 1179 l 616 1293 l 616 1278 q 431 1071 539 1161 l 349 1071 l 349 1089 "},"Ü":{"x_min":85,"x_max":749,"ha":834,"o":"m 749 993 l 749 349 q 663 79 749 173 q 412 -14 578 -14 q 85 352 85 -14 l 85 991 l 211 991 l 211 359 q 419 97 211 97 q 622 361 619 97 l 622 993 l 749 993 m 290 1244 q 355 1174 355 1244 q 290 1105 355 1105 q 225 1174 225 1105 q 290 1244 225 1244 m 544 1244 q 610 1174 610 1244 q 544 1105 610 1105 q 479 1174 479 1105 q 544 1244 479 1244 "},"à":{"x_min":92,"x_max":696,"ha":834,"o":"m 606 0 l 580 99 l 575 99 q 468 10 523 35 q 327 -14 413 -14 q 154 44 217 -14 q 92 207 92 102 q 436 442 92 431 l 573 447 l 573 494 q 409 655 573 655 q 187 599 309 655 l 144 692 q 404 758 277 758 q 627 699 558 758 q 696 509 696 640 l 696 0 l 606 0 m 572 362 l 462 357 q 274 315 330 352 q 219 204 219 279 q 354 82 219 82 q 513 138 454 82 q 572 294 572 194 l 572 362 m 493 842 l 410 842 q 226 1049 298 938 l 226 1064 l 374 1064 q 493 860 433 943 l 493 842 "},"η":{"x_min":109,"x_max":725,"ha":834,"o":"m 601 -334 l 601 479 q 440 655 601 655 q 232 385 232 655 l 232 0 l 109 0 l 109 745 l 208 745 l 227 644 l 233 644 q 461 758 302 758 q 725 486 725 758 l 725 -334 l 601 -334 "},"ó":{"x_min":78,"x_max":755,"ha":834,"o":"m 414 -14 q 172 91 267 -14 q 78 373 78 196 q 170 654 78 551 q 418 758 262 758 q 660 652 566 758 q 755 373 755 547 q 661 89 755 193 q 414 -14 568 -14 m 416 88 q 627 373 627 88 q 415 655 627 655 q 205 373 205 655 q 416 88 205 88 m 338 860 q 456 1064 402 950 l 605 1064 l 605 1049 q 420 842 528 932 l 338 842 l 338 860 "},"¦":{"x_min":366,"x_max":467.734375,"ha":834,"o":"m 366 1055 l 467 1055 l 467 526 l 366 526 l 366 1055 m 366 196 l 467 196 l 467 -334 l 366 -334 l 366 196 "},"Ő":{"x_min":57,"x_max":778,"ha":834,"o":"m 417 -14 q 57 498 57 -14 q 419 1007 57 1007 q 685 874 592 1007 q 778 496 778 741 q 684 118 778 251 q 417 -14 590 -14 m 417 97 q 589 195 535 97 q 644 497 644 293 q 589 799 644 702 q 419 895 533 895 q 190 497 190 895 q 417 97 190 97 m 222 1089 q 325 1293 277 1179 l 474 1293 l 474 1278 q 289 1071 398 1161 l 222 1071 l 222 1089 m 467 1089 q 571 1293 519 1169 l 720 1293 l 720 1278 q 535 1071 644 1161 l 467 1071 l 467 1089 "},"Ž":{"x_min":69,"x_max":763,"ha":834,"o":"m 763 0 l 69 0 l 69 97 l 607 880 l 83 880 l 83 992 l 749 992 l 749 895 l 210 111 l 763 111 l 763 0 m 641 1274 q 600 1229 624 1255 q 481 1071 505 1122 l 350 1071 q 231 1229 326 1122 l 191 1274 l 191 1293 l 272 1293 q 415 1166 328 1256 q 558 1293 498 1253 l 641 1293 l 641 1274 "},"е":{"x_min":90,"x_max":744,"ha":834,"o":"m 744 346 l 217 346 q 451 93 222 93 q 703 145 584 93 l 703 36 q 456 -14 590 -14 q 189 87 289 -14 q 90 366 90 188 q 182 652 90 547 q 428 758 274 758 q 658 666 572 758 q 744 423 744 575 l 744 346 m 220 449 l 616 449 q 428 655 616 655 q 220 449 238 655 "},"Î":{"x_min":152.921875,"x_max":678.5625,"ha":834,"o":"m 678 0 l 152 0 l 152 83 l 353 96 l 353 895 l 152 908 l 152 992 l 678 992 l 678 908 l 479 895 l 479 96 l 678 83 l 678 0 m 642 1071 l 559 1071 q 416 1196 502 1108 q 273 1071 326 1104 l 192 1071 l 192 1089 q 232 1134 208 1108 q 351 1293 326 1239 l 482 1293 q 601 1134 507 1239 l 642 1089 l 642 1071 "},"e":{"x_min":90,"x_max":744,"ha":834,"o":"m 744 346 l 217 346 q 451 93 222 93 q 703 145 584 93 l 703 36 q 456 -14 590 -14 q 189 87 289 -14 q 90 366 90 188 q 182 652 90 547 q 428 758 274 758 q 658 666 572 758 q 744 423 744 575 l 744 346 m 220 449 l 616 449 q 428 655 616 655 q 220 449 238 655 "},"ό":{"x_min":78,"x_max":755,"ha":834,"o":"m 414 -14 q 172 91 267 -14 q 78 373 78 196 q 170 654 78 551 q 418 758 262 758 q 660 652 566 758 q 755 373 755 547 q 661 89 755 193 q 414 -14 568 -14 m 416 88 q 627 373 627 88 q 415 655 627 655 q 205 373 205 655 q 416 88 205 88 m 375 860 l 397 932 q 426 1064 419 1009 l 557 1064 l 557 1049 q 523 968 557 1038 q 448 842 490 898 l 375 842 l 375 860 "},"Ĕ":{"x_min":147,"x_max":719,"ha":834,"o":"m 719 0 l 147 0 l 147 992 l 719 992 l 719 880 l 273 880 l 273 574 l 693 574 l 693 462 l 273 462 l 273 111 l 719 111 l 719 0 m 641 1259 q 580 1121 634 1172 q 434 1071 526 1071 q 233 1259 244 1071 l 307 1259 q 339 1189 312 1206 q 436 1172 366 1172 q 566 1259 559 1172 l 641 1259 "},"ļ":{"x_min":127.6875,"x_max":723.171875,"ha":834,"o":"m 361 958 l 179 972 l 179 1055 l 484 1055 l 484 96 l 723 83 l 723 0 l 127 0 l 127 83 l 361 96 l 361 958 m 313 -288 q 370 -85 355 -193 l 491 -85 l 491 -98 q 458 -182 491 -113 q 380 -307 425 -251 l 313 -307 l 313 -288 "}," ":{"x_min":0,"x_max":0,"ha":834},"Ѓ":{"x_min":158,"x_max":719,"ha":834,"o":"m 719 992 l 719 880 l 284 880 l 284 0 l 158 0 l 158 992 l 719 992 m 345 1089 q 463 1293 409 1179 l 612 1293 l 612 1278 q 427 1071 535 1161 l 345 1071 l 345 1089 "},"ò":{"x_min":78,"x_max":755,"ha":834,"o":"m 414 -14 q 172 91 267 -14 q 78 373 78 196 q 170 654 78 551 q 418 758 262 758 q 660 652 566 758 q 755 373 755 547 q 661 89 755 193 q 414 -14 568 -14 m 416 88 q 627 373 627 88 q 415 655 627 655 q 205 373 205 655 q 416 88 205 88 m 524 842 l 441 842 q 257 1049 329 938 l 257 1064 l 405 1064 q 524 860 464 943 l 524 842 "},"ﬄ":{"x_min":45.1875,"x_max":723.234375,"ha":834,"o":"m 570 660 l 474 660 l 474 0 l 364 0 l 364 660 l 224 660 l 224 0 l 113 0 l 113 660 l 45 660 l 45 703 l 113 745 l 113 800 q 126 920 113 872 q 166 996 140 968 q 230 1036 192 1025 q 317 1048 268 1048 q 380 1041 350 1048 q 433 1025 410 1033 q 493 1053 458 1044 q 570 1063 528 1063 q 634 1055 603 1063 l 723 1055 l 723 0 l 612 0 l 612 961 q 592 965 602 963 q 573 966 582 966 q 529 958 547 966 q 498 933 510 951 q 480 887 486 916 q 474 814 474 857 l 474 745 l 570 745 l 570 660 m 224 745 l 364 745 l 364 813 q 380 943 364 890 q 351 949 366 947 q 320 952 335 952 q 278 945 296 952 q 248 920 260 937 q 230 873 236 902 q 224 801 224 844 l 224 745 "},"^":{"x_min":75,"x_max":759,"ha":834,"o":"m 75 372 l 363 999 l 432 999 l 759 372 l 649 372 l 399 870 l 182 372 l 75 372 "},"ⁿ":{"x_min":215,"x_max":618,"ha":834,"o":"m 516 541 l 516 820 q 431 921 516 921 q 340 885 364 921 q 316 769 316 849 l 316 541 l 215 541 l 215 992 l 300 992 l 312 920 l 318 920 q 457 1003 364 1003 q 575 958 532 1003 q 618 833 618 914 l 618 541 l 516 541 "},"к":{"x_min":146,"x_max":797,"ha":834,"o":"m 620 745 l 771 745 l 413 387 l 797 0 l 639 0 l 269 377 l 269 0 l 146 0 l 146 745 l 269 745 l 269 383 l 620 745 "},"￼":{"x_min":37,"x_max":796,"ha":834,"o":"m 456 734 q 447 668 456 697 q 421 616 439 638 q 377 582 403 594 q 314 571 350 571 q 250 582 277 571 q 206 616 223 594 q 180 668 188 638 q 172 734 172 697 q 180 802 172 772 q 206 853 188 832 q 250 887 223 875 q 314 899 277 899 q 377 887 350 899 q 421 853 403 875 q 447 802 439 832 q 456 734 456 772 m 363 539 l 456 539 q 545 521 515 539 q 575 458 575 503 q 562 413 575 431 q 526 390 550 395 l 526 387 q 549 380 538 385 q 567 367 559 375 q 580 346 575 359 q 585 314 585 333 q 555 245 585 269 q 475 221 525 221 l 363 221 l 363 539 m 514 185 l 694 185 l 694 132 l 645 132 l 645 -31 q 615 -111 645 -85 q 539 -137 586 -137 q 503 -135 518 -137 q 481 -131 489 -133 l 481 -75 q 502 -78 489 -77 q 531 -80 515 -80 q 564 -70 551 -80 q 578 -32 578 -60 l 578 132 l 514 132 l 514 185 m 239 734 q 257 656 239 684 q 314 627 275 627 q 370 656 352 627 q 387 734 387 684 q 370 813 387 785 q 314 842 352 842 q 257 813 275 842 q 239 734 239 785 m 37 823 l 37 1030 l 242 1030 l 242 954 l 112 954 l 112 823 l 37 823 m 37 -260 l 37 -54 l 112 -54 l 112 -186 l 242 -186 l 242 -260 l 37 -260 m 589 954 l 589 1030 l 796 1030 l 796 823 l 722 823 l 722 954 l 589 954 m 589 -260 l 589 -186 l 722 -186 l 722 -54 l 796 -54 l 796 -260 l 589 -260 m 112 291 l 37 291 l 37 476 l 112 476 l 112 291 m 324 954 l 324 1030 l 508 1030 l 508 954 l 324 954 m 112 26 l 37 26 l 37 210 l 112 210 l 112 26 m 112 558 l 37 558 l 37 742 l 112 742 l 112 558 m 796 291 l 722 291 l 722 476 l 796 476 l 796 291 m 796 26 l 722 26 l 722 210 l 796 210 l 796 26 m 796 558 l 722 558 l 722 742 l 796 742 l 796 558 m 324 -260 l 324 -186 l 508 -186 l 508 -260 l 324 -260 m 429 359 l 429 276 l 469 276 q 505 288 495 276 q 515 320 515 299 q 505 348 515 337 q 466 359 495 359 l 429 359 m 429 414 l 464 414 q 499 423 489 414 q 509 449 509 432 q 497 475 509 467 q 461 483 486 483 l 429 483 l 429 414 "},"ū":{"x_min":109,"x_max":725,"ha":834,"o":"m 625 0 l 607 99 l 600 99 q 373 -14 529 -14 q 109 258 109 -14 l 109 745 l 232 745 l 232 264 q 392 88 232 88 q 551 151 501 88 q 601 357 601 214 l 601 745 l 725 745 l 725 0 l 625 0 m 222 943 l 613 943 l 613 842 l 222 842 l 222 943 "},"ˆ":{"x_min":192,"x_max":642,"ha":834,"o":"m 642 842 l 559 842 q 416 967 502 879 q 273 842 326 875 l 192 842 l 192 860 q 232 905 208 879 q 351 1064 326 1010 l 482 1064 q 601 905 507 1010 l 642 860 l 642 842 "},"Ẅ":{"x_min":1,"x_max":833,"ha":834,"o":"m 358 684 l 478 684 l 577 330 q 626 122 618 181 q 670 542 627 158 l 717 992 l 833 992 l 706 0 l 577 0 l 462 393 q 418 584 435 487 q 373 392 396 467 l 267 0 l 139 0 l 1 992 l 116 992 l 176 542 q 203 285 191 422 q 215 122 215 148 q 262 333 231 224 l 358 684 m 292 1244 q 357 1174 357 1244 q 292 1105 357 1105 q 227 1174 227 1105 q 292 1244 227 1244 m 546 1244 q 612 1174 612 1244 q 546 1105 612 1105 q 481 1174 481 1105 q 546 1244 481 1244 "},"č":{"x_min":117,"x_max":720,"ha":834,"o":"m 720 717 l 677 610 q 496 650 576 650 q 244 369 244 650 q 489 93 244 93 q 707 135 595 93 l 707 27 q 483 -14 616 -14 q 213 84 309 -14 q 117 367 117 183 q 215 658 117 558 q 492 758 313 758 q 720 717 612 758 m 705 1045 q 664 1000 688 1026 q 545 842 569 893 l 414 842 q 295 1000 390 893 l 255 1045 l 255 1064 l 336 1064 q 479 937 392 1027 q 622 1064 562 1024 l 705 1064 l 705 1045 "},"’":{"x_min":303,"x_max":530,"ha":834,"o":"m 520 992 l 530 977 q 410 652 492 832 l 303 652 q 369 992 345 832 l 520 992 "},"Ν":{"x_min":92,"x_max":741,"ha":834,"o":"m 741 0 l 596 0 l 201 821 l 196 821 q 208 538 208 633 l 208 0 l 92 0 l 92 992 l 236 992 l 629 174 l 633 174 q 624 449 624 380 l 624 992 l 741 992 l 741 0 "},"-":{"x_min":193,"x_max":641,"ha":834,"o":"m 193 315 l 193 429 l 641 429 l 641 315 l 193 315 "},"Q":{"x_min":57,"x_max":778,"ha":834,"o":"m 584 26 q 774 -184 642 -95 l 691 -281 q 469 -9 531 -165 q 417 -14 444 -14 q 57 498 57 -14 q 419 1007 57 1007 q 685 874 592 1007 q 778 496 778 741 q 584 26 778 139 m 417 97 q 589 195 535 97 q 644 497 644 293 q 589 799 644 702 q 419 895 533 895 q 190 497 190 895 q 417 97 190 97 "},"ј":{"x_min":92,"x_max":580,"ha":834,"o":"m 504 1051 q 577 973 577 1051 q 504 896 577 896 q 432 973 432 896 q 504 1051 432 1051 m 92 -310 l 92 -205 q 288 -231 182 -231 q 412 -192 367 -231 q 456 -85 456 -154 l 456 648 l 171 662 l 171 745 l 580 745 l 580 -79 q 503 -267 580 -201 q 286 -334 426 -334 q 92 -310 175 -334 "},"ě":{"x_min":90,"x_max":744,"ha":834,"o":"m 744 346 l 217 346 q 451 93 222 93 q 703 145 584 93 l 703 36 q 456 -14 590 -14 q 189 87 289 -14 q 90 366 90 188 q 182 652 90 547 q 428 758 274 758 q 658 666 572 758 q 744 423 744 575 l 744 346 m 220 449 l 616 449 q 428 655 616 655 q 220 449 238 655 m 659 1045 q 618 1000 642 1026 q 499 842 523 893 l 368 842 q 249 1000 344 893 l 209 1045 l 209 1064 l 290 1064 q 433 937 346 1027 q 576 1064 516 1024 l 659 1064 l 659 1045 "},"œ":{"x_min":39,"x_max":797,"ha":834,"o":"m 445 135 q 263 -14 385 -14 q 101 90 163 -14 q 39 373 39 194 q 99 656 39 555 q 264 758 159 758 q 442 610 381 758 q 605 758 499 758 q 745 667 693 758 q 797 423 797 576 l 797 346 l 506 346 q 631 93 508 93 q 765 145 702 93 l 765 35 q 620 -14 702 -14 q 513 26 561 -14 q 445 135 465 66 m 273 88 q 383 366 383 88 q 272 655 383 655 q 187 585 213 655 q 162 373 162 515 q 188 159 162 230 q 273 88 213 88 m 676 449 q 596 655 676 655 q 507 449 515 655 l 676 449 "},"#":{"x_min":31,"x_max":803,"ha":834,"o":"m 635 606 l 592 383 l 754 383 l 754 290 l 574 290 l 519 0 l 418 0 l 475 290 l 276 290 l 219 0 l 125 0 l 177 290 l 31 290 l 31 383 l 195 383 l 239 606 l 83 606 l 83 699 l 256 699 l 311 992 l 413 992 l 357 699 l 557 699 l 615 992 l 710 992 l 653 699 l 803 699 l 803 606 l 635 606 m 294 383 l 494 383 l 538 606 l 339 606 l 294 383 "},"Џ":{"x_min":92,"x_max":742,"ha":834,"o":"m 742 0 l 482 0 l 482 -261 l 356 -261 l 356 0 l 92 0 l 92 992 l 218 992 l 218 111 l 615 111 l 615 992 l 742 992 l 742 0 "},"Å":{"x_min":22,"x_max":812,"ha":834,"o":"m 681 0 l 583 307 l 250 307 l 150 0 l 22 0 l 350 996 l 482 996 l 812 0 l 681 0 m 547 419 l 457 706 q 415 860 431 791 q 384 736 401 793 l 286 419 l 547 419 m 414 927 q 304 966 345 927 q 263 1073 263 1005 q 304 1179 263 1140 q 414 1219 345 1219 q 526 1178 482 1219 q 570 1074 570 1138 q 526 967 570 1007 q 414 927 483 927 m 416 1149 q 359 1129 381 1149 q 337 1073 337 1109 q 416 996 337 996 q 473 1016 451 996 q 495 1073 495 1036 q 473 1129 495 1109 q 416 1149 451 1149 "},"ș":{"x_min":138,"x_max":696,"ha":834,"o":"m 138 32 l 138 145 q 388 88 268 88 q 575 196 575 88 q 542 264 575 235 q 388 336 508 292 q 190 444 231 395 q 149 560 149 493 q 224 705 149 652 q 433 758 300 758 q 684 707 568 758 l 643 606 q 428 655 520 655 q 269 565 269 655 q 303 499 269 523 q 460 430 337 474 q 649 327 602 378 q 696 203 696 277 q 616 44 696 102 q 392 -14 537 -14 q 138 32 224 -14 m 309 -288 q 366 -85 351 -193 l 487 -85 l 487 -98 q 454 -182 487 -113 q 376 -307 421 -251 l 309 -307 l 309 -288 "},"¸":{"x_min":291,"x_max":544,"ha":834,"o":"m 291 -327 l 291 -254 q 344 -258 313 -258 q 446 -196 446 -258 q 330 -119 446 -146 l 392 0 l 472 0 l 434 -78 q 544 -194 544 -103 q 346 -334 544 -334 q 291 -327 323 -334 "},"=":{"x_min":103,"x_max":730,"ha":834,"o":"m 103 577 l 103 679 l 730 679 l 730 577 l 103 577 m 103 300 l 103 401 l 730 401 l 730 300 l 103 300 "},"ρ":{"x_min":107,"x_max":735,"ha":834,"o":"m 230 47 l 226 47 q 230 -136 230 -70 l 230 -334 l 107 -334 l 107 373 q 192 654 107 551 q 426 758 278 758 q 650 653 566 758 q 735 373 735 549 q 651 88 735 190 q 421 -14 567 -14 q 230 47 307 -14 m 230 156 q 422 88 306 88 q 564 159 520 88 q 607 373 607 231 q 563 585 607 515 q 421 655 519 655 q 230 386 230 655 l 230 156 "},"Ћ":{"x_min":16,"x_max":791,"ha":834,"o":"m 345 609 l 524 609 q 721 543 651 609 q 791 357 791 477 l 791 0 l 664 0 l 664 340 q 510 497 664 497 l 345 497 l 345 0 l 219 0 l 219 880 l 16 880 l 16 992 l 587 992 l 587 880 l 345 880 l 345 609 "},"ú":{"x_min":109,"x_max":725,"ha":834,"o":"m 625 0 l 607 99 l 600 99 q 373 -14 529 -14 q 109 258 109 -14 l 109 745 l 232 745 l 232 264 q 392 88 232 88 q 551 151 501 88 q 601 357 601 214 l 601 745 l 725 745 l 725 0 l 625 0 m 339 860 q 457 1064 403 950 l 606 1064 l 606 1049 q 421 842 529 932 l 339 842 l 339 860 "},"˚":{"x_min":263,"x_max":570,"ha":834,"o":"m 414 842 q 304 881 345 842 q 263 988 263 920 q 304 1094 263 1055 q 414 1134 345 1134 q 526 1093 482 1134 q 570 989 570 1053 q 526 882 570 922 q 414 842 483 842 m 416 1064 q 359 1044 381 1064 q 337 988 337 1024 q 416 911 337 911 q 473 931 451 911 q 495 988 495 951 q 473 1044 495 1024 q 416 1064 451 1064 "},"д":{"x_min":22,"x_max":765,"ha":834,"o":"m 765 -258 l 644 -258 l 644 0 l 145 0 l 145 -258 l 22 -258 l 22 102 l 80 102 q 261 745 258 367 l 663 745 l 663 102 l 765 102 l 765 -258 m 539 102 l 539 648 l 369 648 q 210 102 345 321 l 539 102 "},"¯":{"x_min":-14,"x_max":847,"ha":834,"o":"m 847 1055 l -14 1055 l -14 1149 l 847 1149 l 847 1055 "},"u":{"x_min":109,"x_max":725,"ha":834,"o":"m 625 0 l 607 99 l 600 99 q 373 -14 529 -14 q 109 258 109 -14 l 109 745 l 232 745 l 232 264 q 392 88 232 88 q 551 151 501 88 q 601 357 601 214 l 601 745 l 725 745 l 725 0 l 625 0 "},"З":{"x_min":94,"x_max":727,"ha":834,"o":"m 476 521 l 476 517 q 662 440 597 501 q 727 281 727 378 q 630 64 727 143 q 356 -14 534 -14 q 94 39 192 -14 l 94 154 q 353 93 218 93 q 593 281 593 93 q 326 457 593 457 l 198 457 l 198 565 l 317 565 q 507 614 439 565 q 575 747 575 664 q 528 857 575 816 q 400 898 480 898 q 161 819 274 898 l 98 904 q 407 1006 229 1006 q 629 938 549 1006 q 709 759 709 871 q 648 602 709 666 q 476 521 587 539 "},"Α":{"x_min":22,"x_max":812,"ha":834,"o":"m 681 0 l 583 307 l 250 307 l 150 0 l 22 0 l 350 996 l 482 996 l 812 0 l 681 0 m 547 419 l 457 706 q 415 860 431 791 q 384 736 401 793 l 286 419 l 547 419 "},"⅝":{"x_min":16,"x_max":832,"ha":834,"o":"m 16 478 l 16 566 q 149 524 81 524 q 253 624 253 524 q 146 723 253 723 q 66 708 113 723 l 27 735 l 48 992 l 317 992 l 317 914 l 121 914 l 110 787 q 175 792 134 792 q 305 747 255 792 q 355 629 355 703 q 304 494 355 542 q 154 446 253 446 q 16 478 70 446 m 705 992 l 210 0 l 103 0 l 597 992 l 705 992 m 720 287 q 832 147 832 230 q 780 35 832 77 q 644 -7 728 -7 q 502 33 552 -7 q 453 143 453 73 q 546 281 453 231 q 470 412 470 335 q 518 511 470 474 q 643 549 567 549 q 766 512 718 549 q 814 412 814 475 q 720 287 814 334 m 645 321 q 712 413 712 355 q 641 480 712 480 q 571 413 571 480 q 645 321 571 357 m 630 247 q 554 142 554 203 q 641 61 554 61 q 730 142 730 61 q 639 243 730 203 l 630 247 "},"é":{"x_min":90,"x_max":744,"ha":834,"o":"m 744 346 l 217 346 q 451 93 222 93 q 703 145 584 93 l 703 36 q 456 -14 590 -14 q 189 87 289 -14 q 90 366 90 188 q 182 652 90 547 q 428 758 274 758 q 658 666 572 758 q 744 423 744 575 l 744 346 m 220 449 l 616 449 q 428 655 616 655 q 220 449 238 655 m 339 860 q 457 1064 403 950 l 606 1064 l 606 1049 q 421 842 529 932 l 339 842 l 339 860 "},"Ş":{"x_min":96,"x_max":738,"ha":834,"o":"m 96 32 l 96 152 q 375 93 238 93 q 611 258 611 93 q 564 366 611 328 q 371 456 516 404 q 170 575 231 506 q 109 754 109 644 q 196 939 109 872 q 435 1006 283 1006 q 718 953 591 1006 l 674 841 q 432 894 544 894 q 235 752 235 894 q 279 641 235 683 q 461 551 323 599 q 682 428 626 491 q 738 264 738 364 q 644 60 738 134 q 376 -14 550 -14 q 96 32 197 -14 m 277 -327 l 277 -254 q 330 -258 299 -258 q 432 -196 432 -258 q 316 -119 432 -146 l 378 0 l 458 0 l 420 -78 q 530 -194 530 -103 q 332 -334 530 -334 q 277 -327 309 -334 "},"B":{"x_min":92,"x_max":772,"ha":834,"o":"m 92 992 l 390 992 q 660 932 576 992 q 744 740 744 873 q 690 596 744 653 q 546 526 637 538 l 546 519 q 772 287 772 482 q 685 76 772 153 q 449 0 598 0 l 92 0 l 92 992 m 218 572 l 409 572 q 562 609 514 572 q 610 732 610 646 q 558 848 610 813 q 395 884 507 884 l 218 884 l 218 572 m 218 464 l 218 107 l 426 107 q 638 292 638 107 q 418 464 638 464 l 218 464 "},"…":{"x_min":53,"x_max":780.265625,"ha":834,"o":"m 139 168 q 225 74 225 168 q 139 -20 225 -20 q 53 74 53 -20 q 139 168 53 168 m 416 168 q 502 74 502 168 q 416 -20 502 -20 q 330 74 330 -20 q 416 168 330 168 m 694 168 q 780 74 780 168 q 694 -20 780 -20 q 608 74 608 -20 q 694 168 608 168 "},"H":{"x_min":92,"x_max":742,"ha":834,"o":"m 742 0 l 615 0 l 615 462 l 218 462 l 218 0 l 92 0 l 92 992 l 218 992 l 218 574 l 615 574 l 615 992 l 742 992 l 742 0 "},"î":{"x_min":133.6875,"x_max":729.171875,"ha":834,"o":"m 367 648 l 184 662 l 184 745 l 490 745 l 490 96 l 729 83 l 729 0 l 133 0 l 133 83 l 367 96 l 367 648 m 642 842 l 559 842 q 416 967 502 879 q 273 842 326 875 l 192 842 l 192 860 q 232 905 208 879 q 351 1064 326 1010 l 482 1064 q 601 905 507 1010 l 642 860 l 642 842 "},"ν":{"x_min":40.75,"x_max":745,"ha":834,"o":"m 40 745 l 168 745 l 320 347 q 402 104 395 151 l 406 104 q 567 354 513 215 q 621 745 621 493 l 745 745 q 676 331 745 497 q 455 0 608 164 l 328 0 l 40 745 "},"Ό":{"x_min":-89,"x_max":778,"ha":834,"o":"m 417 -14 q 57 498 57 -14 q 419 1007 57 1007 q 685 874 592 1007 q 778 496 778 741 q 684 118 778 251 q 417 -14 590 -14 m 417 97 q 589 195 535 97 q 644 497 644 293 q 589 799 644 702 q 419 895 533 895 q 190 497 190 895 q 417 97 190 97 m -89 789 l -66 861 q -37 993 -44 938 l 93 993 l 93 978 q 59 897 93 967 q -15 771 26 827 l -89 771 l -89 789 "},"−":{"x_min":103,"x_max":730,"ha":834,"o":"m 103 439 l 103 541 l 730 541 l 730 439 l 103 439 "},"⅜":{"x_min":8,"x_max":832,"ha":834,"o":"m 230 738 q 350 611 350 711 q 299 487 350 531 q 153 444 248 444 q 8 477 65 444 l 8 562 q 146 522 83 522 q 248 614 248 522 q 147 699 248 699 l 98 699 l 98 768 l 145 768 q 230 851 230 768 q 164 924 230 924 q 54 880 115 924 l 9 938 q 170 1002 84 1002 q 288 965 244 1002 q 332 865 332 928 q 230 738 332 771 m 705 992 l 210 0 l 103 0 l 597 992 l 705 992 m 720 287 q 832 147 832 230 q 780 35 832 77 q 644 -7 728 -7 q 502 33 552 -7 q 453 143 453 73 q 546 281 453 231 q 470 412 470 335 q 518 511 470 474 q 643 549 567 549 q 766 512 718 549 q 814 412 814 475 q 720 287 814 334 m 645 321 q 712 413 712 355 q 641 480 712 480 q 571 413 571 480 q 645 321 571 357 m 630 247 q 554 142 554 203 q 641 61 554 61 q 730 142 730 61 q 639 243 730 203 l 630 247 "},"ǰ":{"x_min":92,"x_max":637,"ha":834,"o":"m 92 -310 l 92 -205 q 288 -231 182 -231 q 412 -192 367 -231 q 456 -85 456 -154 l 456 648 l 171 662 l 171 745 l 580 745 l 580 -79 q 503 -267 580 -201 q 286 -334 426 -334 q 92 -310 175 -334 m 637 1045 q 596 1000 620 1026 q 477 842 501 893 l 346 842 q 227 1000 322 893 l 187 1045 l 187 1064 l 268 1064 q 411 937 324 1027 q 554 1064 494 1024 l 637 1064 l 637 1045 "},"ā":{"x_min":92,"x_max":696,"ha":834,"o":"m 606 0 l 580 99 l 575 99 q 468 10 523 35 q 327 -14 413 -14 q 154 44 217 -14 q 92 207 92 102 q 436 442 92 431 l 573 447 l 573 494 q 409 655 573 655 q 187 599 309 655 l 144 692 q 404 758 277 758 q 627 699 558 758 q 696 509 696 640 l 696 0 l 606 0 m 572 362 l 462 357 q 274 315 330 352 q 219 204 219 279 q 354 82 219 82 q 513 138 454 82 q 572 294 572 194 l 572 362 m 215 943 l 606 943 l 606 842 l 215 842 l 215 943 "},"ĵ":{"x_min":92,"x_max":656,"ha":834,"o":"m 656 842 l 573 842 q 430 967 516 879 q 287 842 340 875 l 206 842 l 206 860 q 246 905 222 879 q 365 1064 340 1010 l 496 1064 q 615 905 521 1010 l 656 860 l 656 842 m 92 -310 l 92 -205 q 288 -231 182 -231 q 412 -192 367 -231 q 456 -85 456 -154 l 456 648 l 171 662 l 171 745 l 580 745 l 580 -79 q 503 -267 580 -201 q 286 -334 426 -334 q 92 -310 175 -334 "},"Ĩ":{"x_min":152.921875,"x_max":678.5625,"ha":834,"o":"m 678 0 l 152 0 l 152 83 l 353 96 l 353 895 l 152 908 l 152 992 l 678 992 l 678 908 l 479 895 l 479 96 l 678 83 l 678 0 m 243 1070 l 172 1070 q 315 1250 188 1250 q 424 1211 354 1250 q 516 1173 493 1173 q 588 1251 571 1173 l 660 1251 q 517 1072 641 1072 q 410 1110 478 1072 q 315 1148 342 1148 q 243 1070 260 1148 "},"*":{"x_min":90.34375,"x_max":743.46875,"ha":834,"o":"m 485 1055 l 455 788 l 725 863 l 743 733 l 486 714 l 653 493 l 531 428 l 412 670 l 306 428 l 180 493 l 344 714 l 90 733 l 110 863 l 375 788 l 346 1055 l 485 1055 "},"à":{"x_min":92,"x_max":696,"ha":834,"o":"m 606 0 l 580 99 l 575 99 q 468 10 523 35 q 327 -14 413 -14 q 154 44 217 -14 q 92 207 92 102 q 436 442 92 431 l 573 447 l 573 494 q 409 655 573 655 q 187 599 309 655 l 144 692 q 404 758 277 758 q 627 699 558 758 q 696 509 696 640 l 696 0 l 606 0 m 572 362 l 462 357 q 274 315 330 352 q 219 204 219 279 q 354 82 219 82 q 513 138 454 82 q 572 294 572 194 l 572 362 m 613 1030 q 552 892 606 943 q 406 842 498 842 q 205 1030 216 842 l 279 1030 q 311 960 284 977 q 408 943 338 943 q 538 1030 531 943 l 613 1030 "},"Χ":{"x_min":36,"x_max":797,"ha":834,"o":"m 797 0 l 653 0 l 412 430 l 164 0 l 36 0 l 343 518 l 57 992 l 191 992 l 416 612 l 643 992 l 773 992 l 486 522 l 797 0 "},"†":{"x_min":163.375,"x_max":671.359375,"ha":834,"o":"m 671 670 l 446 691 l 484 0 l 337 0 l 374 691 l 163 670 l 163 793 l 374 772 l 337 1055 l 484 1055 l 446 772 l 671 793 l 671 670 "},"°":{"x_min":203,"x_max":631,"ha":834,"o":"m 416 1006 q 567 942 504 1006 q 631 791 631 879 q 567 641 631 703 q 416 579 504 579 q 265 641 327 579 q 203 791 203 704 q 265 942 203 879 q 416 1006 328 1006 m 416 661 q 500 699 465 661 q 536 790 536 737 q 500 884 536 845 q 416 923 464 923 q 332 884 367 923 q 297 790 297 845 q 332 699 297 737 q 416 661 367 661 "},"Ξ":{"x_min":75,"x_max":757,"ha":834,"o":"m 103 992 l 729 992 l 729 880 l 103 880 l 103 992 m 158 574 l 674 574 l 674 462 l 158 462 l 158 574 m 757 111 l 757 0 l 75 0 l 75 111 l 757 111 "},"Ķ":{"x_min":143,"x_max":813.25,"ha":834,"o":"m 813 0 l 669 0 l 364 473 l 269 396 l 269 0 l 143 0 l 143 992 l 269 992 l 269 496 l 351 609 l 659 992 l 801 992 l 447 559 l 813 0 m 347 -288 q 404 -85 389 -193 l 525 -85 l 525 -98 q 492 -182 525 -113 q 414 -307 459 -251 l 347 -307 l 347 -288 "},"ŵ":{"x_min":-3,"x_max":836,"ha":834,"o":"m 551 0 l 462 404 l 416 628 l 411 628 l 367 401 l 276 0 l 148 0 l -3 745 l 106 745 l 173 376 q 212 109 196 250 l 216 109 q 262 352 237 235 l 352 745 l 483 745 l 569 352 q 614 109 598 220 l 619 109 q 659 376 640 274 l 728 745 l 836 745 l 683 0 l 551 0 m 640 842 l 557 842 q 414 967 500 879 q 271 842 324 875 l 190 842 l 190 860 q 230 905 206 879 q 349 1064 324 1010 l 480 1064 q 599 905 505 1010 l 640 860 l 640 842 "},"΄":{"x_min":326,"x_max":508,"ha":834,"o":"m 326 860 l 348 932 q 377 1064 370 1009 l 508 1064 l 508 1049 q 474 968 508 1038 q 399 842 441 898 l 326 842 l 326 860 "},"ǽ":{"x_min":31,"x_max":805,"ha":834,"o":"m 354 450 l 354 496 q 260 655 354 655 q 117 599 187 655 l 78 692 q 268 758 168 758 q 437 637 398 758 q 598 758 490 758 q 747 665 690 758 q 805 424 805 573 l 805 347 l 476 347 q 520 157 478 219 q 632 96 563 96 q 786 145 705 96 l 786 35 q 624 -14 714 -14 q 412 144 475 -14 q 206 -14 340 -14 q 79 44 127 -14 q 31 208 31 103 q 253 445 31 434 l 354 450 m 479 450 l 684 450 q 657 600 684 545 q 585 655 631 655 q 512 603 541 655 q 479 450 483 550 m 353 363 l 295 358 q 154 207 154 347 q 175 120 154 152 q 231 88 196 88 q 319 143 285 88 q 353 296 353 198 l 353 363 m 361 860 q 479 1064 425 950 l 628 1064 l 628 1049 q 443 842 551 932 l 361 842 l 361 860 "},"Β":{"x_min":92,"x_max":772,"ha":834,"o":"m 92 992 l 390 992 q 660 932 576 992 q 744 740 744 873 q 690 596 744 653 q 546 526 637 538 l 546 519 q 772 287 772 482 q 685 76 772 153 q 449 0 598 0 l 92 0 l 92 992 m 218 572 l 409 572 q 562 609 514 572 q 610 732 610 646 q 558 848 610 813 q 395 884 507 884 l 218 884 l 218 572 m 218 464 l 218 107 l 426 107 q 638 292 638 107 q 418 464 638 464 l 218 464 "},"Ļ":{"x_min":158,"x_max":716,"ha":834,"o":"m 158 0 l 158 992 l 284 992 l 284 111 l 716 111 l 716 0 l 158 0 m 333 -288 q 390 -85 375 -193 l 511 -85 l 511 -98 q 478 -182 511 -113 q 400 -307 445 -251 l 333 -307 l 333 -288 "},"Õ":{"x_min":57,"x_max":778,"ha":834,"o":"m 417 -14 q 57 498 57 -14 q 419 1007 57 1007 q 685 874 592 1007 q 778 496 778 741 q 684 118 778 251 q 417 -14 590 -14 m 417 97 q 589 195 535 97 q 644 497 644 293 q 589 799 644 702 q 419 895 533 895 q 190 497 190 895 q 417 97 190 97 m 249 1070 l 178 1070 q 321 1250 194 1250 q 430 1211 360 1250 q 522 1173 499 1173 q 594 1251 577 1173 l 666 1251 q 523 1072 647 1072 q 416 1110 484 1072 q 321 1148 348 1148 q 249 1070 266 1148 "},"№":{"x_min":17,"x_max":820,"ha":834,"o":"m 441 0 l 322 0 l 101 793 l 94 793 q 107 510 107 621 l 107 0 l 17 0 l 17 992 l 135 992 l 355 202 l 359 202 q 350 476 350 408 l 350 992 l 441 992 l 441 0 m 647 183 q 524 246 570 183 q 479 420 479 310 q 650 656 479 656 q 773 593 727 656 q 820 420 820 531 q 775 244 820 306 q 647 183 730 183 m 649 264 q 711 303 694 264 q 729 421 729 343 q 711 537 729 499 q 649 574 694 574 q 587 536 604 574 q 569 421 569 498 q 587 304 569 344 q 649 264 604 264 m 506 0 l 506 96 l 787 96 l 787 0 l 506 0 "},"χ":{"x_min":29,"x_max":791,"ha":834,"o":"m 432 342 l 644 745 l 765 745 l 480 218 l 607 -94 q 665 -201 638 -171 q 736 -231 693 -231 q 791 -226 766 -231 l 791 -321 q 710 -334 746 -334 q 595 -303 641 -334 q 501 -153 549 -273 l 402 102 l 161 -334 l 29 -334 l 351 229 l 229 530 q 125 644 183 644 q 83 638 106 644 l 83 735 q 170 747 119 747 q 263 710 225 747 q 337 578 300 673 l 432 342 "},"ί":{"x_min":290,"x_max":690,"ha":834,"o":"m 413 745 l 413 220 q 544 88 413 88 q 690 101 621 88 l 690 7 q 536 -14 626 -14 q 290 219 290 -14 l 290 745 l 413 745 m 319 860 l 341 932 q 370 1064 363 1009 l 501 1064 l 501 1049 q 467 968 501 1038 q 392 842 434 898 l 319 842 l 319 860 "},"Ζ":{"x_min":69,"x_max":763,"ha":834,"o":"m 763 0 l 69 0 l 69 97 l 607 880 l 83 880 l 83 992 l 749 992 l 749 895 l 210 111 l 763 111 l 763 0 "},"Ľ":{"x_min":158,"x_max":716,"ha":834,"o":"m 158 0 l 158 992 l 284 992 l 284 111 l 716 111 l 716 0 l 158 0 m 509 787 l 526 860 q 550 992 544 939 l 672 992 l 672 978 q 643 901 672 968 q 573 770 615 834 l 509 770 l 509 787 "},"ť":{"x_min":95,"x_max":706,"ha":834,"o":"m 692 101 l 692 7 q 521 -14 603 -14 q 276 218 276 -14 l 276 648 l 95 648 l 95 715 l 276 749 l 328 943 l 399 943 l 399 745 l 696 745 l 696 648 l 399 648 l 399 219 q 529 88 399 88 q 692 101 592 88 m 543 850 l 560 923 q 584 1055 578 1002 l 706 1055 l 706 1041 q 677 964 706 1031 q 607 833 649 897 l 543 833 l 543 850 "},"5":{"x_min":117,"x_max":716,"ha":834,"o":"m 117 39 l 117 156 q 361 91 214 91 q 590 303 590 91 q 356 502 590 502 q 199 485 295 502 l 138 524 l 175 992 l 643 992 l 643 879 l 282 879 l 256 594 q 397 608 328 608 q 628 530 540 608 q 716 317 716 452 q 622 72 716 158 q 358 -14 528 -14 q 117 39 206 -14 "},"o":{"x_min":78,"x_max":755,"ha":834,"o":"m 414 -14 q 172 91 267 -14 q 78 373 78 196 q 170 654 78 551 q 418 758 262 758 q 660 652 566 758 q 755 373 755 547 q 661 89 755 193 q 414 -14 568 -14 m 416 88 q 627 373 627 88 q 415 655 627 655 q 205 373 205 655 q 416 88 205 88 "},"Ѕ":{"x_min":96,"x_max":738,"ha":834,"o":"m 96 32 l 96 152 q 375 93 238 93 q 611 258 611 93 q 564 366 611 328 q 371 456 516 404 q 170 575 231 506 q 109 754 109 644 q 196 939 109 872 q 435 1006 283 1006 q 718 953 591 1006 l 674 841 q 432 894 544 894 q 235 752 235 894 q 279 641 235 683 q 461 551 323 599 q 682 428 626 491 q 738 264 738 364 q 644 60 738 134 q 376 -14 550 -14 q 96 32 197 -14 "},"�":{"x_min":2.796875,"x_max":832.25,"ha":834,"o":"m 416 1055 l 832 419 l 416 -216 l 2 419 l 416 1055 m 453 261 l 453 290 q 455 317 453 305 q 464 340 458 328 q 483 362 471 351 q 514 389 495 374 q 556 431 538 412 q 585 472 574 451 q 603 517 597 493 q 610 572 610 541 q 558 702 610 656 q 415 749 506 749 q 367 744 391 749 q 318 731 342 739 q 273 711 295 722 q 232 687 251 700 l 276 579 q 348 614 314 600 q 413 628 383 628 q 466 610 449 628 q 483 563 483 592 q 480 532 483 546 q 468 506 476 518 q 447 481 460 494 q 415 453 434 469 q 379 416 394 434 q 355 381 365 399 q 342 342 346 362 q 338 298 338 322 l 338 261 l 453 261 m 324 94 q 346 30 324 50 q 402 11 368 11 q 430 15 416 11 q 455 30 444 20 q 472 56 466 40 q 479 94 479 72 q 472 133 479 117 q 455 159 466 149 q 430 173 444 169 q 402 177 416 177 q 346 158 368 177 q 324 94 324 139 "},"d":{"x_min":93,"x_max":727,"ha":834,"o":"m 608 99 l 603 99 q 384 -14 526 -14 q 170 87 248 -14 q 93 370 93 188 q 171 655 93 553 q 384 758 249 758 q 603 649 524 758 l 611 649 q 603 759 603 736 l 603 1055 l 727 1055 l 727 0 l 627 0 l 608 99 m 603 342 l 603 370 q 556 590 603 524 q 405 655 508 655 q 220 369 220 655 q 406 88 220 88 q 555 148 510 88 q 603 342 600 208 "},",":{"x_min":299,"x_max":534,"ha":834,"o":"m 523 178 l 534 161 q 402 -196 495 9 l 299 -196 q 373 178 349 23 l 523 178 "},"\"":{"x_min":193,"x_max":640.734375,"ha":834,"o":"m 353 992 l 325 634 l 220 634 l 193 992 l 353 992 m 640 992 l 612 634 l 507 634 l 480 992 l 640 992 "},"ľ":{"x_min":127.6875,"x_max":750,"ha":834,"o":"m 361 958 l 179 972 l 179 1055 l 484 1055 l 484 96 l 723 83 l 723 0 l 127 0 l 127 83 l 361 96 l 361 958 m 587 850 l 604 923 q 628 1055 622 1002 l 750 1055 l 750 1041 q 721 964 750 1031 q 651 833 693 897 l 587 833 l 587 850 "},"ė":{"x_min":90,"x_max":744,"ha":834,"o":"m 744 346 l 217 346 q 451 93 222 93 q 703 145 584 93 l 703 36 q 456 -14 590 -14 q 189 87 289 -14 q 90 366 90 188 q 182 652 90 547 q 428 758 274 758 q 658 666 572 758 q 744 423 744 575 l 744 346 m 220 449 l 616 449 q 428 655 616 655 q 220 449 238 655 m 439 1023 q 504 945 504 1023 q 439 868 504 868 q 374 945 374 868 q 439 1023 374 1023 "},"Í":{"x_min":152.921875,"x_max":678.5625,"ha":834,"o":"m 678 0 l 152 0 l 152 83 l 353 96 l 353 895 l 152 908 l 152 992 l 678 992 l 678 908 l 479 895 l 479 96 l 678 83 l 678 0 m 364 1089 q 482 1293 428 1179 l 631 1293 l 631 1278 q 446 1071 554 1161 l 364 1071 l 364 1089 "},"Ú":{"x_min":85,"x_max":749,"ha":834,"o":"m 749 993 l 749 349 q 663 79 749 173 q 412 -14 578 -14 q 85 352 85 -14 l 85 991 l 211 991 l 211 359 q 419 97 211 97 q 622 361 619 97 l 622 993 l 749 993 m 335 1089 q 453 1293 399 1179 l 602 1293 l 602 1278 q 417 1071 525 1161 l 335 1071 l 335 1089 "}," ":{"x_min":0,"x_max":0,"ha":834},"Ŷ":{"x_min":23,"x_max":809,"ha":834,"o":"m 415 490 l 672 992 l 809 992 l 479 386 l 479 0 l 353 0 l 353 379 l 23 992 l 160 992 l 415 490 m 641 1071 l 558 1071 q 415 1196 501 1108 q 272 1071 325 1104 l 191 1071 l 191 1089 q 231 1134 207 1108 q 350 1293 325 1239 l 481 1293 q 600 1134 506 1239 l 641 1089 l 641 1071 "},"Ý":{"x_min":23,"x_max":809,"ha":834,"o":"m 415 490 l 672 992 l 809 992 l 479 386 l 479 0 l 353 0 l 353 379 l 23 992 l 160 992 l 415 490 m 335 1089 q 453 1293 399 1179 l 602 1293 l 602 1278 q 417 1071 525 1161 l 335 1071 l 335 1089 "},"ŝ":{"x_min":138,"x_max":696,"ha":834,"o":"m 138 32 l 138 145 q 388 88 268 88 q 575 196 575 88 q 542 264 575 235 q 388 336 508 292 q 190 444 231 395 q 149 560 149 493 q 224 705 149 652 q 433 758 300 758 q 684 707 568 758 l 643 606 q 428 655 520 655 q 269 565 269 655 q 303 499 269 523 q 460 430 337 474 q 649 327 602 378 q 696 203 696 277 q 616 44 696 102 q 392 -14 537 -14 q 138 32 224 -14 m 658 842 l 575 842 q 432 967 518 879 q 289 842 342 875 l 208 842 l 208 860 q 248 905 224 879 q 367 1064 342 1010 l 498 1064 q 617 905 523 1010 l 658 860 l 658 842 "}," ":{"x_min":0,"x_max":0,"ha":834},"ą":{"x_min":92,"x_max":751,"ha":834,"o":"m 606 0 l 580 99 l 575 99 q 468 10 523 35 q 327 -14 413 -14 q 154 44 217 -14 q 92 207 92 102 q 436 442 92 431 l 573 447 l 573 494 q 409 655 573 655 q 187 599 309 655 l 144 692 q 404 758 277 758 q 627 699 558 758 q 696 509 696 640 l 696 0 l 606 0 m 572 362 l 462 357 q 274 315 330 352 q 219 204 219 279 q 354 82 219 82 q 513 138 454 82 q 572 294 572 194 l 572 362 m 751 -217 l 751 -293 q 645 -309 701 -309 q 521 -271 564 -309 q 479 -171 479 -234 q 603 0 479 -73 l 695 0 q 576 -162 576 -85 q 665 -227 576 -227 q 751 -217 711 -227 "},"​":{"x_min":0,"x_max":0,"ha":834},"ã":{"x_min":92,"x_max":696,"ha":834,"o":"m 606 0 l 580 99 l 575 99 q 468 10 523 35 q 327 -14 413 -14 q 154 44 217 -14 q 92 207 92 102 q 436 442 92 431 l 573 447 l 573 494 q 409 655 573 655 q 187 599 309 655 l 144 692 q 404 758 277 758 q 627 699 558 758 q 696 509 696 640 l 696 0 l 606 0 m 572 362 l 462 357 q 274 315 330 352 q 219 204 219 279 q 354 82 219 82 q 513 138 454 82 q 572 294 572 194 l 572 362 m 250 841 l 179 841 q 322 1021 195 1021 q 431 982 361 1021 q 523 944 500 944 q 595 1022 578 944 l 667 1022 q 524 843 648 843 q 417 881 485 843 q 322 919 349 919 q 250 841 267 919 "},"æ":{"x_min":31,"x_max":805,"ha":834,"o":"m 354 450 l 354 496 q 260 655 354 655 q 117 599 187 655 l 78 692 q 268 758 168 758 q 437 637 398 758 q 598 758 490 758 q 747 665 690 758 q 805 424 805 573 l 805 347 l 476 347 q 520 157 478 219 q 632 96 563 96 q 786 145 705 96 l 786 35 q 624 -14 714 -14 q 412 144 475 -14 q 206 -14 340 -14 q 79 44 127 -14 q 31 208 31 103 q 253 445 31 434 l 354 450 m 479 450 l 684 450 q 657 600 684 545 q 585 655 631 655 q 512 603 541 655 q 479 450 483 550 m 353 363 l 295 358 q 154 207 154 347 q 175 120 154 152 q 231 88 196 88 q 319 143 285 88 q 353 296 353 198 l 353 363 "},"ĩ":{"x_min":133.6875,"x_max":729.171875,"ha":834,"o":"m 367 648 l 184 662 l 184 745 l 490 745 l 490 96 l 729 83 l 729 0 l 133 0 l 133 83 l 367 96 l 367 648 m 242 841 l 171 841 q 314 1021 187 1021 q 423 982 353 1021 q 515 944 492 944 q 587 1022 570 944 l 659 1022 q 516 843 640 843 q 409 881 477 843 q 314 919 341 919 q 242 841 259 919 "},"~":{"x_min":103,"x_max":730,"ha":834,"o":"m 103 397 l 103 507 q 270 581 170 581 q 439 538 338 581 q 575 500 527 500 q 730 582 649 500 l 730 472 q 561 399 662 399 q 393 441 493 399 q 257 479 304 479 q 103 397 183 479 "},"ŀ":{"x_min":127.6875,"x_max":731.46875,"ha":834,"o":"m 361 958 l 179 972 l 179 1055 l 484 1055 l 484 96 l 723 83 l 723 0 l 127 0 l 127 83 l 361 96 l 361 958 m 666 540 q 731 462 731 540 q 666 385 731 385 q 601 462 601 385 q 666 540 601 540 "},"Ċ":{"x_min":87,"x_max":801,"ha":834,"o":"m 763 136 l 763 26 q 519 -14 663 -14 q 198 119 309 -14 q 87 497 87 252 q 208 868 87 731 q 540 1006 330 1006 q 801 947 690 1006 l 747 841 q 540 894 643 894 q 307 787 394 894 q 220 496 220 679 q 302 199 220 301 q 540 97 383 97 q 763 136 629 97 m 534 1252 q 599 1174 599 1252 q 534 1097 599 1097 q 469 1174 469 1097 q 534 1252 469 1252 "},"¡":{"x_min":330,"x_max":502.265625,"ha":834,"o":"m 416 569 q 330 663 330 569 q 416 758 330 758 q 502 663 502 758 q 416 569 502 569 m 374 458 l 456 458 l 491 -253 l 340 -253 l 374 458 "},"ẅ":{"x_min":-3,"x_max":836,"ha":834,"o":"m 551 0 l 462 404 l 416 628 l 411 628 l 367 401 l 276 0 l 148 0 l -3 745 l 106 745 l 173 376 q 212 109 196 250 l 216 109 q 262 352 237 235 l 352 745 l 483 745 l 569 352 q 614 109 598 220 l 619 109 q 659 376 640 274 l 728 745 l 836 745 l 683 0 l 551 0 m 288 1015 q 353 945 353 1015 q 288 876 353 876 q 223 945 223 876 q 288 1015 223 1015 m 542 1015 q 608 945 608 1015 q 542 876 608 876 q 477 945 477 876 q 542 1015 477 1015 "},"К":{"x_min":143,"x_max":813.25,"ha":834,"o":"m 813 0 l 664 0 l 269 502 l 269 0 l 143 0 l 143 992 l 269 992 l 269 511 l 654 992 l 794 992 l 409 515 l 813 0 "},"Γ":{"x_min":158,"x_max":719,"ha":834,"o":"m 719 992 l 719 880 l 284 880 l 284 0 l 158 0 l 158 992 l 719 992 "},"P":{"x_min":119,"x_max":742,"ha":834,"o":"m 245 385 l 245 0 l 119 0 l 119 992 l 393 992 q 742 701 742 992 q 647 468 742 552 q 374 385 553 385 l 245 385 m 245 493 l 359 493 q 550 541 493 493 q 608 694 608 590 q 380 884 608 884 l 245 884 l 245 493 "},"%":{"x_min":0,"x_max":834,"ha":834,"o":"m 197 532 q 54 596 108 532 q 0 768 0 660 q 53 941 0 879 q 199 1003 107 1003 q 342 939 287 1003 q 397 768 397 876 q 343 595 397 658 q 197 532 290 532 m 199 613 q 293 769 293 613 q 199 921 293 921 q 103 769 103 921 q 199 613 103 613 m 717 992 l 222 0 l 115 0 l 609 992 l 717 992 m 634 -12 q 491 52 546 -12 q 437 224 437 116 q 490 397 437 335 q 636 459 544 459 q 779 395 724 459 q 834 224 834 332 q 780 51 834 114 q 634 -12 727 -12 m 636 69 q 730 225 730 69 q 636 377 730 377 q 540 225 540 377 q 636 69 540 69 "},"ϖ":{"x_min":12.15625,"x_max":816.71875,"ha":834,"o":"m 258 -14 q 167 9 204 -14 q 105 75 129 32 q 71 181 82 119 q 61 320 61 242 q 64 405 61 366 q 75 482 67 445 q 94 558 82 520 q 123 642 106 597 l 12 642 l 12 691 l 103 745 l 816 745 l 816 642 l 711 642 q 739 558 727 597 q 759 482 751 520 q 770 405 767 445 q 774 320 774 366 q 763 181 774 242 q 729 75 753 119 q 669 9 706 32 q 579 -14 632 -14 q 479 15 516 -14 q 424 106 442 45 l 417 106 q 361 15 399 45 q 258 -14 323 -14 m 668 320 q 664 401 668 362 q 653 478 661 440 q 632 556 645 516 q 604 642 620 596 l 230 642 q 201 556 213 596 q 181 478 189 516 q 170 401 173 440 q 166 320 166 362 q 172 214 166 258 q 190 142 178 170 q 221 101 203 114 q 266 88 240 88 q 311 102 292 88 q 343 140 330 116 q 361 198 355 165 q 368 270 368 231 l 368 408 l 473 408 l 473 270 q 501 135 473 182 q 572 88 528 88 q 614 101 596 88 q 645 142 632 114 q 662 214 657 170 q 668 320 668 258 "},"_":{"x_min":-11,"x_max":844,"ha":834,"o":"m 844 -219 l -11 -219 l -11 -125 l 844 -125 l 844 -219 "},"ñ":{"x_min":109,"x_max":725,"ha":834,"o":"m 601 0 l 601 479 q 440 655 601 655 q 232 385 232 655 l 232 0 l 109 0 l 109 745 l 208 745 l 227 644 l 233 644 q 461 758 303 758 q 725 486 725 758 l 725 0 l 601 0 m 248 841 l 177 841 q 320 1021 193 1021 q 429 982 359 1021 q 521 944 498 944 q 593 1022 576 944 l 665 1022 q 522 843 646 843 q 415 881 483 843 q 320 919 347 919 q 248 841 265 919 "},"Ŕ":{"x_min":126,"x_max":794.25,"ha":834,"o":"m 252 409 l 252 0 l 126 0 l 126 992 l 368 992 q 721 710 721 992 q 524 443 721 515 l 794 0 l 645 0 l 407 409 l 252 409 m 252 517 l 362 517 q 532 561 478 517 q 587 704 587 606 q 533 842 587 800 q 359 884 479 884 l 252 884 l 252 517 m 303 1089 q 421 1293 367 1179 l 570 1293 l 570 1278 q 385 1071 493 1161 l 303 1071 l 303 1089 "},"‚":{"x_min":310,"x_max":522,"ha":834,"o":"m 511 161 l 522 145 q 402 -179 484 1 l 310 -179 q 361 161 346 18 l 511 161 "},"⅞":{"x_min":19,"x_max":832,"ha":834,"o":"m 76 456 l 285 910 l 19 910 l 19 992 l 391 992 l 391 924 l 181 456 l 76 456 m 662 992 l 167 0 l 60 0 l 554 992 l 662 992 m 720 287 q 832 147 832 230 q 780 35 832 77 q 644 -7 728 -7 q 502 33 552 -7 q 453 143 453 73 q 546 281 453 231 q 470 412 470 335 q 518 511 470 474 q 643 549 567 549 q 766 512 718 549 q 814 412 814 475 q 720 287 814 334 m 645 321 q 712 413 712 355 q 641 480 712 480 q 571 413 571 480 q 645 321 571 357 m 630 247 q 554 142 554 203 q 641 61 554 61 q 730 142 730 61 q 639 243 730 203 l 630 247 "},"Æ":{"x_min":0,"x_max":821,"ha":834,"o":"m 821 0 l 378 0 l 378 307 l 181 307 l 116 0 l 0 0 l 229 992 l 821 992 l 821 880 l 504 880 l 504 574 l 795 574 l 795 462 l 504 462 l 504 111 l 821 111 l 821 0 m 206 419 l 378 419 l 378 880 l 305 880 l 206 419 "},"₣":{"x_min":88,"x_max":717,"ha":834,"o":"m 326 274 l 526 274 l 526 178 l 326 178 l 326 0 l 207 0 l 207 178 l 88 178 l 88 274 l 207 274 l 207 992 l 717 992 l 717 879 l 326 879 l 326 531 l 691 531 l 691 418 l 326 418 l 326 274 "},"Ū":{"x_min":85,"x_max":749,"ha":834,"o":"m 749 993 l 749 349 q 663 79 749 173 q 412 -14 578 -14 q 85 352 85 -14 l 85 991 l 211 991 l 211 359 q 419 97 211 97 q 622 361 619 97 l 622 993 l 749 993 m 221 1172 l 612 1172 l 612 1071 l 221 1071 l 221 1172 "},"ы":{"x_min":77,"x_max":756,"ha":834,"o":"m 182 439 l 275 439 q 562 227 562 439 q 275 0 562 0 l 77 0 l 77 745 l 182 745 l 182 439 m 182 336 l 182 102 l 279 102 q 456 219 456 102 q 415 308 456 280 q 276 336 373 336 l 182 336 m 756 0 l 650 0 l 650 745 l 756 745 l 756 0 "},"ѓ":{"x_min":197,"x_max":704,"ha":834,"o":"m 704 642 l 320 642 l 320 0 l 197 0 l 197 745 l 704 745 l 704 642 m 354 860 q 472 1064 418 950 l 621 1064 l 621 1049 q 436 842 544 932 l 354 842 l 354 860 "},"Œ":{"x_min":14,"x_max":833,"ha":834,"o":"m 833 0 l 443 0 l 410 -7 q 345 -14 376 -14 q 14 498 14 -14 q 361 1007 14 1007 q 465 992 417 1007 l 833 992 l 833 880 l 568 880 l 568 574 l 807 574 l 807 462 l 568 462 l 568 111 l 833 111 l 833 0 m 442 119 l 442 873 q 352 895 402 895 q 140 497 140 895 q 351 97 140 97 q 442 119 398 97 "},"΅":{"x_min":202,"x_max":629,"ha":834,"o":"m 360 959 q 413 1164 389 1054 l 562 1164 l 562 1150 q 415 942 498 1039 l 360 942 l 360 959 m 266 1015 q 332 945 332 1015 q 313 894 332 912 q 266 876 294 876 q 202 945 202 876 q 266 1015 202 1015 m 563 1015 q 629 945 629 1015 q 563 876 629 876 q 498 945 498 876 q 563 1015 498 1015 "},"Ą":{"x_min":22,"x_max":825,"ha":834,"o":"m 681 0 l 583 307 l 250 307 l 150 0 l 22 0 l 350 996 l 482 996 l 812 0 l 681 0 m 547 419 l 457 706 q 415 860 431 791 q 384 736 401 793 l 286 419 l 547 419 m 825 -217 l 825 -293 q 719 -309 775 -309 q 595 -271 638 -309 q 553 -171 553 -234 q 677 0 553 -73 l 769 0 q 650 -162 650 -85 q 739 -227 650 -227 q 825 -217 785 -227 "},"Њ":{"x_min":45,"x_max":814,"ha":834,"o":"m 373 0 l 373 462 l 171 462 l 171 0 l 45 0 l 45 992 l 171 992 l 171 574 l 373 574 l 373 992 l 499 992 l 499 574 l 524 574 q 740 501 666 574 q 814 290 814 428 q 736 74 814 149 q 513 0 659 0 l 373 0 m 499 107 l 527 107 q 697 290 697 107 q 653 421 697 381 q 511 462 609 462 l 499 462 l 499 107 "},"›":{"x_min":272,"x_max":561,"ha":834,"o":"m 561 356 l 351 78 l 272 130 l 433 366 l 272 602 l 351 655 l 561 374 l 561 356 "},"ћ":{"x_min":3.203125,"x_max":725,"ha":834,"o":"m 601 0 l 601 451 q 441 627 601 627 q 282 564 332 627 q 232 357 232 500 l 232 0 l 109 0 l 109 843 l 3 843 l 3 932 l 109 932 l 109 1055 l 233 1055 l 233 932 l 516 932 l 516 843 l 232 843 l 232 715 l 225 616 l 232 616 q 466 730 305 730 q 660 665 596 730 q 725 458 725 600 l 725 0 l 601 0 "},"<":{"x_min":103,"x_max":730,"ha":834,"o":"m 730 150 l 103 455 l 103 525 l 730 831 l 730 722 l 244 490 l 730 258 l 730 150 "},"¬":{"x_min":103,"x_max":730,"ha":834,"o":"m 730 541 l 730 178 l 628 178 l 628 439 l 103 439 l 103 541 l 730 541 "},"t":{"x_min":95,"x_max":696,"ha":834,"o":"m 692 101 l 692 7 q 521 -14 603 -14 q 276 218 276 -14 l 276 648 l 95 648 l 95 715 l 276 749 l 328 943 l 399 943 l 399 745 l 696 745 l 696 648 l 399 648 l 399 219 q 529 88 399 88 q 692 101 592 88 "},"Ц":{"x_min":92,"x_max":821,"ha":834,"o":"m 702 111 l 821 111 l 821 -261 l 704 -261 l 704 0 l 92 0 l 92 992 l 218 992 l 218 111 l 575 111 l 575 992 l 702 992 l 702 111 "},"ù":{"x_min":109,"x_max":725,"ha":834,"o":"m 625 0 l 607 99 l 600 99 q 373 -14 529 -14 q 109 258 109 -14 l 109 745 l 232 745 l 232 264 q 392 88 232 88 q 551 151 501 88 q 601 357 601 214 l 601 745 l 725 745 l 725 0 l 625 0 m 499 842 l 416 842 q 232 1049 304 938 l 232 1064 l 380 1064 q 499 860 439 943 l 499 842 "},"ï":{"x_min":133.6875,"x_max":729.171875,"ha":834,"o":"m 367 648 l 184 662 l 184 745 l 490 745 l 490 96 l 729 83 l 729 0 l 133 0 l 133 83 l 367 96 l 367 648 m 289 1015 q 354 945 354 1015 q 289 876 354 876 q 224 945 224 876 q 289 1015 224 1015 m 543 1015 q 609 945 609 1015 q 543 876 609 876 q 478 945 478 876 q 543 1015 478 1015 "},"Ф":{"x_min":18,"x_max":817,"ha":834,"o":"m 361 1006 l 487 1006 l 487 884 l 517 884 q 736 779 656 884 q 817 514 817 674 q 734 246 817 354 q 503 139 652 139 l 487 139 l 487 -14 l 361 -14 l 361 139 l 344 139 q 103 246 188 139 q 18 514 18 354 q 101 778 18 673 q 329 884 184 884 l 361 884 l 361 1006 m 487 246 l 491 246 q 638 319 585 246 q 690 517 690 391 q 642 705 690 634 q 507 776 594 776 l 487 776 l 487 246 m 361 776 l 340 776 q 195 705 247 776 q 144 517 144 634 q 200 319 144 391 q 357 246 256 246 l 361 246 l 361 776 "},"Ò":{"x_min":57,"x_max":778,"ha":834,"o":"m 417 -14 q 57 498 57 -14 q 419 1007 57 1007 q 685 874 592 1007 q 778 496 778 741 q 684 118 778 251 q 417 -14 590 -14 m 417 97 q 589 195 535 97 q 644 497 644 293 q 589 799 644 702 q 419 895 533 895 q 190 497 190 895 q 417 97 190 97 m 496 1071 l 413 1071 q 229 1278 301 1167 l 229 1293 l 377 1293 q 496 1089 436 1172 l 496 1071 "},"I":{"x_min":152.921875,"x_max":678.5625,"ha":834,"o":"m 678 0 l 152 0 l 152 83 l 353 96 l 353 895 l 152 908 l 152 992 l 678 992 l 678 908 l 479 895 l 479 96 l 678 83 l 678 0 "},"˝":{"x_min":168,"x_max":666,"ha":834,"o":"m 168 860 q 271 1064 223 950 l 420 1064 l 420 1049 q 235 842 344 932 l 168 842 l 168 860 m 413 860 q 517 1064 465 940 l 666 1064 l 666 1049 q 481 842 590 932 l 413 842 l 413 860 "},"·":{"x_min":330,"x_max":502,"ha":834,"o":"m 416 585 q 502 490 502 585 q 416 396 502 396 q 330 490 330 396 q 416 585 330 585 "},"¿":{"x_min":114,"x_max":716,"ha":834,"o":"m 461 569 q 375 663 375 569 q 461 758 375 758 q 547 663 547 758 q 461 569 547 569 m 520 458 l 520 432 q 490 301 520 352 q 381 194 460 251 q 265 89 294 128 q 237 -18 237 49 q 287 -120 237 -82 q 426 -159 337 -159 q 674 -97 547 -159 l 716 -195 q 429 -267 567 -267 q 198 -200 282 -267 q 114 -24 114 -134 q 150 122 114 66 q 285 252 187 179 q 389 347 367 311 q 412 445 412 384 l 412 458 l 520 458 "},"ſ":{"x_min":242,"x_max":691,"ha":834,"o":"m 691 1039 l 663 942 q 508 960 591 960 q 396 928 427 960 q 365 814 365 895 l 365 0 l 242 0 l 242 814 q 303 1002 242 942 q 505 1063 364 1063 q 691 1039 590 1063 "},"Ђ":{"x_min":16,"x_max":791,"ha":834,"o":"m 451 2 l 451 110 q 542 97 497 97 q 664 250 664 97 l 664 340 q 510 497 664 497 l 345 497 l 345 0 l 219 0 l 219 880 l 16 880 l 16 992 l 587 992 l 587 880 l 345 880 l 345 609 l 524 609 q 721 543 651 609 q 791 356 791 477 l 791 263 q 726 58 791 130 q 546 -14 662 -14 q 451 2 486 -14 "},"ű":{"x_min":109,"x_max":725,"ha":834,"o":"m 625 0 l 607 99 l 600 99 q 373 -14 529 -14 q 109 258 109 -14 l 109 745 l 232 745 l 232 264 q 392 88 232 88 q 551 151 501 88 q 601 357 601 214 l 601 745 l 725 745 l 725 0 l 625 0 m 222 860 q 325 1064 277 950 l 474 1064 l 474 1049 q 289 842 398 932 l 222 842 l 222 860 m 467 860 q 571 1064 519 940 l 720 1064 l 720 1049 q 535 842 644 932 l 467 842 l 467 860 "},"Ǽ":{"x_min":0,"x_max":821,"ha":834,"o":"m 821 0 l 378 0 l 378 307 l 181 307 l 116 0 l 0 0 l 229 992 l 821 992 l 821 880 l 504 880 l 504 574 l 795 574 l 795 462 l 504 462 l 504 111 l 821 111 l 821 0 m 206 419 l 378 419 l 378 880 l 305 880 l 206 419 m 428 1089 q 546 1293 492 1179 l 695 1293 l 695 1278 q 510 1071 618 1161 l 428 1071 l 428 1089 "},"φ":{"x_min":50,"x_max":784,"ha":834,"o":"m 352 -334 l 352 -12 q 50 371 50 4 q 188 750 50 583 l 268 688 q 179 531 202 601 q 155 371 155 462 q 352 90 155 112 l 352 500 q 544 758 352 758 q 720 658 656 758 q 784 387 784 558 q 697 102 784 208 q 457 -12 611 -2 l 457 -334 l 352 -334 m 457 90 q 663 386 663 110 q 544 655 663 655 q 457 501 457 655 l 457 90 "},";":{"x_min":278,"x_max":507,"ha":834,"o":"m 421 764 q 507 669 507 764 q 421 575 507 575 q 335 669 335 575 q 421 764 335 764 m 479 161 l 490 145 q 370 -179 455 12 l 278 -179 q 329 161 309 -6 l 479 161 "},"Ș":{"x_min":96,"x_max":738,"ha":834,"o":"m 96 32 l 96 152 q 375 93 238 93 q 611 258 611 93 q 564 366 611 328 q 371 456 516 404 q 170 575 231 506 q 109 754 109 644 q 196 939 109 872 q 435 1006 283 1006 q 718 953 591 1006 l 674 841 q 432 894 544 894 q 235 752 235 894 q 279 641 235 683 q 461 551 323 599 q 682 428 626 491 q 738 264 738 364 q 644 60 738 134 q 376 -14 550 -14 q 96 32 197 -14 m 328 -288 q 385 -85 370 -193 l 506 -85 l 506 -98 q 473 -182 506 -113 q 395 -307 440 -251 l 328 -307 l 328 -288 "},"Ġ":{"x_min":79,"x_max":742,"ha":834,"o":"m 455 524 l 742 524 l 742 36 q 456 -14 609 -14 q 179 121 279 -14 q 79 497 79 256 q 188 870 79 735 q 491 1006 298 1006 q 726 947 621 1006 l 677 837 q 487 894 578 894 q 285 789 357 894 q 212 496 212 683 q 479 97 212 97 q 615 116 544 97 l 615 412 l 455 412 l 455 524 m 497 1252 q 562 1174 562 1252 q 497 1097 562 1097 q 432 1174 432 1097 q 497 1252 432 1252 "},"6":{"x_min":104,"x_max":730,"ha":834,"o":"m 655 993 l 655 888 q 542 900 606 900 q 315 806 391 900 q 232 505 238 711 l 240 505 q 448 621 304 621 q 655 540 580 621 q 730 319 730 459 q 648 75 730 164 q 428 -14 566 -14 q 192 100 280 -14 q 104 423 104 214 q 538 1006 104 1006 q 655 993 608 1006 m 610 320 q 564 471 610 418 q 431 524 517 524 q 287 469 345 524 q 229 343 229 414 q 284 165 229 240 q 427 91 339 91 q 562 150 513 91 q 610 320 610 210 "},"n":{"x_min":109,"x_max":725,"ha":834,"o":"m 601 0 l 601 479 q 440 655 601 655 q 232 385 232 655 l 232 0 l 109 0 l 109 745 l 208 745 l 227 644 l 233 644 q 461 758 303 758 q 725 486 725 758 l 725 0 l 601 0 "},"ά":{"x_min":82,"x_max":799.671875,"ha":834,"o":"m 585 644 l 593 644 q 639 745 613 714 l 736 745 q 702 446 702 632 l 702 162 q 758 87 702 87 q 799 93 778 87 l 799 3 q 721 -14 764 -14 q 586 99 613 -14 l 578 99 q 365 -14 505 -14 q 157 86 233 -14 q 82 370 82 187 q 160 656 82 555 q 378 758 238 758 q 585 644 520 758 m 578 360 l 578 370 q 533 590 578 524 q 387 655 487 655 q 209 369 209 655 q 388 88 209 88 q 532 150 489 88 q 578 360 575 213 m 336 860 l 358 932 q 387 1064 380 1009 l 518 1064 l 518 1049 q 484 968 518 1038 q 409 842 451 898 l 336 842 l 336 860 "},"ϊ":{"x_min":175,"x_max":690,"ha":834,"o":"m 413 745 l 413 220 q 544 88 413 88 q 690 101 621 88 l 690 7 q 536 -14 626 -14 q 290 219 290 -14 l 290 745 l 413 745 m 240 1015 q 305 945 305 1015 q 240 876 305 876 q 175 945 175 876 q 240 1015 175 1015 m 494 1015 q 560 945 560 1015 q 494 876 560 876 q 429 945 429 876 q 494 1015 429 1015 "},"﻿":{"x_min":0,"x_max":0,"ha":834},"ģ":{"x_min":70,"x_max":763.84375,"ha":834,"o":"m 763 745 l 763 668 l 630 650 q 675 506 675 592 q 602 333 675 397 q 401 269 530 269 q 343 273 364 269 q 275 182 275 234 q 384 125 275 125 l 511 125 q 691 72 629 125 q 754 -77 754 20 q 371 -334 754 -334 q 146 -278 223 -334 q 70 -123 70 -223 q 232 61 70 22 q 167 165 167 93 q 257 293 167 240 q 162 376 197 318 q 128 502 128 434 q 200 691 128 625 q 405 758 272 758 q 507 745 464 758 l 763 745 m 402 353 q 554 508 554 353 q 401 669 554 669 q 248 506 248 669 q 402 353 248 353 m 469 17 l 342 17 q 186 -118 186 17 q 370 -237 186 -237 q 637 -84 637 -237 q 603 -3 637 -24 q 469 17 569 17 m 537 1045 q 480 842 494 942 l 359 842 l 359 856 q 389 935 359 867 q 470 1064 420 1003 l 537 1064 l 537 1045 "},"∂":{"x_min":82,"x_max":751,"ha":834,"o":"m 628 582 l 630 609 q 591 816 636 733 q 441 899 545 899 q 266 841 352 899 l 266 959 q 457 1002 356 1002 q 751 633 751 1002 q 636 177 751 369 q 327 -14 522 -14 q 82 254 82 -14 q 175 554 82 423 q 436 685 269 685 q 628 582 561 685 m 606 459 q 548 552 591 516 q 453 588 504 588 q 276 479 343 588 q 209 248 209 371 q 337 88 209 88 q 505 192 431 88 q 606 459 580 295 "},"κ":{"x_min":146,"x_max":789,"ha":834,"o":"m 258 344 l 351 457 l 625 745 l 770 745 l 434 398 l 789 0 l 644 0 l 354 318 l 266 262 l 266 0 l 146 0 l 146 745 l 266 745 l 266 547 l 255 344 l 258 344 "},"‡":{"x_min":155.125,"x_max":677.359375,"ha":834,"o":"m 452 336 l 677 357 l 677 235 l 452 256 l 490 0 l 343 0 l 380 256 l 155 235 l 155 357 l 380 336 l 348 532 l 380 718 l 155 697 l 155 820 l 380 799 l 343 1055 l 490 1055 l 452 799 l 677 820 l 677 697 l 452 718 l 484 532 l 452 336 "},"ň":{"x_min":109,"x_max":725,"ha":834,"o":"m 601 0 l 601 479 q 440 655 601 655 q 232 385 232 655 l 232 0 l 109 0 l 109 745 l 208 745 l 227 644 l 233 644 q 461 758 303 758 q 725 486 725 758 l 725 0 l 601 0 m 650 1045 q 609 1000 633 1026 q 490 842 514 893 l 359 842 q 240 1000 335 893 l 200 1045 l 200 1064 l 281 1064 q 424 937 337 1027 q 567 1064 507 1024 l 650 1064 l 650 1045 "},"√":{"x_min":16,"x_max":818,"ha":834,"o":"m 415 -10 l 325 -10 l 138 522 l 16 522 l 16 615 l 216 615 l 372 165 l 719 1150 l 818 1150 l 415 -10 "},"ę":{"x_min":90,"x_max":744,"ha":834,"o":"m 744 346 l 217 346 q 451 93 222 93 q 703 145 584 93 l 703 36 q 456 -14 590 -14 q 189 87 289 -14 q 90 366 90 188 q 182 652 90 547 q 428 758 274 758 q 658 666 572 758 q 744 423 744 575 l 744 346 m 220 449 l 616 449 q 428 655 616 655 q 220 449 238 655 m 707 -196 l 707 -272 q 601 -288 657 -288 q 477 -250 520 -288 q 435 -150 435 -213 q 559 21 435 -52 l 651 21 q 532 -141 532 -64 q 621 -206 532 -206 q 707 -196 667 -206 "},"į":{"x_min":133.6875,"x_max":729.171875,"ha":834,"o":"m 429 1051 q 501 973 501 1051 q 479 915 501 934 q 429 896 458 896 q 356 973 356 896 q 429 1051 356 1051 m 367 648 l 184 662 l 184 745 l 490 745 l 490 96 l 729 83 l 729 0 l 133 0 l 133 83 l 367 96 l 367 648 m 570 -217 l 570 -293 q 464 -309 520 -309 q 340 -271 383 -309 q 298 -171 298 -234 q 422 0 298 -73 l 514 0 q 395 -162 395 -85 q 484 -227 395 -227 q 570 -217 530 -227 "},"Τ":{"x_min":69,"x_max":762,"ha":834,"o":"m 479 0 l 353 0 l 353 880 l 69 880 l 69 992 l 762 992 l 762 880 l 479 880 l 479 0 "},"≈":{"x_min":103,"x_max":730,"ha":834,"o":"m 103 533 l 103 643 q 270 718 169 718 q 439 674 337 718 q 575 637 525 637 q 730 719 649 637 l 730 609 q 561 536 664 536 q 393 578 493 536 q 257 616 306 616 q 103 533 181 616 m 103 256 l 103 366 q 270 440 170 440 q 439 397 338 440 q 575 359 527 359 q 730 441 649 359 l 730 331 q 561 258 662 258 q 393 300 493 258 q 257 338 304 338 q 103 256 183 338 "},"ΐ":{"x_min":164,"x_max":690,"ha":834,"o":"m 413 745 l 413 220 q 544 88 413 88 q 690 101 621 88 l 690 7 q 536 -14 626 -14 q 290 219 290 -14 l 290 745 l 413 745 m 322 959 q 375 1164 351 1054 l 524 1164 l 524 1150 q 377 942 460 1039 l 322 942 l 322 959 m 228 1015 q 294 945 294 1015 q 275 894 294 912 q 228 876 256 876 q 164 945 164 876 q 228 1015 164 1015 m 525 1015 q 591 945 591 1015 q 525 876 591 876 q 460 945 460 876 q 525 1015 460 1015 "},"ĸ":{"x_min":146,"x_max":789,"ha":834,"o":"m 258 344 l 351 457 l 625 745 l 770 745 l 434 398 l 789 0 l 644 0 l 354 318 l 266 262 l 266 0 l 146 0 l 146 745 l 266 745 l 266 547 l 255 344 l 258 344 "},"g":{"x_min":70,"x_max":763.84375,"ha":834,"o":"m 763 745 l 763 668 l 630 650 q 675 506 675 592 q 602 333 675 397 q 401 269 530 269 q 343 273 364 269 q 275 182 275 234 q 384 125 275 125 l 511 125 q 691 72 629 125 q 754 -77 754 20 q 371 -334 754 -334 q 146 -278 223 -334 q 70 -123 70 -223 q 232 61 70 22 q 167 165 167 93 q 257 293 167 240 q 162 376 197 318 q 128 502 128 434 q 200 691 128 625 q 405 758 272 758 q 507 745 464 758 l 763 745 m 402 353 q 554 508 554 353 q 401 669 554 669 q 248 506 248 669 q 402 353 248 353 m 469 17 l 342 17 q 186 -118 186 17 q 370 -237 186 -237 q 637 -84 637 -237 q 603 -3 637 -24 q 469 17 569 17 "},"ǿ":{"x_min":78,"x_max":755,"ha":834,"o":"m 255 21 l 204 -58 l 115 -1 l 172 87 q 78 373 78 194 q 168 655 78 553 q 418 758 258 758 q 578 719 505 758 l 630 800 l 719 743 l 661 654 q 755 373 755 548 q 663 87 755 189 q 414 -14 572 -14 q 255 21 326 -14 m 241 186 l 517 631 q 411 655 472 655 q 253 585 302 655 q 205 373 205 515 q 241 186 205 251 m 592 553 l 316 110 q 421 88 358 88 q 579 159 531 88 q 627 373 627 231 q 592 553 627 484 m 338 860 q 456 1064 402 950 l 605 1064 l 605 1049 q 420 842 528 932 l 338 842 l 338 860 "},"²":{"x_min":236,"x_max":596,"ha":834,"o":"m 596 456 l 236 456 l 236 525 l 360 660 q 454 774 433 740 q 474 847 474 808 q 400 924 474 924 q 291 873 346 924 l 240 932 q 408 1002 319 1002 q 531 961 487 1002 q 576 850 576 920 q 552 759 576 805 q 441 626 528 713 l 349 534 l 596 534 l 596 456 "},"Ã":{"x_min":22,"x_max":812,"ha":834,"o":"m 681 0 l 583 307 l 250 307 l 150 0 l 22 0 l 350 996 l 482 996 l 812 0 l 681 0 m 547 419 l 457 706 q 415 860 431 791 q 384 736 401 793 l 286 419 l 547 419 m 243 1070 l 172 1070 q 315 1250 188 1250 q 424 1211 354 1250 q 516 1173 493 1173 q 588 1251 571 1173 l 660 1251 q 517 1072 641 1072 q 410 1110 478 1072 q 315 1148 342 1148 q 243 1070 260 1148 "},"Ј":{"x_min":93,"x_max":664,"ha":834,"o":"m 93 26 l 93 138 q 302 97 202 97 q 474 151 411 97 q 537 304 537 205 l 537 992 l 664 992 l 664 305 q 568 72 664 159 q 312 -14 473 -14 q 93 26 165 -14 "},"©":{"x_min":4,"x_max":830,"ha":834,"o":"m 416 1006 q 720 867 610 1006 q 830 495 830 729 q 720 123 830 261 q 416 -14 610 -14 q 113 124 222 -14 q 4 495 4 262 q 112 867 4 728 q 416 1006 221 1006 m 416 59 q 667 175 579 59 q 756 496 756 291 q 667 816 756 700 q 416 932 579 932 q 165 816 253 932 q 77 496 77 700 q 165 175 77 291 q 416 59 253 59 m 593 307 l 593 218 q 442 185 520 185 q 239 268 310 185 q 168 497 168 352 q 242 722 168 639 q 447 806 317 806 q 619 763 533 806 l 578 677 q 446 713 503 713 q 320 655 364 713 q 276 495 276 598 q 446 277 276 277 q 593 307 510 277 "},"≥":{"x_min":103,"x_max":730,"ha":834,"o":"m 103 258 l 588 490 l 103 722 l 103 831 l 730 525 l 730 455 l 103 150 l 103 258 m 103 0 l 103 101 l 730 101 l 730 0 l 103 0 "},"à":{"x_min":22,"x_max":812,"ha":834,"o":"m 681 0 l 583 307 l 250 307 l 150 0 l 22 0 l 350 996 l 482 996 l 812 0 l 681 0 m 547 419 l 457 706 q 415 860 431 791 q 384 736 401 793 l 286 419 l 547 419 m 619 1259 q 558 1121 612 1172 q 412 1071 504 1071 q 211 1259 222 1071 l 285 1259 q 317 1189 290 1206 q 414 1172 344 1172 q 544 1259 537 1172 l 619 1259 "},"ґ":{"x_min":197,"x_max":691,"ha":834,"o":"m 691 656 l 320 656 l 320 0 l 197 0 l 197 745 l 567 745 l 567 961 l 691 961 l 691 656 "},"ÿ":{"x_min":56,"x_max":777,"ha":834,"o":"m 56 745 l 183 745 l 361 301 q 421 104 416 162 l 425 104 q 486 302 441 180 l 648 745 l 777 745 l 454 -97 q 348 -274 409 -215 q 181 -334 288 -334 q 68 -322 123 -334 l 68 -224 q 160 -231 110 -231 q 261 -203 225 -231 q 326 -108 298 -176 l 365 -7 l 56 745 m 295 1015 q 360 945 360 1015 q 295 876 360 876 q 230 945 230 876 q 295 1015 230 1015 m 549 1015 q 615 945 615 1015 q 549 876 615 876 q 484 945 484 876 q 549 1015 484 1015 "},"Ł":{"x_min":49,"x_max":741,"ha":834,"o":"m 183 0 l 183 334 l 98 281 l 49 365 l 183 450 l 183 992 l 309 992 l 309 530 l 512 659 l 566 574 l 309 413 l 309 111 l 741 111 l 741 0 l 183 0 "}," ":{"x_min":0,"x_max":0,"ha":834},"∫":{"x_min":160.25,"x_max":656.703125,"ha":834,"o":"m 656 1042 l 656 943 q 579 962 618 962 q 462 803 462 962 l 462 -92 q 405 -272 462 -211 q 245 -334 348 -334 q 160 -321 195 -334 l 160 -221 q 238 -241 200 -241 q 361 -82 361 -241 l 361 814 q 572 1055 361 1055 q 656 1042 629 1055 "},"\\":{"x_min":143,"x_max":690,"ha":834,"o":"m 263 992 l 690 0 l 569 0 l 143 992 l 263 992 "},"Ì":{"x_min":152.921875,"x_max":678.5625,"ha":834,"o":"m 678 0 l 152 0 l 152 83 l 353 96 l 353 895 l 152 908 l 152 992 l 678 992 l 678 908 l 479 895 l 479 96 l 678 83 l 678 0 m 478 1071 l 395 1071 q 211 1278 283 1167 l 211 1293 l 359 1293 q 478 1089 418 1172 l 478 1071 "},"ъ":{"x_min":29,"x_max":784,"ha":834,"o":"m 402 439 l 505 439 q 784 227 784 439 q 501 0 784 0 l 279 0 l 279 642 l 29 642 l 29 745 l 402 745 l 402 439 m 402 336 l 402 102 l 499 102 q 678 219 678 102 q 636 308 678 280 q 496 336 594 336 l 402 336 "},"ς":{"x_min":117,"x_max":723,"ha":834,"o":"m 638 -272 l 525 -272 q 602 -94 602 -161 q 557 -33 602 -53 q 404 5 513 -13 q 117 349 117 53 q 501 758 117 758 q 720 717 613 758 l 678 610 q 493 650 570 650 q 244 351 244 650 q 297 179 244 224 q 480 109 349 133 q 723 -61 723 65 q 638 -272 723 -156 "},"Ē":{"x_min":147,"x_max":719,"ha":834,"o":"m 719 0 l 147 0 l 147 992 l 719 992 l 719 880 l 273 880 l 273 574 l 693 574 l 693 462 l 273 462 l 273 111 l 719 111 l 719 0 m 228 1172 l 619 1172 l 619 1071 l 228 1071 l 228 1172 "},"!":{"x_min":330,"x_max":502.265625,"ha":834,"o":"m 458 280 l 376 280 l 341 992 l 492 992 l 458 280 m 416 168 q 502 74 502 168 q 416 -20 502 -20 q 330 74 330 -20 q 416 168 330 168 "},"ç":{"x_min":117,"x_max":720,"ha":834,"o":"m 720 717 l 677 610 q 496 650 576 650 q 244 369 244 650 q 489 93 244 93 q 707 135 595 93 l 707 27 q 483 -14 616 -14 q 213 84 309 -14 q 117 367 117 183 q 215 658 117 558 q 492 758 313 758 q 720 717 612 758 m 324 -327 l 324 -254 q 377 -258 346 -258 q 479 -196 479 -258 q 363 -119 479 -146 l 425 0 l 505 0 l 467 -78 q 577 -194 577 -103 q 379 -334 577 -334 q 324 -327 356 -334 "},"Й":{"x_min":93,"x_max":742,"ha":834,"o":"m 93 992 l 209 992 l 209 449 q 204 276 209 352 l 200 174 l 204 174 l 597 992 l 742 992 l 742 0 l 625 0 l 625 538 q 637 821 625 633 l 632 821 l 237 0 l 93 0 l 93 992 m 677 1287 q 412 1071 663 1071 q 222 1121 280 1071 q 157 1287 163 1171 l 273 1287 q 307 1188 279 1217 q 417 1159 336 1159 q 560 1287 548 1159 l 677 1287 "},"Б":{"x_min":92,"x_max":770,"ha":834,"o":"m 92 0 l 92 992 l 710 992 l 710 880 l 218 880 l 218 574 l 402 574 q 770 290 770 574 q 680 74 770 149 q 421 0 591 0 l 92 0 m 218 107 l 408 107 q 636 290 636 107 q 578 421 636 380 q 387 462 521 462 l 218 462 l 218 107 "},"đ":{"x_min":93,"x_max":832.796875,"ha":834,"o":"m 608 99 l 603 99 q 384 -14 526 -14 q 170 83 248 -14 q 93 356 93 181 q 171 631 93 532 q 384 730 249 730 q 603 622 526 730 l 611 622 q 603 733 603 709 l 603 843 l 346 843 l 346 932 l 603 932 l 603 1055 l 727 1055 l 727 932 l 832 932 l 832 843 l 727 843 l 727 0 l 627 0 l 608 99 m 603 329 l 603 356 q 556 565 603 502 q 405 627 508 627 q 220 354 220 627 q 406 88 220 88 q 555 144 509 88 q 603 329 600 200 "},"ċ":{"x_min":117,"x_max":720,"ha":834,"o":"m 720 717 l 677 610 q 496 650 576 650 q 244 369 244 650 q 489 93 244 93 q 707 135 595 93 l 707 27 q 483 -14 616 -14 q 213 84 309 -14 q 117 367 117 183 q 215 658 117 558 q 492 758 313 758 q 720 717 612 758 m 480 1023 q 545 945 545 1023 q 480 868 545 868 q 415 945 415 868 q 480 1023 415 1023 "},"Ā":{"x_min":22,"x_max":812,"ha":834,"o":"m 681 0 l 583 307 l 250 307 l 150 0 l 22 0 l 350 996 l 482 996 l 812 0 l 681 0 m 547 419 l 457 706 q 415 860 431 791 q 384 736 401 793 l 286 419 l 547 419 m 221 1172 l 612 1172 l 612 1071 l 221 1071 l 221 1172 "},"Ẃ":{"x_min":1,"x_max":833,"ha":834,"o":"m 358 684 l 478 684 l 577 330 q 626 122 618 181 q 670 542 627 158 l 717 992 l 833 992 l 706 0 l 577 0 l 462 393 q 418 584 435 487 q 373 392 396 467 l 267 0 l 139 0 l 1 992 l 116 992 l 176 542 q 203 285 191 422 q 215 122 215 148 q 262 333 231 224 l 358 684 m 339 1089 q 457 1293 403 1179 l 606 1293 l 606 1278 q 421 1071 529 1161 l 339 1071 l 339 1089 "},"ø":{"x_min":78,"x_max":755,"ha":834,"o":"m 255 21 l 204 -58 l 115 -1 l 172 87 q 78 373 78 194 q 168 655 78 553 q 418 758 258 758 q 578 719 505 758 l 630 800 l 719 743 l 661 654 q 755 373 755 548 q 663 87 755 189 q 414 -14 572 -14 q 255 21 326 -14 m 241 186 l 517 631 q 411 655 472 655 q 253 585 302 655 q 205 373 205 515 q 241 186 205 251 m 592 553 l 316 110 q 421 88 358 88 q 579 159 531 88 q 627 373 627 231 q 592 553 627 484 "},"â":{"x_min":92,"x_max":696,"ha":834,"o":"m 606 0 l 580 99 l 575 99 q 468 10 523 35 q 327 -14 413 -14 q 154 44 217 -14 q 92 207 92 102 q 436 442 92 431 l 573 447 l 573 494 q 409 655 573 655 q 187 599 309 655 l 144 692 q 404 758 277 758 q 627 699 558 758 q 696 509 696 640 l 696 0 l 606 0 m 572 362 l 462 357 q 274 315 330 352 q 219 204 219 279 q 354 82 219 82 q 513 138 454 82 q 572 294 572 194 l 572 362 m 648 842 l 565 842 q 422 967 508 879 q 279 842 332 875 l 198 842 l 198 860 q 238 905 214 879 q 357 1064 332 1010 l 488 1064 q 607 905 513 1010 l 648 860 l 648 842 "},"}":{"x_min":154,"x_max":681,"ha":834,"o":"m 328 214 q 486 383 328 355 l 486 391 q 328 559 328 419 l 328 783 q 290 863 328 838 q 154 890 251 889 l 154 992 q 452 793 452 987 l 452 567 q 681 439 452 439 l 681 337 q 452 208 452 337 l 452 -19 q 154 -220 452 -215 l 154 -118 q 290 -91 251 -117 q 328 -10 328 -65 l 328 214 "},"Δ":{"x_min":46,"x_max":786,"ha":834,"o":"m 786 83 l 786 0 l 46 0 l 46 89 l 351 992 l 477 992 l 786 83 m 413 852 q 353 626 378 701 l 181 111 l 646 111 l 475 622 q 413 852 440 727 "},"‰":{"x_min":3,"x_max":820,"ha":834,"o":"m 176 583 q 56 638 99 583 q 14 793 14 693 q 179 1004 14 1004 q 298 949 255 1004 q 342 793 342 894 q 176 583 342 583 m 178 664 q 226 696 214 664 q 238 794 238 728 q 224 895 238 868 q 178 922 211 922 q 131 894 144 922 q 117 794 117 865 q 130 696 117 728 q 178 664 142 664 m 505 572 l 30 378 l 3 444 l 477 640 l 505 572 m 294 0 q 174 55 216 0 q 132 210 132 110 q 297 421 132 421 q 416 366 373 421 q 460 210 460 311 q 294 0 460 0 m 296 81 q 344 113 332 81 q 356 211 356 145 q 342 312 356 285 q 296 339 329 339 q 249 311 262 339 q 235 211 235 283 q 248 113 235 145 q 296 81 260 81 m 654 0 q 534 55 576 0 q 492 210 492 110 q 657 421 492 421 q 776 366 733 421 q 820 210 820 311 q 654 0 820 0 m 656 81 q 704 113 692 81 q 716 211 716 145 q 703 311 716 284 q 656 339 691 339 q 609 311 622 339 q 595 211 595 283 q 608 113 595 145 q 656 81 620 81 "},"Ä":{"x_min":22,"x_max":812,"ha":834,"o":"m 681 0 l 583 307 l 250 307 l 150 0 l 22 0 l 350 996 l 482 996 l 812 0 l 681 0 m 547 419 l 457 706 q 415 860 431 791 q 384 736 401 793 l 286 419 l 547 419 m 289 1244 q 354 1174 354 1244 q 289 1105 354 1105 q 224 1174 224 1105 q 289 1244 224 1244 m 543 1244 q 609 1174 609 1244 q 543 1105 609 1105 q 478 1174 478 1105 q 543 1244 478 1244 "},"ř":{"x_min":179,"x_max":719,"ha":834,"o":"m 719 727 l 685 614 q 533 650 602 650 q 362 586 422 650 q 302 404 302 523 l 302 0 l 179 0 l 179 745 l 279 745 l 294 608 l 299 608 q 410 723 351 688 q 555 758 469 758 q 719 727 636 758 m 651 1045 q 610 1000 634 1026 q 491 842 515 893 l 360 842 q 241 1000 336 893 l 201 1045 l 201 1064 l 282 1064 q 425 937 338 1027 q 568 1064 508 1024 l 651 1064 l 651 1045 "},"—":{"x_min":-4,"x_max":838,"ha":834,"o":"m -4 315 l -4 429 l 838 429 l 838 315 l -4 315 "},"N":{"x_min":92,"x_max":741,"ha":834,"o":"m 741 0 l 596 0 l 201 821 l 196 821 q 208 538 208 633 l 208 0 l 92 0 l 92 992 l 236 992 l 629 174 l 633 174 q 624 449 624 380 l 624 992 l 741 992 l 741 0 "},"⁄":{"x_min":115,"x_max":717,"ha":834,"o":"m 717 992 l 222 0 l 115 0 l 609 992 l 717 992 "},"2":{"x_min":107,"x_max":726,"ha":834,"o":"m 726 0 l 107 0 l 107 105 l 344 364 q 519 579 477 508 q 561 736 561 650 q 518 856 561 812 q 401 900 475 900 q 185 808 293 900 l 116 889 q 403 1006 246 1006 q 610 934 534 1006 q 687 740 687 862 q 646 575 687 660 q 449 320 606 490 l 258 118 l 258 112 l 726 112 l 726 0 "},"М":{"x_min":77,"x_max":757,"ha":834,"o":"m 361 0 l 173 868 l 167 868 q 180 592 180 687 l 180 0 l 77 0 l 77 992 l 244 992 l 412 183 l 416 183 l 586 992 l 757 992 l 757 0 l 653 0 l 653 601 q 663 866 653 670 l 657 866 l 466 0 l 361 0 "},"Ó":{"x_min":57,"x_max":778,"ha":834,"o":"m 417 -14 q 57 498 57 -14 q 419 1007 57 1007 q 685 874 592 1007 q 778 496 778 741 q 684 118 778 251 q 417 -14 590 -14 m 417 97 q 589 195 535 97 q 644 497 644 293 q 589 799 644 702 q 419 895 533 895 q 190 497 190 895 q 417 97 190 97 m 345 1089 q 463 1293 409 1179 l 612 1293 l 612 1278 q 427 1071 535 1161 l 345 1071 l 345 1089 "},"˜":{"x_min":172,"x_max":660,"ha":834,"o":"m 243 841 l 172 841 q 315 1021 188 1021 q 424 982 354 1021 q 516 944 493 944 q 588 1022 571 944 l 660 1022 q 517 843 641 843 q 410 881 478 843 q 315 919 342 919 q 243 841 260 919 "}," ":{"x_min":0,"x_max":0,"ha":834},"ˇ":{"x_min":192,"x_max":642,"ha":834,"o":"m 642 1045 q 601 1000 625 1026 q 482 842 506 893 l 351 842 q 232 1000 327 893 l 192 1045 l 192 1064 l 273 1064 q 416 937 329 1027 q 559 1064 499 1024 l 642 1064 l 642 1045 "},"ų":{"x_min":109,"x_max":764,"ha":834,"o":"m 625 0 l 607 99 l 600 99 q 373 -14 529 -14 q 109 258 109 -14 l 109 745 l 232 745 l 232 264 q 392 88 232 88 q 551 151 501 88 q 601 357 601 214 l 601 745 l 725 745 l 725 0 l 625 0 m 764 -217 l 764 -293 q 658 -309 714 -309 q 534 -271 577 -309 q 492 -171 492 -234 q 616 0 492 -73 l 708 0 q 589 -162 589 -85 q 678 -227 589 -227 q 764 -217 724 -227 "},"Ў":{"x_min":18,"x_max":814,"ha":834,"o":"m 814 992 l 523 289 q 431 109 471 166 q 329 18 390 51 q 183 -14 269 -14 q 63 6 113 -14 l 63 131 q 184 97 120 97 q 299 132 258 97 q 377 250 341 167 l 18 992 l 156 992 l 416 440 q 429 408 424 423 q 441 377 435 391 l 442 377 l 469 451 l 681 992 l 814 992 m 680 1287 q 415 1071 666 1071 q 225 1121 283 1071 q 160 1287 166 1171 l 276 1287 q 310 1188 282 1217 q 420 1159 339 1159 q 563 1287 551 1159 l 680 1287 "},"Ŭ":{"x_min":85,"x_max":749,"ha":834,"o":"m 749 993 l 749 349 q 663 79 749 173 q 412 -14 578 -14 q 85 352 85 -14 l 85 991 l 211 991 l 211 359 q 419 97 211 97 q 622 361 619 97 l 622 993 l 749 993 m 621 1259 q 560 1121 614 1172 q 414 1071 506 1071 q 213 1259 224 1071 l 287 1259 q 319 1189 292 1206 q 416 1172 346 1172 q 546 1259 539 1172 l 621 1259 "},"ĝ":{"x_min":70,"x_max":763.84375,"ha":834,"o":"m 763 745 l 763 668 l 630 650 q 675 506 675 592 q 602 333 675 397 q 401 269 530 269 q 343 273 364 269 q 275 182 275 234 q 384 125 275 125 l 511 125 q 691 72 629 125 q 754 -77 754 20 q 371 -334 754 -334 q 146 -278 223 -334 q 70 -123 70 -223 q 232 61 70 22 q 167 165 167 93 q 257 293 167 240 q 162 376 197 318 q 128 502 128 434 q 200 691 128 625 q 405 758 272 758 q 507 745 464 758 l 763 745 m 402 353 q 554 508 554 353 q 401 669 554 669 q 248 506 248 669 q 402 353 248 353 m 469 17 l 342 17 q 186 -118 186 17 q 370 -237 186 -237 q 637 -84 637 -237 q 603 -3 637 -24 q 469 17 569 17 m 637 842 l 554 842 q 411 967 497 879 q 268 842 321 875 l 187 842 l 187 860 q 227 905 203 879 q 346 1064 321 1010 l 477 1064 q 596 905 502 1010 l 637 860 l 637 842 "},"Ω":{"x_min":49.859375,"x_max":786.140625,"ha":834,"o":"m 367 99 l 367 0 l 49 0 l 49 111 l 230 111 q 58 559 58 270 q 153 889 58 771 q 417 1007 248 1007 q 682 889 587 1007 q 778 559 778 771 q 604 111 778 268 l 786 111 l 786 0 l 468 0 l 468 99 q 644 556 644 256 q 417 895 644 895 q 191 556 191 895 q 367 99 191 256 "},"s":{"x_min":138,"x_max":696,"ha":834,"o":"m 138 32 l 138 145 q 388 88 268 88 q 575 196 575 88 q 542 264 575 235 q 388 336 508 292 q 190 444 231 395 q 149 560 149 493 q 224 705 149 652 q 433 758 300 758 q 684 707 568 758 l 643 606 q 428 655 520 655 q 269 565 269 655 q 303 499 269 523 q 460 430 337 474 q 649 327 602 378 q 696 203 696 277 q 616 44 696 102 q 392 -14 537 -14 q 138 32 224 -14 "},"?":{"x_min":114,"x_max":719,"ha":834,"o":"m 313 280 l 313 305 q 344 437 313 386 q 452 544 375 488 q 567 649 539 610 q 595 756 595 688 q 545 858 595 819 q 406 898 495 898 q 157 836 289 898 l 114 940 q 403 1006 255 1006 q 633 939 548 1006 q 719 762 719 873 q 682 615 719 671 q 547 485 645 559 q 444 390 467 426 q 421 292 421 353 l 421 280 l 313 280 m 373 168 q 459 74 459 168 q 373 -20 459 -20 q 287 74 287 -20 q 373 168 287 168 "},"Ņ":{"x_min":92,"x_max":741,"ha":834,"o":"m 741 0 l 596 0 l 201 821 l 196 821 q 208 538 208 633 l 208 0 l 92 0 l 92 992 l 236 992 l 629 174 l 633 174 q 624 449 624 380 l 624 992 l 741 992 l 741 0 m 295 -288 q 352 -85 337 -193 l 473 -85 l 473 -98 q 440 -182 473 -113 q 362 -307 407 -251 l 295 -307 l 295 -288 "},"Ī":{"x_min":152.921875,"x_max":678.5625,"ha":834,"o":"m 678 0 l 152 0 l 152 83 l 353 96 l 353 895 l 152 908 l 152 992 l 678 992 l 678 908 l 479 895 l 479 96 l 678 83 l 678 0 m 222 1172 l 613 1172 l 613 1071 l 222 1071 l 222 1172 "},"Μ":{"x_min":77,"x_max":757,"ha":834,"o":"m 361 0 l 173 868 l 167 868 q 180 592 180 687 l 180 0 l 77 0 l 77 992 l 244 992 l 412 183 l 416 183 l 586 992 l 757 992 l 757 0 l 653 0 l 653 601 q 663 866 653 670 l 657 866 l 466 0 l 361 0 "},"•":{"x_min":258,"x_max":577,"ha":834,"o":"m 417 685 q 577 507 577 685 q 533 374 577 420 q 417 329 490 329 q 299 374 341 329 q 258 507 258 419 q 417 685 258 685 "},"н":{"x_min":109,"x_max":725,"ha":834,"o":"m 232 745 l 232 436 l 601 436 l 601 745 l 725 745 l 725 0 l 601 0 l 601 333 l 232 333 l 232 0 l 109 0 l 109 745 l 232 745 "},"(":{"x_min":200,"x_max":633,"ha":834,"o":"m 502 992 l 633 992 q 327 386 327 736 q 631 -220 327 32 l 502 -220 q 200 384 200 19 q 502 992 200 745 "},"◊":{"x_min":85,"x_max":749,"ha":834,"o":"m 749 499 l 441 0 l 390 0 l 85 498 l 390 1000 l 441 1000 l 749 499 m 624 499 l 416 846 l 209 499 l 416 151 l 624 499 "},"α":{"x_min":82,"x_max":799.671875,"ha":834,"o":"m 585 644 l 593 644 q 639 745 613 714 l 736 745 q 702 446 702 632 l 702 162 q 758 87 702 87 q 799 93 778 87 l 799 3 q 721 -14 764 -14 q 586 99 613 -14 l 578 99 q 365 -14 505 -14 q 157 86 233 -14 q 82 370 82 187 q 160 656 82 555 q 378 758 238 758 q 585 644 520 758 m 578 360 l 578 370 q 533 590 578 524 q 387 655 487 655 q 209 369 209 655 q 388 88 209 88 q 532 150 489 88 q 578 360 575 213 "},"Ħ":{"x_min":0.4375,"x_max":833.5625,"ha":834,"o":"m 92 827 l 92 992 l 218 992 l 218 827 l 615 827 l 615 992 l 742 992 l 742 827 l 833 827 l 833 719 l 742 719 l 742 0 l 615 0 l 615 462 l 218 462 l 218 0 l 92 0 l 92 719 l 0 719 l 0 827 l 92 827 m 615 574 l 615 719 l 218 719 l 218 574 l 615 574 "},"м":{"x_min":78,"x_max":756,"ha":834,"o":"m 756 0 l 650 0 l 650 608 q 628 522 644 590 q 604 439 613 464 l 462 0 l 371 0 l 229 439 q 183 608 223 456 l 183 0 l 78 0 l 78 745 l 224 745 l 367 299 q 416 118 384 247 q 451 247 419 126 q 465 297 458 274 l 612 745 l 756 745 l 756 0 "},"з":{"x_min":136.296875,"x_max":700,"ha":834,"o":"m 342 439 q 506 465 457 439 q 555 551 555 492 q 386 655 555 655 q 178 606 296 655 l 136 706 q 387 758 244 758 q 601 707 526 758 q 676 562 676 657 q 545 398 676 436 l 545 390 q 700 205 700 346 q 618 44 700 102 q 384 -14 536 -14 q 139 32 225 -14 l 139 145 q 387 88 261 88 q 579 210 579 88 q 367 336 579 336 l 266 336 l 266 439 l 342 439 "},"Ґ":{"x_min":158,"x_max":711,"ha":834,"o":"m 594 992 l 594 1196 l 711 1196 l 711 880 l 284 880 l 284 0 l 158 0 l 158 992 l 594 992 "},"Û":{"x_min":85,"x_max":749,"ha":834,"o":"m 749 993 l 749 349 q 663 79 749 173 q 412 -14 578 -14 q 85 352 85 -14 l 85 991 l 211 991 l 211 359 q 419 97 211 97 q 622 361 619 97 l 622 993 l 749 993 m 642 1071 l 559 1071 q 416 1196 502 1108 q 273 1071 326 1104 l 192 1071 l 192 1089 q 232 1134 208 1108 q 351 1293 326 1239 l 482 1293 q 601 1134 507 1239 l 642 1089 l 642 1071 "},"і":{"x_min":133.6875,"x_max":729.171875,"ha":834,"o":"m 429 1051 q 501 973 501 1051 q 479 915 501 934 q 429 896 458 896 q 356 973 356 896 q 429 1051 356 1051 m 367 648 l 184 662 l 184 745 l 490 745 l 490 96 l 729 83 l 729 0 l 133 0 l 133 83 l 367 96 l 367 648 "},"V":{"x_min":22,"x_max":812,"ha":834,"o":"m 677 992 l 812 992 l 479 0 l 353 0 l 22 992 l 154 992 l 355 363 q 415 136 383 276 q 478 367 436 234 l 677 992 "},"Ŗ":{"x_min":126,"x_max":794.25,"ha":834,"o":"m 252 409 l 252 0 l 126 0 l 126 992 l 368 992 q 721 710 721 992 q 524 443 721 515 l 794 0 l 645 0 l 407 409 l 252 409 m 252 517 l 362 517 q 532 561 478 517 q 587 704 587 606 q 533 842 587 800 q 359 884 479 884 l 252 884 l 252 517 m 326 -288 q 383 -85 368 -193 l 504 -85 l 504 -98 q 471 -182 504 -113 q 393 -307 438 -251 l 326 -307 l 326 -288 "},"@":{"x_min":21,"x_max":813,"ha":834,"o":"m 537 272 l 535 272 q 380 150 485 150 q 253 220 300 150 q 206 411 206 291 q 271 637 206 551 q 444 723 337 723 q 618 691 537 723 l 603 409 q 602 362 602 383 l 602 357 q 650 238 602 238 q 718 497 718 238 q 642 792 718 685 q 440 899 567 899 q 201 769 287 899 q 115 412 115 639 q 203 85 115 200 q 453 -30 291 -30 q 687 22 575 -30 l 687 -67 q 449 -123 580 -123 q 134 17 247 -123 q 21 408 21 157 q 134 834 21 677 q 443 992 247 992 q 712 859 611 992 q 813 496 813 726 q 768 244 813 339 q 646 150 724 150 q 537 272 557 150 m 503 620 q 435 634 468 634 q 345 571 377 634 q 314 408 314 508 q 398 238 314 238 q 493 449 484 238 l 503 620 "},"ʼ":{"x_min":303,"x_max":530,"ha":834,"o":"m 520 992 l 530 977 q 410 652 492 832 l 303 652 q 369 992 345 832 l 520 992 "},"℅":{"x_min":5,"x_max":830,"ha":834,"o":"m 360 973 l 339 901 q 240 917 285 917 q 108 764 108 917 q 237 615 108 615 q 354 631 305 615 l 354 559 q 230 534 303 534 q 64 593 124 534 q 5 763 5 652 q 66 939 5 879 q 237 999 127 999 q 360 973 304 999 m 707 992 l 212 0 l 106 0 l 600 992 l 707 992 m 622 -5 q 475 57 533 -5 q 418 227 418 120 q 474 397 418 336 q 625 459 530 459 q 772 395 714 459 q 830 227 830 332 q 774 57 830 119 q 622 -5 718 -5 m 624 76 q 726 227 726 76 q 624 377 726 377 q 521 227 521 377 q 624 76 521 76 "},"i":{"x_min":133.6875,"x_max":729.171875,"ha":834,"o":"m 429 1051 q 501 973 501 1051 q 479 915 501 934 q 429 896 458 896 q 356 973 356 896 q 429 1051 356 1051 m 367 648 l 184 662 l 184 745 l 490 745 l 490 96 l 729 83 l 729 0 l 133 0 l 133 83 l 367 96 l 367 648 "},"ќ":{"x_min":146,"x_max":789,"ha":834,"o":"m 258 344 l 351 457 l 625 745 l 770 745 l 434 398 l 789 0 l 644 0 l 354 318 l 266 262 l 266 0 l 146 0 l 146 745 l 266 745 l 266 547 l 255 344 l 258 344 m 344 860 q 462 1064 408 950 l 611 1064 l 611 1049 q 426 842 534 932 l 344 842 l 344 860 "},"≤":{"x_min":103,"x_max":730,"ha":834,"o":"m 730 150 l 103 455 l 103 525 l 730 831 l 730 722 l 244 490 l 730 258 l 730 150 m 103 0 l 103 101 l 730 101 l 730 0 l 103 0 "},"ё":{"x_min":90,"x_max":744,"ha":834,"o":"m 744 346 l 217 346 q 451 93 222 93 q 703 145 584 93 l 703 36 q 456 -14 590 -14 q 189 87 289 -14 q 90 366 90 188 q 182 652 90 547 q 428 758 274 758 q 658 666 572 758 q 744 423 744 575 l 744 346 m 220 449 l 616 449 q 428 655 616 655 q 220 449 238 655 m 301 1015 q 366 945 366 1015 q 301 876 366 876 q 236 945 236 876 q 301 1015 236 1015 m 555 1015 q 621 945 621 1015 q 555 876 621 876 q 490 945 490 876 q 555 1015 490 1015 "},"υ":{"x_min":109,"x_max":735,"ha":834,"o":"m 109 745 l 232 745 l 232 345 q 418 88 232 88 q 565 167 520 88 q 611 412 611 245 q 568 745 611 573 l 691 745 q 735 406 735 578 q 657 88 735 191 q 414 -14 579 -14 q 109 337 109 -14 l 109 745 "},"ĕ":{"x_min":90,"x_max":744,"ha":834,"o":"m 744 346 l 217 346 q 451 93 222 93 q 703 145 584 93 l 703 36 q 456 -14 590 -14 q 189 87 289 -14 q 90 366 90 188 q 182 652 90 547 q 428 758 274 758 q 658 666 572 758 q 744 423 744 575 l 744 346 m 220 449 l 616 449 q 428 655 616 655 q 220 449 238 655 m 631 1030 q 570 892 624 943 q 424 842 516 842 q 223 1030 234 842 l 297 1030 q 329 960 302 977 q 426 943 356 943 q 556 1030 549 943 l 631 1030 "},"ﬃ":{"x_min":45.1875,"x_max":723.234375,"ha":834,"o":"m 723 0 l 612 0 l 612 660 l 474 660 l 474 0 l 364 0 l 364 660 l 224 660 l 224 0 l 113 0 l 113 660 l 45 660 l 45 703 l 113 745 l 113 800 q 126 920 113 872 q 166 996 140 968 q 230 1036 192 1025 q 317 1048 268 1048 q 380 1041 350 1048 q 433 1025 410 1033 q 493 1053 458 1044 q 570 1063 528 1063 q 636 1055 605 1063 q 692 1037 667 1047 l 664 947 q 621 960 645 954 q 573 966 598 966 q 529 958 547 966 q 498 933 510 951 q 480 887 486 916 q 474 814 474 857 l 474 745 l 723 745 l 723 0 m 224 745 l 364 745 l 364 813 q 380 943 364 890 q 351 949 366 947 q 320 952 336 952 q 278 945 296 952 q 248 920 260 937 q 230 873 236 902 q 224 801 224 844 l 224 745 "},"ż":{"x_min":123,"x_max":709,"ha":834,"o":"m 709 0 l 123 0 l 123 88 l 572 648 l 145 648 l 145 745 l 697 745 l 697 641 l 256 96 l 709 96 l 709 0 m 434 1023 q 499 945 499 1023 q 434 868 499 868 q 369 945 369 868 q 434 1023 369 1023 "},"Э":{"x_min":46.15625,"x_max":747,"ha":834,"o":"m 98 841 l 46 947 q 306 1006 155 1006 q 629 874 512 1006 q 747 513 747 742 q 630 123 747 260 q 300 -14 514 -14 q 57 26 156 -14 l 57 135 q 280 97 191 97 q 613 462 602 97 l 185 462 l 185 574 l 610 574 q 517 809 597 724 q 306 894 436 894 q 98 841 203 894 "},"ő":{"x_min":78,"x_max":755,"ha":834,"o":"m 414 -14 q 172 91 267 -14 q 78 373 78 196 q 170 654 78 551 q 418 758 262 758 q 660 652 566 758 q 755 373 755 547 q 661 89 755 193 q 414 -14 568 -14 m 416 88 q 627 373 627 88 q 415 655 627 655 q 205 373 205 655 q 416 88 205 88 m 223 860 q 326 1064 278 950 l 475 1064 l 475 1049 q 290 842 399 932 l 223 842 l 223 860 m 468 860 q 572 1064 520 940 l 721 1064 l 721 1049 q 536 842 645 932 l 468 842 l 468 860 "},"Ŏ":{"x_min":57,"x_max":778,"ha":834,"o":"m 417 -14 q 57 498 57 -14 q 419 1007 57 1007 q 685 874 592 1007 q 778 496 778 741 q 684 118 778 251 q 417 -14 590 -14 m 417 97 q 589 195 535 97 q 644 497 644 293 q 589 799 644 702 q 419 895 533 895 q 190 497 190 895 q 417 97 190 97 m 620 1259 q 559 1121 613 1172 q 413 1071 505 1071 q 212 1259 223 1071 l 286 1259 q 318 1189 291 1206 q 415 1172 345 1172 q 545 1259 538 1172 l 620 1259 "},"ю":{"x_min":83,"x_max":791,"ha":834,"o":"m 294 333 l 188 333 l 188 0 l 83 0 l 83 745 l 188 745 l 188 436 l 296 436 q 545 758 319 758 q 726 657 661 758 q 791 373 791 557 q 541 -14 791 -14 q 294 333 313 -14 m 544 88 q 651 154 618 88 q 685 373 685 220 q 652 588 685 521 q 543 655 619 655 q 435 590 468 655 q 401 373 401 525 q 435 155 401 223 q 544 88 468 88 "},"İ":{"x_min":152.921875,"x_max":678.5625,"ha":834,"o":"m 678 0 l 152 0 l 152 83 l 353 96 l 353 895 l 152 908 l 152 992 l 678 992 l 678 908 l 479 895 l 479 96 l 678 83 l 678 0 m 423 1252 q 488 1174 488 1252 q 423 1097 488 1097 q 358 1174 358 1097 q 423 1252 358 1252 "},"Ě":{"x_min":147,"x_max":719,"ha":834,"o":"m 719 0 l 147 0 l 147 992 l 719 992 l 719 880 l 273 880 l 273 574 l 693 574 l 693 462 l 273 462 l 273 111 l 719 111 l 719 0 m 666 1274 q 625 1229 649 1255 q 506 1071 530 1122 l 375 1071 q 256 1229 351 1122 l 216 1274 l 216 1293 l 297 1293 q 440 1166 353 1256 q 583 1293 523 1253 l 666 1293 l 666 1274 "},"‹":{"x_min":272,"x_max":561,"ha":834,"o":"m 272 374 l 482 655 l 561 602 l 399 366 l 561 130 l 482 78 l 272 356 l 272 374 "},"ķ":{"x_min":146,"x_max":789,"ha":834,"o":"m 261 375 l 352 478 l 619 745 l 770 745 l 435 422 l 789 0 l 644 0 l 356 341 l 269 286 l 269 0 l 146 0 l 146 1055 l 269 1055 l 269 571 l 258 375 l 261 375 m 329 -288 q 386 -85 371 -193 l 507 -85 l 507 -98 q 474 -182 507 -113 q 396 -307 441 -251 l 329 -307 l 329 -288 "},"ì":{"x_min":133.6875,"x_max":729.171875,"ha":834,"o":"m 367 648 l 184 662 l 184 745 l 490 745 l 490 96 l 729 83 l 729 0 l 133 0 l 133 83 l 367 96 l 367 648 m 493 842 l 410 842 q 226 1049 298 938 l 226 1064 l 374 1064 q 493 860 433 943 l 493 842 "},"±":{"x_min":103.53125,"x_max":730.203125,"ha":834,"o":"m 366 439 l 103 439 l 103 541 l 366 541 l 366 804 l 467 804 l 467 541 l 730 541 l 730 439 l 467 439 l 467 178 l 366 178 l 366 439 m 103 0 l 103 101 l 730 101 l 730 0 l 103 0 "},"|":{"x_min":366,"x_max":467.734375,"ha":834,"o":"m 366 1055 l 467 1055 l 467 -334 l 366 -334 l 366 1055 "},"§":{"x_min":165.140625,"x_max":669,"ha":834,"o":"m 285 724 q 176 884 176 778 q 246 1014 176 965 q 435 1063 317 1063 q 656 1014 545 1063 l 618 919 q 432 966 513 966 q 296 886 296 966 q 330 823 296 850 q 462 756 363 797 q 619 661 569 714 q 669 532 669 609 q 570 349 669 409 q 669 196 669 295 q 593 47 669 102 q 384 -7 518 -7 q 165 37 246 -7 l 165 144 q 384 89 281 89 q 548 185 548 89 q 519 251 548 224 q 386 320 489 278 q 214 428 252 377 q 176 549 176 478 q 285 724 176 670 m 484 389 q 563 514 563 440 q 513 612 563 575 q 371 682 462 650 q 281 564 281 650 q 320 478 281 514 q 460 399 358 442 l 484 389 "},"џ":{"x_min":109,"x_max":725,"ha":834,"o":"m 232 102 l 601 102 l 601 745 l 725 745 l 725 0 l 484 0 l 484 -258 l 361 -258 l 361 0 l 109 0 l 109 745 l 232 745 l 232 102 "},"љ":{"x_min":0,"x_max":801,"ha":834,"o":"m 498 437 l 531 437 q 801 226 801 437 q 516 0 801 0 l 375 0 l 375 642 l 248 642 q 207 191 225 319 q 159 26 190 62 q 62 -10 127 -10 q 0 -1 20 -10 l 0 86 q 33 78 14 78 q 77 107 61 78 q 109 266 94 136 q 149 745 125 397 l 498 745 l 498 437 m 498 334 l 498 102 l 533 102 q 695 218 695 102 q 657 306 695 279 q 530 334 620 334 l 498 334 "},"q":{"x_min":93,"x_max":727,"ha":834,"o":"m 603 644 l 608 644 l 627 745 l 727 745 l 727 -334 l 603 -334 l 603 -16 q 611 99 603 11 l 603 99 q 384 -14 526 -14 q 170 87 248 -14 q 93 370 93 188 q 171 655 93 553 q 384 758 249 758 q 603 644 525 758 m 603 342 l 603 370 q 556 590 603 524 q 405 655 508 655 q 220 369 220 655 q 406 88 220 88 q 555 148 510 88 q 603 342 600 208 "},"˳":{"x_min":262,"x_max":569,"ha":834,"o":"m 569 -229 q 557 -291 569 -264 q 524 -338 545 -319 q 474 -367 503 -357 q 413 -377 446 -377 q 351 -367 379 -377 q 303 -338 323 -357 q 272 -292 283 -319 q 262 -231 262 -265 q 272 -169 262 -196 q 303 -123 283 -142 q 351 -94 323 -104 q 413 -85 379 -85 q 474 -94 445 -85 q 523 -123 502 -104 q 556 -168 544 -142 q 569 -229 569 -195 m 494 -231 q 472 -174 494 -194 q 415 -154 450 -154 q 358 -174 380 -154 q 336 -231 336 -194 q 356 -287 336 -267 q 415 -307 376 -307 q 472 -287 450 -307 q 494 -231 494 -267 "},"ή":{"x_min":109,"x_max":725,"ha":834,"o":"m 601 -334 l 601 479 q 440 655 601 655 q 232 385 232 655 l 232 0 l 109 0 l 109 745 l 208 745 l 227 644 l 233 644 q 461 758 302 758 q 725 486 725 758 l 725 -334 l 601 -334 m 380 860 l 402 932 q 431 1064 424 1009 l 562 1064 l 562 1049 q 528 968 562 1038 q 453 842 495 898 l 380 842 l 380 860 "},"Ж":{"x_min":-0.25,"x_max":834.25,"ha":834,"o":"m 253 511 l 7 992 l 128 992 l 366 511 l 366 992 l 492 992 l 492 511 l 703 992 l 824 992 l 603 511 l 834 0 l 708 0 l 492 502 l 492 0 l 366 0 l 366 502 l 123 0 l 0 0 l 253 511 "},"®":{"x_min":4,"x_max":830,"ha":834,"o":"m 416 1006 q 720 867 610 1006 q 830 495 830 729 q 720 123 830 261 q 416 -14 610 -14 q 113 124 222 -14 q 4 495 4 262 q 112 867 4 728 q 416 1006 221 1006 m 416 59 q 667 175 579 59 q 756 496 756 291 q 667 816 756 700 q 416 932 579 932 q 165 816 253 932 q 77 496 77 700 q 165 175 77 291 q 416 59 253 59 m 508 461 l 668 194 l 548 194 l 407 432 l 344 432 l 344 194 l 236 194 l 236 799 l 395 799 q 616 619 616 799 q 508 461 616 508 m 344 524 l 393 524 q 507 618 507 524 q 479 687 507 667 q 390 706 450 706 l 344 706 l 344 524 "},"Н":{"x_min":92,"x_max":742,"ha":834,"o":"m 742 0 l 615 0 l 615 462 l 218 462 l 218 0 l 92 0 l 92 992 l 218 992 l 218 574 l 615 574 l 615 992 l 742 992 l 742 0 "},"Ε":{"x_min":147,"x_max":719,"ha":834,"o":"m 719 0 l 147 0 l 147 992 l 719 992 l 719 880 l 273 880 l 273 574 l 693 574 l 693 462 l 273 462 l 273 111 l 719 111 l 719 0 "},"₧":{"x_min":56,"x_max":808,"ha":834,"o":"m 182 388 l 182 0 l 56 0 l 56 992 l 199 992 q 515 702 515 992 q 438 470 515 553 q 209 388 361 388 l 182 388 m 182 485 l 207 485 q 389 690 389 485 q 222 884 389 884 l 182 884 l 182 485 m 808 92 l 808 7 q 699 -14 766 -14 q 554 172 554 -14 l 554 407 l 476 407 l 476 466 l 554 501 l 594 647 l 648 647 l 648 504 l 790 504 l 790 407 l 648 407 l 648 181 q 724 82 648 82 q 808 92 766 82 "},"л":{"x_min":21,"x_max":706,"ha":834,"o":"m 706 0 l 582 0 l 582 642 l 351 642 q 266 148 326 306 q 83 -10 205 -10 q 21 -1 41 -10 l 21 86 q 54 78 35 78 q 175 241 129 78 q 246 745 221 403 l 706 745 l 706 0 "},"σ":{"x_min":87,"x_max":796.359375,"ha":834,"o":"m 796 745 l 796 642 l 615 642 q 736 342 736 509 q 648 84 736 182 q 409 -14 561 -14 q 173 83 259 -14 q 87 355 87 180 q 463 745 87 745 l 796 745 m 503 642 l 463 642 q 271 576 328 642 q 214 356 214 509 q 266 159 214 230 q 414 88 318 88 q 558 153 509 88 q 608 337 608 218 q 503 642 608 520 "},"θ":{"x_min":100,"x_max":734,"ha":834,"o":"m 415 -14 q 180 115 260 -14 q 100 494 100 245 q 177 875 100 751 q 415 1000 254 1000 q 653 870 572 1000 q 734 494 734 741 q 415 -14 734 -14 m 223 547 l 606 547 q 556 810 601 723 q 413 897 511 897 q 274 812 319 897 q 223 547 228 727 m 606 458 l 223 458 q 272 177 227 267 q 413 88 317 88 q 556 176 510 88 q 606 458 602 264 "}," ":{"x_min":0,"x_max":0,"ha":834},"∑":{"x_min":50,"x_max":793,"ha":834,"o":"m 50 -334 l 50 -256 l 446 364 l 60 914 l 60 992 l 748 992 l 748 880 l 237 880 l 596 365 l 219 -222 l 793 -222 l 793 -334 l 50 -334 "},"Ώ":{"x_min":-91,"x_max":786.140625,"ha":834,"o":"m 367 99 l 367 0 l 49 0 l 49 111 l 230 111 q 58 559 58 270 q 153 889 58 771 q 417 1007 248 1007 q 682 889 587 1007 q 778 559 778 771 q 604 111 778 268 l 786 111 l 786 0 l 468 0 l 468 99 q 644 556 644 256 q 417 895 644 895 q 191 556 191 895 q 367 99 191 256 m -91 789 l -68 861 q -39 993 -46 938 l 91 993 l 91 978 q 57 897 91 967 q -17 771 24 827 l -91 771 l -91 789 "},"ẃ":{"x_min":-3,"x_max":836,"ha":834,"o":"m 551 0 l 462 404 l 416 628 l 411 628 l 367 401 l 276 0 l 148 0 l -3 745 l 106 745 l 173 376 q 212 109 196 250 l 216 109 q 262 352 237 235 l 352 745 l 483 745 l 569 352 q 614 109 598 220 l 619 109 q 659 376 640 274 l 728 745 l 836 745 l 683 0 l 551 0 m 354 860 q 472 1064 418 950 l 621 1064 l 621 1049 q 436 842 544 932 l 354 842 l 354 860 "},"+":{"x_min":103.53125,"x_max":730.203125,"ha":834,"o":"m 366 439 l 103 439 l 103 541 l 366 541 l 366 804 l 467 804 l 467 541 l 730 541 l 730 439 l 467 439 l 467 178 l 366 178 l 366 439 "},"Ë":{"x_min":147,"x_max":719,"ha":834,"o":"m 719 0 l 147 0 l 147 992 l 719 992 l 719 880 l 273 880 l 273 574 l 693 574 l 693 462 l 273 462 l 273 111 l 719 111 l 719 0 m 306 1244 q 371 1174 371 1244 q 306 1105 371 1105 q 241 1174 241 1105 q 306 1244 241 1244 m 560 1244 q 626 1174 626 1244 q 560 1105 626 1105 q 495 1174 495 1105 q 560 1244 495 1244 "},"Š":{"x_min":96,"x_max":738,"ha":834,"o":"m 96 32 l 96 152 q 375 93 238 93 q 611 258 611 93 q 564 366 611 328 q 371 456 516 404 q 170 575 231 506 q 109 754 109 644 q 196 939 109 872 q 435 1006 283 1006 q 718 953 591 1006 l 674 841 q 432 894 544 894 q 235 752 235 894 q 279 641 235 683 q 461 551 323 599 q 682 428 626 491 q 738 264 738 364 q 644 60 738 134 q 376 -14 550 -14 q 96 32 197 -14 m 663 1274 q 622 1229 646 1255 q 503 1071 527 1122 l 372 1071 q 253 1229 348 1122 l 213 1274 l 213 1293 l 294 1293 q 437 1166 350 1256 q 580 1293 520 1253 l 663 1293 l 663 1274 "}," ":{"x_min":0,"x_max":0,"ha":834},"ð":{"x_min":92,"x_max":742,"ha":834,"o":"m 603 575 l 609 578 q 443 845 569 733 l 270 742 l 221 819 l 368 907 q 251 981 297 955 l 298 1065 q 465 964 395 1017 l 618 1058 l 669 981 l 537 902 q 742 388 742 705 q 654 93 742 200 q 415 -14 567 -14 q 181 76 270 -14 q 92 323 92 167 q 173 569 92 481 q 400 658 255 658 q 603 575 543 658 m 415 555 q 219 317 219 555 q 416 88 219 88 q 568 155 522 88 q 614 355 614 222 q 561 498 614 442 q 415 555 508 555 "},"щ":{"x_min":74,"x_max":820,"ha":834,"o":"m 459 102 l 634 102 l 634 745 l 740 745 l 740 102 l 820 102 l 820 -258 l 714 -258 l 714 0 l 74 0 l 74 745 l 179 745 l 179 102 l 354 102 l 354 745 l 459 745 l 459 102 "},"℮":{"x_min":56,"x_max":776,"ha":834,"o":"m 776 359 l 214 359 l 214 117 q 415 33 297 33 q 684 193 588 33 l 732 165 q 592 17 666 59 q 415 -24 518 -24 q 154 85 252 -24 q 56 359 56 195 q 160 639 56 536 q 415 743 264 743 q 674 637 572 743 q 776 362 776 532 l 776 359 m 618 417 l 618 604 q 414 685 536 685 q 214 606 298 685 l 214 417 l 618 417 "},"Φ":{"x_min":18,"x_max":817,"ha":834,"o":"m 361 1006 l 487 1006 l 487 884 l 517 884 q 736 779 656 884 q 817 514 817 674 q 734 246 817 354 q 503 139 652 139 l 487 139 l 487 -14 l 361 -14 l 361 139 l 344 139 q 103 246 188 139 q 18 514 18 354 q 101 778 18 673 q 329 884 184 884 l 361 884 l 361 1006 m 487 246 l 491 246 q 638 319 585 246 q 690 517 690 391 q 642 705 690 634 q 507 776 594 776 l 487 776 l 487 246 m 361 776 l 340 776 q 195 705 247 776 q 144 517 144 634 q 200 319 144 391 q 357 246 256 246 l 361 246 l 361 776 "},"ş":{"x_min":138,"x_max":696,"ha":834,"o":"m 138 32 l 138 145 q 388 88 268 88 q 575 196 575 88 q 542 264 575 235 q 388 336 508 292 q 190 444 231 395 q 149 560 149 493 q 224 705 149 652 q 433 758 300 758 q 684 707 568 758 l 643 606 q 428 655 520 655 q 269 565 269 655 q 303 499 269 523 q 460 430 337 474 q 649 327 602 378 q 696 203 696 277 q 616 44 696 102 q 392 -14 537 -14 q 138 32 224 -14 m 285 -327 l 285 -254 q 338 -258 307 -258 q 440 -196 440 -258 q 324 -119 440 -146 l 386 0 l 466 0 l 428 -78 q 538 -194 538 -103 q 340 -334 538 -334 q 285 -327 317 -334 "}," ":{"x_min":0,"x_max":0,"ha":834},"ı":{"x_min":133.6875,"x_max":729.171875,"ha":834,"o":"m 367 648 l 184 662 l 184 745 l 490 745 l 490 96 l 729 83 l 729 0 l 133 0 l 133 83 l 367 96 l 367 648 "},"ä":{"x_min":92,"x_max":696,"ha":834,"o":"m 606 0 l 580 99 l 575 99 q 468 10 523 35 q 327 -14 413 -14 q 154 44 217 -14 q 92 207 92 102 q 436 442 92 431 l 573 447 l 573 494 q 409 655 573 655 q 187 599 309 655 l 144 692 q 404 758 277 758 q 627 699 558 758 q 696 509 696 640 l 696 0 l 606 0 m 572 362 l 462 357 q 274 315 330 352 q 219 204 219 279 q 354 82 219 82 q 513 138 454 82 q 572 294 572 194 l 572 362 m 297 1015 q 362 945 362 1015 q 297 876 362 876 q 232 945 232 876 q 297 1015 232 1015 m 551 1015 q 617 945 617 1015 q 551 876 617 876 q 486 945 486 876 q 551 1015 486 1015 "},"¹":{"x_min":249,"x_max":491.734375,"ha":834,"o":"m 397 990 l 491 990 l 491 456 l 390 456 l 390 771 q 396 906 390 817 q 345 862 368 876 l 298 828 l 249 887 l 397 990 "},"W":{"x_min":1,"x_max":833,"ha":834,"o":"m 358 684 l 478 684 l 577 330 q 626 122 618 181 q 670 542 627 158 l 717 992 l 833 992 l 706 0 l 577 0 l 462 393 q 418 584 435 487 q 373 392 396 467 l 267 0 l 139 0 l 1 992 l 116 992 l 176 542 q 203 285 191 422 q 215 122 215 148 q 262 333 231 224 l 358 684 "},"λ":{"x_min":41,"x_max":803.484375,"ha":834,"o":"m 41 0 l 383 734 l 347 842 q 294 937 324 912 q 216 961 265 961 q 145 953 178 961 l 145 1052 q 231 1064 189 1064 q 376 1018 328 1064 q 472 829 424 972 l 693 163 q 762 88 718 88 q 803 93 782 88 l 803 3 q 725 -14 769 -14 q 640 13 669 -14 q 591 99 610 40 l 500 383 q 436 611 453 528 l 432 611 q 351 393 407 517 l 169 0 l 41 0 "},">":{"x_min":103,"x_max":730,"ha":834,"o":"m 103 258 l 588 490 l 103 722 l 103 831 l 730 525 l 730 455 l 103 150 l 103 258 "},"τ":{"x_min":72.328125,"x_max":733.859375,"ha":834,"o":"m 733 745 l 733 642 l 411 642 l 411 230 q 553 84 411 84 q 683 97 625 84 l 683 5 q 533 -18 625 -18 q 288 216 288 -18 l 288 642 l 72 642 l 72 691 l 163 745 l 733 745 "},"Ų":{"x_min":85,"x_max":749,"ha":834,"o":"m 749 993 l 749 349 q 663 79 749 173 q 412 -14 578 -14 q 85 352 85 -14 l 85 991 l 211 991 l 211 359 q 419 97 211 97 q 622 361 619 97 l 622 993 l 749 993 m 572 -217 l 572 -293 q 466 -309 522 -309 q 342 -271 385 -309 q 300 -171 300 -234 q 424 0 300 -73 l 516 0 q 397 -162 397 -85 q 486 -227 397 -227 q 572 -217 532 -227 "},"Ŵ":{"x_min":1,"x_max":833,"ha":834,"o":"m 358 684 l 478 684 l 577 330 q 626 122 618 181 q 670 542 627 158 l 717 992 l 833 992 l 706 0 l 577 0 l 462 393 q 418 584 435 487 q 373 392 396 467 l 267 0 l 139 0 l 1 992 l 116 992 l 176 542 q 203 285 191 422 q 215 122 215 148 q 262 333 231 224 l 358 684 m 644 1071 l 561 1071 q 418 1196 504 1108 q 275 1071 328 1104 l 194 1071 l 194 1089 q 234 1134 210 1108 q 353 1293 328 1239 l 484 1293 q 603 1134 509 1239 l 644 1089 l 644 1071 "},"‛":{"x_min":303,"x_max":530,"ha":834,"o":"m 463 992 q 530 652 490 816 l 423 652 q 303 977 339 837 l 313 992 l 463 992 "},"Ð":{"x_min":0,"x_max":778,"ha":834,"o":"m 92 0 l 92 445 l 0 445 l 0 557 l 92 557 l 92 992 l 323 992 q 658 863 538 992 q 778 505 778 735 q 653 130 778 260 q 296 0 529 0 l 92 0 m 218 884 l 218 557 l 476 557 l 476 445 l 218 445 l 218 107 l 283 107 q 644 501 644 107 q 309 884 644 884 l 218 884 "},"Λ":{"x_min":22,"x_max":811,"ha":834,"o":"m 811 0 l 676 0 l 478 625 q 415 856 435 760 q 355 629 384 720 l 154 0 l 22 0 l 352 992 l 479 992 l 811 0 "},"·":{"x_min":330,"x_max":502,"ha":834,"o":"m 416 585 q 502 490 502 585 q 416 396 502 396 q 330 490 330 396 q 416 585 330 585 "},"Х":{"x_min":36,"x_max":797,"ha":834,"o":"m 797 0 l 653 0 l 412 430 l 164 0 l 36 0 l 343 518 l 57 992 l 191 992 l 416 612 l 643 992 l 773 992 l 486 522 l 797 0 "},"Υ":{"x_min":23,"x_max":809,"ha":834,"o":"m 415 490 l 672 992 l 809 992 l 479 386 l 479 0 l 353 0 l 353 379 l 23 992 l 160 992 l 415 490 "},"r":{"x_min":179,"x_max":719,"ha":834,"o":"m 719 727 l 685 614 q 533 650 602 650 q 362 586 422 650 q 302 404 302 523 l 302 0 l 179 0 l 179 745 l 279 745 l 294 608 l 299 608 q 410 723 351 688 q 555 758 469 758 q 719 727 636 758 "},"ж":{"x_min":-1.25,"x_max":835.25,"ha":834,"o":"m 363 383 l 363 745 l 486 745 l 486 383 l 709 745 l 835 745 l 600 383 l 833 0 l 701 0 l 486 377 l 486 0 l 363 0 l 363 377 l 133 0 l 0 0 l 250 383 l -1 745 l 123 745 l 363 383 "},"Ø":{"x_min":54.296875,"x_max":784.78125,"ha":834,"o":"m 209 49 l 147 -51 l 54 0 l 136 134 q 57 498 57 259 q 419 1007 57 1007 q 629 935 545 1007 l 691 1038 l 784 985 l 700 849 q 778 496 778 722 q 684 118 778 251 q 417 -14 590 -14 q 209 49 289 -14 m 216 265 l 565 832 q 419 895 511 895 q 190 497 190 895 q 216 265 190 353 m 620 719 l 273 155 q 417 97 327 97 q 589 195 535 97 q 644 497 644 293 q 620 719 644 638 "},"Ỳ":{"x_min":23,"x_max":809,"ha":834,"o":"m 415 490 l 672 992 l 809 992 l 479 386 l 479 0 l 353 0 l 353 379 l 23 992 l 160 992 l 415 490 m 473 1071 l 390 1071 q 206 1278 278 1167 l 206 1293 l 354 1293 q 473 1089 413 1172 l 473 1071 "},"÷":{"x_min":103,"x_max":729,"ha":834,"o":"m 415 812 q 493 727 493 812 q 415 642 493 642 q 338 727 338 642 q 415 812 338 812 m 103 439 l 103 541 l 729 541 l 729 439 l 103 439 m 415 338 q 493 253 493 338 q 415 169 493 169 q 338 253 338 169 q 415 338 338 338 "},"с":{"x_min":117,"x_max":720,"ha":834,"o":"m 720 717 l 677 610 q 496 650 576 650 q 244 369 244 650 q 489 93 244 93 q 707 135 595 93 l 707 27 q 483 -14 616 -14 q 213 84 309 -14 q 117 367 117 183 q 215 658 117 558 q 492 758 313 758 q 720 717 612 758 "},"h":{"x_min":109,"x_max":725,"ha":834,"o":"m 601 0 l 601 479 q 440 655 601 655 q 232 385 232 655 l 232 0 l 109 0 l 109 1055 l 232 1055 l 232 741 l 227 644 l 233 644 q 461 758 303 758 q 725 486 725 758 l 725 0 l 601 0 "},"f":{"x_min":106,"x_max":756,"ha":834,"o":"m 708 648 l 444 648 l 444 0 l 321 0 l 321 648 l 106 648 l 106 726 l 321 749 l 321 814 q 382 1004 321 945 q 584 1063 443 1063 q 756 1039 672 1063 l 728 942 q 587 960 657 960 q 474 926 504 960 q 444 815 444 893 l 444 745 l 708 745 l 708 648 "},"“":{"x_min":158,"x_max":674,"ha":834,"o":"m 457 652 l 447 666 q 567 992 483 806 l 674 992 q 607 652 632 818 l 457 652 m 168 652 l 158 666 q 278 992 194 806 l 385 992 q 318 652 343 818 l 168 652 "},"A":{"x_min":22,"x_max":812,"ha":834,"o":"m 681 0 l 583 307 l 250 307 l 150 0 l 22 0 l 350 996 l 482 996 l 812 0 l 681 0 m 547 419 l 457 706 q 415 860 431 791 q 384 736 401 793 l 286 419 l 547 419 "},"O":{"x_min":57,"x_max":778,"ha":834,"o":"m 417 -14 q 57 498 57 -14 q 419 1007 57 1007 q 685 874 592 1007 q 778 496 778 741 q 684 118 778 251 q 417 -14 590 -14 m 417 97 q 589 195 535 97 q 644 497 644 293 q 589 799 644 702 q 419 895 533 895 q 190 497 190 895 q 417 97 190 97 "},"Đ":{"x_min":0,"x_max":778,"ha":834,"o":"m 92 0 l 92 445 l 0 445 l 0 557 l 92 557 l 92 992 l 323 992 q 658 863 538 992 q 778 505 778 735 q 653 130 778 260 q 296 0 529 0 l 92 0 m 218 884 l 218 557 l 476 557 l 476 445 l 218 445 l 218 107 l 283 107 q 644 501 644 107 q 309 884 644 884 l 218 884 "},"3":{"x_min":89,"x_max":716,"ha":834,"o":"m 471 521 l 471 517 q 716 281 716 485 q 622 64 716 143 q 351 -14 528 -14 q 89 39 187 -14 l 89 154 q 349 91 214 91 q 590 285 590 91 q 331 458 590 458 l 241 458 l 241 564 l 331 564 q 499 615 440 564 q 559 751 559 666 q 513 860 559 820 q 389 900 467 900 q 155 819 268 900 l 93 904 q 388 1006 219 1006 q 606 938 528 1006 q 685 759 685 871 q 629 602 685 665 q 471 521 574 539 "},"Ǿ":{"x_min":54.296875,"x_max":784.78125,"ha":834,"o":"m 209 49 l 147 -51 l 54 0 l 136 134 q 57 498 57 259 q 419 1007 57 1007 q 629 935 545 1007 l 691 1038 l 784 985 l 700 849 q 778 496 778 722 q 684 118 778 251 q 417 -14 590 -14 q 209 49 289 -14 m 216 265 l 565 832 q 419 895 511 895 q 190 497 190 895 q 216 265 190 353 m 620 719 l 273 155 q 417 97 327 97 q 589 195 535 97 q 644 497 644 293 q 620 719 644 638 m 322 1089 q 440 1293 386 1179 l 589 1293 l 589 1278 q 404 1071 512 1161 l 322 1071 l 322 1089 "},"⅛":{"x_min":12,"x_max":818,"ha":834,"o":"m 160 990 l 254 990 l 254 456 l 153 456 l 153 771 q 159 906 153 817 q 108 862 131 876 l 61 828 l 12 887 l 160 990 m 679 992 l 184 0 l 77 0 l 571 992 l 679 992 m 706 287 q 818 147 818 230 q 766 35 818 77 q 630 -7 714 -7 q 488 33 538 -7 q 439 143 439 73 q 532 281 439 231 q 456 412 456 335 q 504 511 456 474 q 629 549 553 549 q 752 512 704 549 q 800 412 800 475 q 706 287 800 334 m 631 321 q 698 413 698 355 q 627 480 698 480 q 557 413 557 480 q 631 321 557 357 m 616 247 q 540 142 540 203 q 627 61 540 61 q 716 142 716 61 q 625 243 716 203 l 616 247 "},"4":{"x_min":41,"x_max":764.453125,"ha":834,"o":"m 764 222 l 620 222 l 620 0 l 500 0 l 500 222 l 41 222 l 41 330 l 492 997 l 620 997 l 620 335 l 764 335 l 764 222 m 500 335 l 500 576 q 509 869 500 695 l 503 869 q 442 747 478 800 l 162 335 l 500 335 "},"Ẁ":{"x_min":1,"x_max":833,"ha":834,"o":"m 358 684 l 478 684 l 577 330 q 626 122 618 181 q 670 542 627 158 l 717 992 l 833 992 l 706 0 l 577 0 l 462 393 q 418 584 435 487 q 373 392 396 467 l 267 0 l 139 0 l 1 992 l 116 992 l 176 542 q 203 285 191 422 q 215 122 215 148 q 262 333 231 224 l 358 684 m 496 1071 l 413 1071 q 229 1278 301 1167 l 229 1293 l 377 1293 q 496 1089 436 1172 l 496 1071 "},"Ť":{"x_min":69,"x_max":762,"ha":834,"o":"m 479 0 l 353 0 l 353 880 l 69 880 l 69 992 l 762 992 l 762 880 l 479 880 l 479 0 m 641 1274 q 600 1229 624 1255 q 481 1071 505 1122 l 350 1071 q 231 1229 326 1122 l 191 1274 l 191 1293 l 272 1293 q 415 1166 328 1256 q 558 1293 498 1253 l 641 1293 l 641 1274 "},"ψ":{"x_min":54,"x_max":784,"ha":834,"o":"m 459 1054 l 459 91 q 663 386 663 110 q 624 745 663 556 l 741 745 q 784 390 784 557 q 459 -12 784 5 l 459 -334 l 354 -334 l 354 -12 q 125 85 196 -6 q 54 376 54 176 l 54 745 l 174 745 l 174 386 q 354 90 174 101 l 354 1054 l 459 1054 "},"ŗ":{"x_min":128,"x_max":719,"ha":834,"o":"m 719 727 l 685 614 q 533 650 602 650 q 362 586 422 650 q 302 404 302 523 l 302 0 l 179 0 l 179 745 l 279 745 l 294 608 l 299 608 q 410 723 351 688 q 555 758 469 758 q 719 727 636 758 m 128 -288 q 185 -85 170 -193 l 306 -85 l 306 -98 q 273 -182 306 -113 q 195 -307 240 -251 l 128 -307 l 128 -288 "}}}
